<mxfile host="app.diagrams.net" modified="2023-06-25T07:49:31.523Z" agent="Mozilla/5.0 (Windows NT 10.0; Win64; x64) AppleWebKit/537.36 (KHTML, like Gecko) Chrome/113.0.0.0 Safari/537.36 OPR/99.0.0.0" etag="cnLcISQ9i0PZXlHDBbCC" version="21.5.0" type="google">
  <diagram name="Страница 1" id="Es3luzB9lc1MQ-kKxwHG">
    <mxGraphModel grid="1" page="1" gridSize="10" guides="1" tooltips="1" connect="1" arrows="1" fold="1" pageScale="1" pageWidth="827" pageHeight="1169" math="0" shadow="0">
      <root>
        <mxCell id="0" />
        <mxCell id="1" parent="0" />
        <mxCell id="Y_pHUTL9zJ1j55iuGQUV-3" value="&lt;font face=&quot;Comic Sans MS&quot; color=&quot;#fff2f4&quot; style=&quot;font-size: 14px;&quot;&gt;Клиент&lt;/font&gt;" style="swimlane;horizontal=0;whiteSpace=wrap;html=1;swimlaneFillColor=#FFF2F4;startSize=40;fillColor=#001847;strokeColor=#001847;fontColor=#ffffff;" vertex="1" parent="1">
          <mxGeometry x="40" y="50" width="2380" height="210" as="geometry" />
        </mxCell>
        <mxCell id="Y_pHUTL9zJ1j55iuGQUV-20" value="&lt;b&gt;&lt;font face=&quot;Comic Sans MS&quot;&gt;Желание отдохнуть в Европе&lt;/font&gt;&lt;/b&gt;" style="text;html=1;strokeColor=none;fillColor=none;align=center;verticalAlign=middle;whiteSpace=wrap;rounded=0;fontColor=#001847;" vertex="1" parent="Y_pHUTL9zJ1j55iuGQUV-3">
          <mxGeometry x="53.75" y="131.25" width="60" height="55" as="geometry" />
        </mxCell>
        <mxCell id="H--HfnbZHBEuk7Bjk80q-3" value="" style="edgeStyle=orthogonalEdgeStyle;rounded=0;orthogonalLoop=1;jettySize=auto;html=1;exitX=0;exitY=0.5;exitDx=0;exitDy=0;" edge="1" parent="Y_pHUTL9zJ1j55iuGQUV-3" source="Y_pHUTL9zJ1j55iuGQUV-24" target="Y_pHUTL9zJ1j55iuGQUV-73">
          <mxGeometry relative="1" as="geometry" />
        </mxCell>
        <mxCell id="H--HfnbZHBEuk7Bjk80q-4" value="" style="edgeStyle=orthogonalEdgeStyle;rounded=0;orthogonalLoop=1;jettySize=auto;html=1;exitX=0;exitY=0.5;exitDx=0;exitDy=0;" edge="1" parent="Y_pHUTL9zJ1j55iuGQUV-3" source="Y_pHUTL9zJ1j55iuGQUV-24" target="Y_pHUTL9zJ1j55iuGQUV-73">
          <mxGeometry relative="1" as="geometry" />
        </mxCell>
        <mxCell id="H--HfnbZHBEuk7Bjk80q-74" style="edgeStyle=orthogonalEdgeStyle;rounded=0;orthogonalLoop=1;jettySize=auto;html=1;exitX=1;exitY=0.5;exitDx=0;exitDy=0;entryX=0;entryY=0.5;entryDx=0;entryDy=0;strokeColor=#001847;strokeWidth=2;" edge="1" parent="Y_pHUTL9zJ1j55iuGQUV-3" source="Y_pHUTL9zJ1j55iuGQUV-24" target="H--HfnbZHBEuk7Bjk80q-72">
          <mxGeometry relative="1" as="geometry" />
        </mxCell>
        <mxCell id="Y_pHUTL9zJ1j55iuGQUV-24" value="Выбрать страну для отдыха и турагенство" style="rounded=1;whiteSpace=wrap;html=1;fillColor=#FFF2F4;strokeColor=#001847;fontColor=#001847;fontStyle=1;fontFamily=Comic Sans MS;strokeWidth=2;" vertex="1" parent="Y_pHUTL9zJ1j55iuGQUV-3">
          <mxGeometry x="170" y="75" width="80" height="60" as="geometry" />
        </mxCell>
        <mxCell id="Y_pHUTL9zJ1j55iuGQUV-73" value="" style="ellipse;whiteSpace=wrap;html=1;aspect=fixed;strokeColor=#001847;fillColor=#FFF2F4;strokeWidth=2;" vertex="1" parent="Y_pHUTL9zJ1j55iuGQUV-3">
          <mxGeometry x="60" y="81.25" width="47.5" height="47.5" as="geometry" />
        </mxCell>
        <mxCell id="Y_pHUTL9zJ1j55iuGQUV-99" value="" style="endArrow=classic;html=1;rounded=0;strokeColor=#001847;strokeWidth=2;exitX=1;exitY=0.5;exitDx=0;exitDy=0;entryX=0;entryY=0.5;entryDx=0;entryDy=0;" edge="1" parent="Y_pHUTL9zJ1j55iuGQUV-3" source="Y_pHUTL9zJ1j55iuGQUV-73" target="Y_pHUTL9zJ1j55iuGQUV-24">
          <mxGeometry width="50" height="50" relative="1" as="geometry">
            <mxPoint x="170" y="90" as="sourcePoint" />
            <mxPoint x="180" y="105" as="targetPoint" />
          </mxGeometry>
        </mxCell>
        <mxCell id="Y_pHUTL9zJ1j55iuGQUV-97" value="Звонок в турагенство" style="text;html=1;strokeColor=none;fillColor=none;align=center;verticalAlign=middle;whiteSpace=wrap;rounded=0;fontColor=#001847;fontFamily=Comic Sans MS;fontStyle=1" vertex="1" parent="Y_pHUTL9zJ1j55iuGQUV-3">
          <mxGeometry x="130" y="170" width="80" height="40" as="geometry" />
        </mxCell>
        <mxCell id="H--HfnbZHBEuk7Bjk80q-51" value="" style="ellipse;whiteSpace=wrap;html=1;aspect=fixed;strokeColor=#001847;fillColor=#FFF2F4;strokeWidth=4;" vertex="1" parent="Y_pHUTL9zJ1j55iuGQUV-3">
          <mxGeometry x="556.25" y="116.87" width="47.5" height="47.5" as="geometry" />
        </mxCell>
        <mxCell id="H--HfnbZHBEuk7Bjk80q-62" style="edgeStyle=orthogonalEdgeStyle;rounded=0;orthogonalLoop=1;jettySize=auto;html=1;exitX=1;exitY=0.5;exitDx=0;exitDy=0;entryX=0;entryY=0.5;entryDx=0;entryDy=0;strokeWidth=2;strokeColor=#001847;" edge="1" parent="Y_pHUTL9zJ1j55iuGQUV-3" source="H--HfnbZHBEuk7Bjk80q-54" target="H--HfnbZHBEuk7Bjk80q-56">
          <mxGeometry relative="1" as="geometry" />
        </mxCell>
        <mxCell id="H--HfnbZHBEuk7Bjk80q-54" value="" style="ellipse;whiteSpace=wrap;html=1;aspect=fixed;strokeColor=#001847;fillColor=#FFF2F4;strokeWidth=2;perimeterSpacing=0;" vertex="1" parent="Y_pHUTL9zJ1j55iuGQUV-3">
          <mxGeometry x="1020" y="82.5" width="47.5" height="47.5" as="geometry" />
        </mxCell>
        <mxCell id="H--HfnbZHBEuk7Bjk80q-55" value="" style="shape=message;html=1;html=1;outlineConnect=0;labelPosition=center;verticalLabelPosition=bottom;align=center;verticalAlign=top;strokeColor=#001847;strokeWidth=2;fillColor=#FFF2F4;" vertex="1" parent="Y_pHUTL9zJ1j55iuGQUV-3">
          <mxGeometry x="1028.75" y="95.62" width="30" height="21.25" as="geometry" />
        </mxCell>
        <mxCell id="H--HfnbZHBEuk7Bjk80q-60" value="Запрос на оплату получен" style="text;html=1;strokeColor=none;fillColor=none;align=center;verticalAlign=middle;whiteSpace=wrap;rounded=0;fontColor=#001847;fontFamily=Comic Sans MS;fontStyle=1" vertex="1" parent="Y_pHUTL9zJ1j55iuGQUV-3">
          <mxGeometry x="1005.63" y="135" width="76.25" height="30" as="geometry" />
        </mxCell>
        <mxCell id="H--HfnbZHBEuk7Bjk80q-123" style="edgeStyle=orthogonalEdgeStyle;rounded=0;orthogonalLoop=1;jettySize=auto;html=1;exitX=1;exitY=0.5;exitDx=0;exitDy=0;entryX=0;entryY=0.5;entryDx=0;entryDy=0;strokeColor=#001847;strokeWidth=2;" edge="1" parent="Y_pHUTL9zJ1j55iuGQUV-3" source="H--HfnbZHBEuk7Bjk80q-56" target="H--HfnbZHBEuk7Bjk80q-120">
          <mxGeometry relative="1" as="geometry" />
        </mxCell>
        <mxCell id="H--HfnbZHBEuk7Bjk80q-56" value="Оплатить" style="rounded=1;whiteSpace=wrap;html=1;fillColor=#FFF2F4;strokeColor=#001847;fontColor=#001847;fontStyle=1;fontFamily=Comic Sans MS;strokeWidth=2;" vertex="1" parent="Y_pHUTL9zJ1j55iuGQUV-3">
          <mxGeometry x="1120" y="76.25" width="80" height="60" as="geometry" />
        </mxCell>
        <mxCell id="H--HfnbZHBEuk7Bjk80q-76" style="edgeStyle=orthogonalEdgeStyle;rounded=0;orthogonalLoop=1;jettySize=auto;html=1;exitX=1;exitY=0.5;exitDx=0;exitDy=0;strokeColor=#001847;strokeWidth=2;" edge="1" parent="Y_pHUTL9zJ1j55iuGQUV-3" source="H--HfnbZHBEuk7Bjk80q-72">
          <mxGeometry relative="1" as="geometry">
            <mxPoint x="990" y="105" as="targetPoint" />
          </mxGeometry>
        </mxCell>
        <mxCell id="H--HfnbZHBEuk7Bjk80q-72" value="" style="ellipse;whiteSpace=wrap;html=1;aspect=fixed;strokeColor=#001847;fillColor=#FFF2F4;strokeWidth=2;" vertex="1" parent="Y_pHUTL9zJ1j55iuGQUV-3">
          <mxGeometry x="390" y="81.25" width="47.5" height="47.5" as="geometry" />
        </mxCell>
        <mxCell id="H--HfnbZHBEuk7Bjk80q-73" value="" style="shape=image;verticalLabelPosition=bottom;verticalAlign=top;imageAspect=0;aspect=fixed;image=data:image/png,iVBORw0KGgoAAAANSUhEUgAAA9QAAAPWCAQAAACrFRgEAAAABGdBTUEAALGPC/xhBQAAACBjSFJNAAB6JgAAgIQAAPoAAACA6AAAdTAAAOpgAAA6mAAAF3CculE8AAAAAmJLR0QA/4ePzL8AAAAJcEhZcwAAAGAAAABgAPBrQs8AAAAHdElNRQflAxoGDg0W5sA7AACAAElEQVR42u3dd7zVVLrG8d86dJCiAoogKgooYkWsYEGwgl3s2Ltjm7HMjAUdx0GvvZexYscudmwoYgNsYEMUUFBA6R3Oun+IDOWcXZP9rmQ/Xz/3jp6y8iYnybNXsrLiPCKSVIv8zGX+ax5zl/mv+tQBoCE1nXWdIlI4p6AWCckC/zu/8zvTmc00ZjGb2UxjNrOZyXQqmckiFjETmMXCvFpugqM+dWhELRpTh/o0oDZNaEATGi/zf6sq1kWCoqAWMTHNT2QSE5jEJKbw+9J/ZlkXBjSmCc1pRlOa0pzmNKUpzViDhopwEQMKapHYzfVjGc9PjGMif8bzPOuiCtCAVrSgFWvRkpa0oBVrUlvhLRIzBbVI5Kb77/meHxnPWMYzninWBcWoBeux7tJ/1lFwi0ROQS0SgV/8d3zP94zhe75PdTBnVsFarEsb2tKOtrSjgWJbpGgKapGCLPJjGMU3fM1XfMM063IC1XJJYLejPW00+lykIApqkZwt9t/zOV/wJV8xOs8x11KbjehARzamI+tRodAWyZGCWiSL3/xnfMEXfMYo5lgXkxL16MDGbMxmbEFzRbZIRgpqkSpN9MMYxnCG8bN1KSnXki2W/LOuIlukCgpqkWX87P8I52FMtC6lDK3KFmxBJ7ahjSJbZCkFtQgL/ee8xzCGMcq6FAGgMZ3ZgU5sR1NFtpQ9BbWUsR/8UD7kA0ZoYFigHO3Zmq3Zjs2oociWMqWgljI0xg/iPQYz1roQyVkDNqcL3dmBegpsKTMKaikbi/xnvMcQ3uQ361KkYDXZjB3owi66KC5lQ0EtqbfYD+MN3mCoHq5KEcfGdGNXdqSJAltSTkEtKTbGD2IQg5hqXYjEpgabswNd2J1GCmxJKQW1pNAE/ypv8KYesSojtdmGbnRnW01UKqmjoJYUWeQ/4wUGMhzt1+WqAbvQiz1orbiW1FBQSyr84F9nEK8x3boQCUQbutOT3aijwJbEU1BLoi3yg3mBF/nOuhAJUgO6sRc9aaW4lgRTUEtCzfZvMoCBGigmOehAL3qyA06BLQmkoJbE+cG/zgu8xgLrQiRhmrM7B+tyuCSOgloS5HP/NE/xpXUZkmirsDv70YvGimtJCAW1JMJIP4DH+dq6DEmNGmzLwRymt2FLAiioJWiV/n0G8hSjrQuRVPojrg9hTcW1BExBLYHy/gMeY4AmLZHY1WAnDuIgmimuJUgKagnQSD+Ah9WLlpKqwbb04VBNRSrBUVBLUH70j/MAX1mXIWWrLt05mIOor7iWYCioJRC/+kfpz3DrMkSAJuzP4exCDcW1BEBBLebm+ud4iFdZZF2IyHJacATHsLHCWowpqMXUMP8gD/ObdRki1epAH47TQDMxpKAWI2P8/TzIWOsyRHJQh54czZ56haaYUFBLyc3zz3APb+pVlJIwa3AEx+lSuJScglpKapR/kHuYYl2GSME6cRJH0EBxLSWjoJYSme4f5R4+sS5DJAJNOJIT2VRhLSWhoJYSGObv4mFmW5chEqlOnMThrKK4lpgpqCVWc/1j3M7H1mWIxKQRR3AaHRXWEiMFtcTmO38P/9WjV1IGOnEmh1FLcS2xUFBLDBb5Z7mdtzSuW8pIK07hRL02U2KgoJaITff3c72ej5ayVJt9OYnuCmuJlIJaIjTS38RDzLEuQ8RUZ87kEF0Il8goqCUSlf5NbuRFXewWAWBNTuZMVlNYSwQU1FK0Wf5ebtbbo0VWsArHchbrK6ylSApqKcokfxu3aGS3SDUq2IuzdNdaiqKgloKN8tfyMPOtyxAJ3jb8lQOpUFxLQRTUUpD3/FW6Iy2ShzacycnUVVhL3hTUkqdK/xRXMcy6DJEEask5nKxJRyVPCmrJw0L/KP34yroMkQRrxDH8nTUV1pIzBbXkaL5/nH9pbLdIBBpwPH9jbYW15ERBLTmY5e/haiZYlyGSIrU4lEvYQGEtWSmoJYvf/Q3cwlTrMkRSqBZH8w/WU1hLRgpqyWCGv51+TLMuQyTFanEoF9NWYS3VUlBLNWb62xTSIiVRi0O5iHYKa6mSglqq8Lu/npuYYV2GSBmpyZFcTBuFtaxEQS0rmOqv50aFtIiB2hzPRaylsJblKKhlGbP9LbrcLWKqNsdwOWsorGUpBbUssdDfR18mWpchIqzC6fydxgprARTUAvwxLejf+d66DBFZanXO40zqKaxFQS3eP8NFmhZUJECt6Msx1FBYlzkFdZl7y1/Ax9ZFiEi1OnIVeymqy1qFdQFi52vf23dTTIsE7Uv2Zlc/XH2qMqYedZma4C/jXhZZlyEiOXEcRD89ZV2mFNRlaLa/hX8z07oMEclLbY7hCpoprMuOgrrMLPL/pS+/WpchIgVZjb6cSk2FdVlRUJeVN/w5fGFdhIgUpT3XsreiuoxoMFnZ+M739t0V0yKJ9w096eFHqZdVNtSjLguz/DX0Y751GSISmVqcyuWavawsKKhTr9I/xPm6Ky2SQqtzMWdoQpTUU1Cn3Dv+bD61LkJEYrMlt7KtojrVdI86xSb6Pn4XxbRIqg1ne/r4SepzpZiCOqUW+Rv9hvRHR69I2nn6syE3+sU63FNKl75TabA/Q+O7RcqMLoKnlXrUqfOL7+N3VkyLlJ3h7EAfP0W9r9RRUKfKIn+9b68L3iJlqpL+dOB+73UKSBVd+k6RT/1JeheWiNCVu9hQF8FTQz3qlJjjL/RbKaZFBHiXLejr56sflhLqUafCQH8GY62LEJGgdOQutlO/OgXUo068ib6P76WYFpEVfMkOnOxnqDeWeOpRJ1qlv51/MMO6DIlVLRrTmCY0oTE1aEwF9alDbRrgaAI0pGaG317AbCqZDkynktksYD5zWMB0ZjCNaUxnsfUKSqxacgv7qV+daArqBPvGn8B71kVIRJrRjGa0oDnNaMZqNF76T/2YT7Kz/AymM50ZTGcqk5nMZCYwmclMst4oEpEDuZU1FNaJpaBOqEX+Oi5lnnUZUpCmtKY167A2zWlGC5rRjFoBnkYX+clMZiKTmMxP/MQ4xvGLHv5LpKbcxGEB7mOSCwV1In3hj+MT6yIkRzVZm7VZh3VoTWtasy71EnzCnO/HM55x/Mh4xjGescy1LklytB+3s2aC973ypaBOnIX+Oi7Vu6UDtypt6MDGtKENG8V+8drWVD+GkYxiDGMYpdgOWhOu4qRU743ppKBOmE/8cZoeNEi12YgOtKcd7WhLozI9GS70P/It3/Ad3/I1E6zLkSr04g7WKtP9M6kU1AmywF/OVSyyLkOWsRabLvlnwyDvMtv63X/JSD5nFF8w1boYWaoJN3C09tYEUVAnxhe+j94tHYTabMJmbMKmbMbqOt3l6Gf/OSMYwQjGaDhaAPblLppr700IBXUiLPbXconuS5uqoD2d2ZrObE5tneCKMN1/yghG8AlfU2ldTBlrzt3soz05ERTUCfCDP5Z3rIsoWy3oRCc6sb16z5Gb5T9lGMN4jx+sSylTB3MXTbRfB09BHTjv7+A8ZluXUXZqsiVd6crWtNBprATG+48YwhBGsNC6lDKzHg/QVft44BTUQZvoj+VV6yLKSh22Zke6sgOr6ORlYI7/kPcYwlBNjFsyFfyNy6mj/T1gCuqAPedPYIp1EWViFbajKzuxNXUTesL63g9mJD8wg0oa0YqObMemCV0XWOw/523eYjDTrUspC5vyMB0Tu7ekn4I6UHP8udxpXUQZqMk27EYPOlMzsaepn/y99Gd0Fd9Zi0M5gY0Su2aw2I/gbd7iXWZal5JydbmG03AJ3lfSTEEdpBH+cL62LiLl1mc3etCNxok+Nf3o/8WDGZ+td+xDXzZP9FrCIv8xr/EaH+pdXzHah3tomvA9JZ0U1MHx/iYu0KNYsWnAdnSnO50Sf0Ja5G/lnzkNNHScyP+lYra02X4oL/CCRonHZA3uZ48U7Cdpo6AOzM/+aN6wLiKlNmYf9mabBF/kXtZ4fxAf5fHzbXgq8f3q//nOv8iLDGaBdSGpU8EFXKZZ9gKjoA7KIH8Uv1gXkTo12JZe7MuGKTr5fOR7MjnP36nHQxyQom0Ac/wbDGSg5hSPWGceYYNU7SlJp6AOxkL/T67R5IqRWoU92Ie9UjdVyXt+74IeX6rJAxyesm0Blf5jnudZRlkXkiKNuD2Fe0pyKagDMc4fylDrIlJkLfZhH7ql8unQ9/0eBY+BrsH9HJnCbQLwjX+Gp/lEH3YjchI3JvZhxbRRUAfheX8sv1sXkRJrchC92YGKlJ5ihvo9ipoMpAYPprqvNN4/yzMM1ujwCGzOE7RN8b6SHApqc4v8FfxLLyeIwGrszcHsmZLBYlX70W9Z9Asja/EO26V4GwH85l9kAK/opbBFashdHJryfSUJFNTGfvS9+di6iMRbnf3pTTdqpPyUstDvFMkNklaMKIvnZX/2A3iCD3QxvCincV0qbyEliYLa1Ev+KF3yLkojDqA33cvkcZK+/rKIWjqMR8piiwGM9Y/Tny+ty0iwTjxBm7LZX0KkoDZT6S/jCl3yLlgF3enDAdQrmxPIb36dyN6j5vg0wTOBF+JT359HmWhdRkI15t6UPdqXLApqI7/5I3nFuojEas+hHMO6ZXbiuMGfE2Frp3JbmW0/qPTv059HNW94ARx/4ZoyuXIVHgW1iY/9QYyzLiKRVuVQ+rBtWZ4uevhBEbbWmrFluRVhlh/APQyxLiOBduWxshjbEB4FtYEH/SnMtS4icSroxlEcRP0yPVEs8KtFduH7D9+X9X3Hb/293M+v1mUkTCueZJsy3musVFgXUG7m+WP80YrpPLWiL+N43fVx5RrT8FHEMQ1vWq+SqXaunxvPM/SkhnUpCfITO3OPenclp6AuqQl+Zx6wLiJRKujOE/zApa5l2Ub0H6IftawpN2u5/dwLbjz9aG1dSmLM4wT6+LkK65JSUJfQ+34rPrQuIkFW5Uy+43V3sEvzFCa5in5Mw1jrVQpEC3eBG8Pr9ES7WW7604UfFdUlpKAumf/6bno4JGc78Si/cKMr57uoy4s+VhXU/1PDdXcvuK85h1WtS0mE4WzDe4rqktFgspJY6M/hVusiEmIVjuVUNlJAr6CLj3qccjMmaSuvZI7vz026LZCD2tzG8dqDSkJBXQK/+d5lPnAnVy04iTNZTQd/Fdr60ZG3uTDV86IX4z1/E0/rxR5ZncQtera6BBTUsfvc76OLjDnYhnM4UMFRrTV99I8STaOxtne1vvM3c78mR8miB4+zqvaimCmoY/aqP4Tp1kUEroK9OIvuOtgzauDnRN7meFppq2c009/LtYy3LiNo6/M8HbQfxUqDyWJ1l++pmM6oIWfyPS84xXRmlT6OZ+9nWa9W8Bq6s9xoHqCjdSEB+55teU49vlgpqGOzyJ/iT9b7cDNoyXX8zI2u3ObsLsSsWF7VqMu6uajt+rjPGcjO1oUEayYHco2iOkYK6phM83typ3URAVufuxjDOa6hQjon8fR9FdS5cm5v95b7iP30rHWVFnMeJ/mFCuuYKKhjMcZvT5QvUEiXjjzA15zoauucl7P5sbS6wHq1Eqaze8Z9wVHUtC4kSHezJ9MU1bFQUMfgPb81X1kXEahteI7P6aO5xvIUz3vL9Tb0/G3sHnSjOI5a1oUE6A3NWBYTBXXknvQ9+M26iCB1YxAfuH2cU0jnTUEdkrbuHjea06ljXUhwRrItHyqqI6egjtgN/hDmWRcRoL0ZyhtuV0V0gRTUoWntbnHfcQq1rQsJzK/swlOK6ogpqCPkfV9/jk5+K9mBtxnotlVIF0FBHaK13e3uO85Uz3o5czmYvorqSCmoIzPPH8Jl1kUEZwfe4j23k0K6SArqULV2N7pRHKMBZsvwXMYpfrHCOjIK6ohM9bsxwLqIwGzFy7zndlZIRyCeSNVc1tFo4+5zozhUj24t404OYI6iOiIK6kiM9TvwrnURQdmEZ/iIPXTmioh61KFr6x51n7C7dRkBeZ7u/KaojoSCOgJf+a56HGsZ63EnI9hPo7sjpKBOgi3dK24IXa3LCMZQtmG0ojoCCuqifeS7atL+pVpwN99xkquhkI6Ugjoptnfv8DQbWZcRiO/ZkU8V1UVTUBfpLT01vVR9LuBrTlBIx0BBnRzO7e++5AHWtC4kCBPpyiuK6iIpqIvynN+LGdZFBKGCoxhNP9dIIR2LeIZ9KajjUuH6uNFcSj3rQgIwi315WFFdFAV1Ee7yB2pyEwD25DMedC0U0rFRjzp5Gri+7muO0FhwFnAUNyqqi6CgLth//Cl6vAXYnNd5yXXU2ShWCupkau0ech9qeBmeszUJShEU1AXx/nz/j1jeEJwsLbmTT+iukI6dnqNOrs5usHuedazLMHcZp/tKnTQLoul0CrDYn8D91kWYq8t5XEj9vEO60k/kR35kNnWoj6M17WmsqM9CPepk6+W6+f9wbZnfKruNmdzr9ea8/Cmo87bQH86T1kWY687NbJjXAbfIf8BrvM7wKt6CvKbfiF3Zh010CFdDQZ10DdwVnOz/SX/rQkz1ZypP+Ho6zvPkdCUiP/P9wbxgXYSxDbiBvfM61H7xN3MHv2f9ufU4gL6sosN4JW/6XWNo9RZO17Yusdf9WWU+PdIuPEdD7Xd50T3qvMzx+5R5TNfjUr7IK6Z/9if4dbkyh5iGH7iWbZmsT48riee8psO/9Hq4z7iBVazLMPQWu+gYz5OO1DzM8nvxmnURpg7ia/q6unmkxm1+Q+5hfh7LGMmBLNBhvIJ4DlQd/hZqubPcF/SyLsPQMHbhFx3jedCRmrPpfjfesS7CUDteZoBrnUdIz/OH+tOZlfeS3uVs65UNTjwHag3r1Spb67rn3fOsa12GmZHsxE+K6pwpqHP0m9+VodZFmKlPP77M811Ys/3uPF7g8u5goA7i5ahHnT693JdcQC3rMox8y06M1VGeIx2pOZnkuzHMuggzOzGcC1ytPMd492ZwwUv0nKC7WMtRUKdRA9fPDWMb6zKMjGFHvVsrRzpSc/CL78bn1kUYWZU7eYv2eY9l6sdLRS33V063XvWgxHORWoe/vU3c+9xJQ+syTIyjKyMV1TnQkZrVz74rI62LMHIU33JSAe+VHuH/VfSyB/CcDuGl1KNOrwp3kvucPazLMPELu/KljvOsdKRm8YvvwWjrIky04VUedE0LeC5ovj+6iklN8nca03UIL6GgTrd13cvuCZpZl2HgV3bkYx3nWWhmsowm+F341roIAzX5K5dS6PxB1/FFJFVM4GJust4UgVBQh837sfzMb8wH6tOUlrTK++g52O3sz+AJ61UpuansziC/paZAyUAzk2UwwXfjG+siDHTmbjYr+LCZ7tvkNLlJLmownE11AAOf+81iaPVxemvrFmm4f5a3GM6cFb7ekI7swC50I595B+BJfzqTrFeq5FbjDTbXvlgtfaSu1q++RxnGdC0uYEgRMQ3XRxbTsFhPVC+h56jDs8g/4Df2nfgX760U0zCToVzD3jSnj38/j/7QQe5rTrJetZL7nW4MU6+xWgrqakzyuzLKuoiS24QP6Zfng1jLm+FviLSit3hahy+69B2eT/wWHJPDOWIm/dmBbf0bOe/Hq7o73Qu0sF7BEpvKnnyhY70aOlKr9IvfuexGetfkYoaxRZGXn55hesR1/Y15OnwV1IF5yG/Pl3n8/Id050Cf+7SZPd1nHGi9kiU2me6M0rFeJR2pVZjke5Td+206MJTLi+pL/+HhyCv7getMtkhYFNQhedb3YWHev/U0m/BWzkHUzD3pnmBV61UtqUnsoueqq6QjdSVTfLe8PisnXw3OYxhbRTCU4xf/Zgz1/YcJZX/wKqjD8YM/lsJ2yCnszgN5/OrBbjg7Wa9uSU2iB9+U/dG+Mh2pK5judy+zi95tGczVeb0Rq3pvsTiGCmdxYYm3SXgU1KFY6I9gWuG/zXE8lEcQreve5GrqWK90CU2kmyYWXYmO1OXM9nsz3LqIEnKcwadsH9ljEXFNtPoQH5T5oRvPhAca9Z2/84p8OU8lx/JmHntzhTvPfcQm1qtdQhPozvgyP95XpKBexjy/H0Osiyih5gzkZlc/wqcXo3swa3mec/BlfejWj6XVBtarlTgv+uKn4FnEoXkG0abuI86kfB4zHkt3fi3r431FCuqlFvujGGRdRAl1ZwR7RXzst4qt2g94LubtEbZVYmm1PF8FUbgZ/pQC704vb3LeT0rXdTe6V1nTegOUzLf04HdF9VIK6iUq/VE8aV1EydTiUl5lrcg/om8dY83/ZHEZH7h1XRzvLY4n/tPrr/wUUUuvFPDKmR7uszJ6dccX7MnMMj7il6egBsD7U3nUuoiSac8H9HUVMVxJ2znGPtooHoxxm4QvjlBVjzofb/p7ImztigJ+p7l7iRuobb0hSuQj9mS2ohpQUC9xLndZl1AyJzCMuCbAr+Pi/MTft6ynPokjqNWjzt0sf0Ikl73/9AkfFtCcc2e5waxnvTFKZAi9WVDGx/z/KKiBSyKe9jJcqzKAu12DGEel9Imx+nHcFmProYt+6ou6Bb8frRz9nR8ibvH5An9vGzec/a03R4m8xJFlfcvrTwpqbvL/si6hRLryKQfFfGrek7VjbP0KppbtQRv9do3zL5U2Q3z0HxJfK/g3m7inuI44Ri2EZwCnlPkTH6Cg5jF/jnUJJeE4kzdoHXsPqoY7OsbWp5bxdKLrJKDFtFrkT6cy8la/KiKAnDvHvV8ml8D/y8XWJZgr86B+0x8TwwEYnkYM4MYIZvLOxfGx7lTXk/uLDdIl+lhtbb1KiXEjn8XQ6mwmFvX7W7kRZfLijn9zQ5ke9X8q66D+xO/HfOsiSmBLRnBgye5Grut2jbH12QWNlk2DNpG3WB79seKN931janl2kb/f2A2gX0yz1oXlrzxe1lFdxkH9ve/JTOsiSuAo3qVNSQcNnRhr63cztiwP2R0S0GI6nc2smFpeUHQLzl3g3iiDiVAqOYpXy/K4/0PZBvUE34NfrYuIXV3u5sFIJwnNxb40i7H1BfyntKsTiBauXaTt1WVb61VKhFf907G1Hc3jcTu6T8rgb7mQAxhatlFdpkE9w+8d+cMW4WnLh5xg8ABObXdyrO3fW6Z96m6Rtra9Hs7KwVx/WoytN4+onZbubc4sxeYwNYd9yvYVmGUZ1PN8Lz61LiJ2B/IJmxqdiv9C3RhbX8j/2ayWsSMjbS3OJ97T49+Mia3t1SP8qFTH3ej+G+tRF4Ip7MnEsozqMgzqSn8kg62LiFkNrmEAjcx6TM3dEbG2/19+KsPDdQfXJbK2WnOI9eokwGh/TYytbxZxe8e7d1P/bPwP9GJWGR77ZRjU5/GUdQkxa8Qz/NU50wub58W6a80v0z71TdSJpB3HjdTVhe+szon1qZAtI29xKzecnWOsOATDOIRFZRfVZRfUd/u0T5nRjg/pZX4Sbh/rrN9wFz+X3cEKW7ho9t6z2M98DwnfID8w1vbjGHXf1L3OGbFWbe8l4hw3EKYyC+qXYx0aEoI9+YgNgzgJ/zXW1udxrfUKmjjNHVd0G9242no1EmBRzHMW1mSXeNp1N7s7Uz696N1cU2Yf08sqqEf43iyyLiJGjgsYSOMgYhq6uc6xtn87E8rsYP3D3RxV1O9vz3OUZo66ZLuFL2Ntf9sYj9ST3BuRjSgP0/k8XFZHfxkF9XjfM7aJC0JQn8foF8tbpgt1Vqytz+N66xU0UeHu47CCf3sHXmGVgPaRUE3yl8W8hHgn/+zqhtIx5jWw5DmBIWUU1a5c1nWm7xrLfL2haMUzbBXYCXihX5/xMbbfgB9pGtg6l8ZifxL3FvB7O/ECDctyi+XrRP/fWNuvYBwtY/5LzPKHEe9ddlurM4T2ZbI3l0mPepE/ONUxvSPDg4tpqOX+Fmv7s8v2/dQ13H/pm/fBexyvKKZzMsIX8jEoH11jj2lYxT2b6oFlv9GT38qkp1kmQX0ar1qXEKPjGESzIE/AJ7FWrO3fytwyOVBX5Nyl7kVa5fzzjbmHe5weycrN2bG/U6/4IYG5qOFudjdRoyTLsjCaA1lYFmeAsgjq6/zd1iXExnEp95ToBZb5qxtzn3oSD1mvoqE93EjOyuHJ6goOZxTHBbqPhOcZH/eESE04qGRr8xf3Eo1LtrRSe4d4pysORRnco37N753asd51+C9HBn0CnufXZ0KM7bdnFCENoCu98f4a+jO1mu/W4yDOp2NZb6H8LPKb8lXMyziH60r6F/nS92RsKRdYUtdxTur379QH9Td+W6ZZFxGTVXmGnYLfRa/z8T5R/XwA07tYm+df5BUG8z2Ll35tHbZnD/ahSdlvnfzc4v8S8xJq8DUblPiv8ovvybDSLrJkKng29eeAlAf1DL8do6yLiEkbXgxkapPM5vk2TIyx/Z14OwFboTTm+bFMZzGNWVvDxgoy07eN/fW3h/Owwd9mtj+EF0u/2JJoyBA2SfX+nuqgXuz34SXrImKyDc/TPCG75jX+vFjb/4BtErIlJHQX+qtiXoLjM6NQWexP506LBZfAunyYmPNhIVI9mOzc1Mb0AbyVoN3ytJhnSbrBegUlJX7yN8e+jF5mfb8a7g7Xj8ScNvLyIwcwP8W9zhQH9X/9TdYlxORvDIjwTbbxqx/z2O8n+THFh6iUzoXMiX0ZF5iu4QXunpTOAz6E061LiFFqL32/67uzwLqIGFRwE6cnKKT/MNu3YVKM7V9Av8RtEwnNCN+JuM+H3XjDfE991R+U0smUb+NU860bj5T2qMf6A1MZ07V5JIExDQ1cvHep70v1ZS8pjYtij2n4p/VKAru7N2hqXUQszk7t/N+p7FHP8135xLqIGDTgSfZIYEwDzPPtGRdj+49yaEK3jIRhiO8S+zK2Z0gge+nXfvdYj0cra/AJrQLZxlFKZY/6jFTG9Kq8ltiYhrru0ljbT+toVimVi0uwjLhHlOduQ/cBm1oXEYNfOSiVV9dS2KO+y6dxUrkWvJrwJwUX+01jfKbd8W3JJ5GQ9Hjd7xb7MvbjmaD20Km+F0Osi4hBHx4IajtHIXU96hH+bOsSYrAhHyQ8pqGG+3eMrfuynvVbinVJ7EuoQZz7fyFWda+xl3URMXiQ21PX/0xZUP/uD2SudRGR24rBtE54TAPs57aPsfWH8Kk7PKU0nvUfxL6ME+gQ3DFc3z3HkdZFxOAsBqfsXJCqS9+L/R4Msi4ict15hlWCO8QLM9jvFGPrQ9k2JdtJSsn7zfk85mU04DtaBLl3LvbHpPBq1JoMD3R7FyZVPeqLUhjTBzMwNTENO7o4L7W9YL16kkgDY49p+GuwsVHDPcAJ1kVE7hcOY1GKeqEp6lE/7/crwXOQpXUYD1Iz0AO8MJ/7LZd5w1O0NmdEqraVlEYXH/eQqmaMplHA+6b356ZwIt40TYOUmh71d/6o1MX08TyUspiGTd2JsbX9GZPStgtI7IbEHtNwadAxDc5dH/M0vxau5oXUnA9S0qOe77djhHURETuJ26kI+vAuzO++PVNianswXVO4xSROvfzAmJfQgU+plYD98ip/oXUJEWvCMNokYMtnl5Ie9Tmpi+lTuCOVMQ2ructjazuNcy1JnL7y8b9h7+ZExDRc4MKZkCUa0ziAuanoi6YiqJ/0t1uXELG/cbtziTi4C3ESW8TUcjPrVZOEuYHKmJdwCN0ScySf725L2WswP+Nc6xIikYJL39/7Tky3LiJSaRoEUbX3fZcYRhTUZDJNUr7lJEpz/VpMi3UJ9RnFOonaJ+/2p8T+4aW07ufoRP0FqpL4HvV8f0jKYvqy1Mc0bO+OiKHVXRXTkpdXY45puChhMQ0nunuoYV1EpE5nVOL7o4kP6vMYZl1CpC7nkoQd2IW5isaRt/kX65WShBkac/ttE3nh9Rj3CLWsi4jQbHon/k51woP6GX+LdQmRupaLyyKmYS13Q8Qtbp3KeYslTj/F3P4N1Enk8dzbPZ6qqB6ZyA9My0p0UI/zJ6Tq2ekrOTeRh3VhjnG9ImzNcQ3pHX4n8Zgca+v7sldi98j93WOpiuo7eCzRUZHgoF7oD+Z36yIidAV/T+xhXZh7aB5ZW2fqCWrJW5znj/pcb716RTnA9U/VverTGJvgqE5wUPflI+sSInQp/yy7oGnm7oiopQ78x3plJIEWxth2X9ZL+BF9iHskRVE9ld4sTGxUJzaoh/g0PZz/V/om/KAuzP7ukAhaqcMj1CvL7SfFie8xpM0423rlItDb3ZPciFjJR/S1LqFgCf0rTPdHxvZqh9I7m2vKNmZuY72i27iVzcp2+0kxasfUbk3uTchsZNkc7e5OakhUoR+vJ7RPndC/wen8aF1CZM7k+lQc0oVZzT1D/aJauJTjy3j7STFWi6ndv7JlavbJ49xNqZmtrJKjE/rinkQG9ZP+YesSInN8Cl8vl5/N3J1FnAiO4VLrFZDEWj2WVtfnEusVi9TpLtnD4pY1kaPxCYzqBAb1OB/fixJL7Xju1kNFHOkuK/A39+IubT8p2AYxtOm4nfop2yfPcldalxCZV7jLuoQCJC6oK/0xsU/7Vyr7cadiBoCL3akF/FZvnknJnUCx0SGGNk+gRwr3yb+7861LiMy5fJO4PnXigvoq3rIuISK78hg1UnhIF+bWvCcAPYaHqa3tJ0XoHHmLG6X2VlY/TrIuISJzOCJxD2olLKiH+b7WJURkG55N6PSC8XDuRv6R871qx0Xc52pq+0lR2rp1I22vDo+k7rL3n5y7jYOti4jIMK6wLiFPiQrq+f4YFlgXEYmNeZFVUnpAF8q5f7sHaZDDT67GM/xLW08iEO388NeyeYr3yxruYfa0LiIiVzI0UX3qRAX1JXxpXUIk1uYlVk/xAV24I91wts3yM9szgn219SQSx0bY1t6cZr06MavlnqSrdRGRWMSRzExQVCcoqD/011qXEIlmvE5rBU012rkh9Gfdar67Cv/hHW09icxWLqr71GvzQBkMDa3vXmAL6yIiMSZRb9RySflQMddvydfWRUSgMW+n+vJYNBb7gTzIIGYs87WGnMjfaKFtJ5F6ze8eQSv1eZvOZbJv/uK7Mtq6iEg8T6+E/M0SE9R/S0V/uh6vsGNCdg17C/0XfMl4ptKQLeie2mE6UZnvR/EDs6ikEa3poO2Vo338C0W2UMHTZXU75ge/Hb9aFxGBFnzJaon4uyUkqIf4HWOcQL9UavBUWR3OUirf+0d4mY+Wm/++gs3ZncPYRHtcFr/4TYt6M7XjLk4os638sd+F2dZFROBI+ifiL5eIoJ7jt+Bb6yIicBN/ScROIUnytv83b1D9cbwNF7JvGdw9Lca7fjfmFfi7jhvL8rh+2e/DIusiIvAUByTgr5eIoD7b32hdQgTO56oE7BCSJN/50xiUw89txe1spb0vg+f9ocwt4Pdqcw9HlumWvcefYF1CBJoxkmbB/wUTMOp7iL/ZuoQI9OY/1iVIqnh/vd80p5iGT9iWC/yiJHwqN7KPe5M18/6tFrxatjENx7s0vHxkciLeHB58j3qu3zQFIwx35DXNQyYRmuOPYUCev7MTAxLQd7Dzmz+LfN7LdyC3l/n29P547rMuIgJPs3/gf8fgg/pCf5V1CUXbiPcSMrZQkmG234c3C/i99rxBS+2JGXzk/8VLOQxc3Y4r6KYtyUK/D69YF1G0ZnxJ86D/moEH9Wd+q8QPWFiToawb9E4gyTLN78XQAn93A97QhDFZjPeP8SIfVXPPug09OZxttA2XmOl3Zrh1EUU7lEeD/osGHdSVvkvBJ6RQ1OdNHdQSoal+Dz4q4vdbM4i22iOzWuBH8j3jmMI85tKYuqxFa7ZgDW27FUz02zDeuoiiPRv0o7NBB/UN/hzrEopUg+fZK+A/vyTNr74HXxTZxhq8rqerJULD/Y6Jf6q6FSNpFOxREfCo73H+YusSinaNYloiNN53LTqm4Vd25uOQP6FLwmzp+occJTn5iX9Yl5BBwFv3DGZZl1CkYzhbMS2R+dHvwneRtPQ7uyXsNX8Stv1d0t7wvLLbeS/YYyLYS9+P+sOtSyhSFwbpkSyJzDe+Oz9F2F4Dnte4ZYnQSf5u6xKK1J7PAj1nBxrUv/sOCZ/0fV0+DHzAvyTJWL81kyJuUwMdJUoL/W68bV1EkfpyaZBHRKCXvv+W8JhuyAuKaYnQ6MhjGuak4LEaCUct9wRtrIso0n/4Ksi+a5BB/Z6/37qEolTwCB0V0yJSVpq5F2hsXURR5nMilQFGdYBBvcifToBbKg/96KmYFpGy08E9FGKo5GEId1qXUIUAt+nNfG5dQlH6cJ5iWkTKUk93qXUJRbqQicH1FIML6om+r3UJRdmGu6xLEBExczH7WZdQlBlcYF3CSoIL6r8xw7qEIjTnyUCH94uIlIJz/dnYuoiiPMRbgfWpAwvqd/2j1iUUoSaP00oxLSJlbRX3NE2siyiC5wwWBhXVQQV10oeRXc3OimkRKXvt3INhhUueRnG9dQnLCWpbXhfBPMZ2DuUcxbSICNDLXWJdQlEu48eAeo0BBfVP/l/WJRRhQw0iExFZ6hIOtC6hCHP4q3UJywgoqP+a4JdwNOZ5Gqo/LSKyhHP3sIF1EUV4mpeC6VMHE9SD/RPWJRSsgv60VUyLiCyjsRtAXesiinAm8wKJ6kCCutKHdJkhXxfRSzEtIrKCzd2N1iUU4XuutS5hiUCC+j4+sS6hYLuQ7EETIiJxOcn1sS6hCFcyLog+dRBBPdNfbF1CwZrzMDXUnxYRqdJtdLAuoWBz+Kd1CUAgQX0lE61LKFAFD9FCMS0iUo0G7mkaWhdRsId5L4A+dQBB/YO/wbqEgv2THoppEZEM2rvkPrzqOSuAF18GENTnMc+6hALtSNLfEyMiEr9D3YnWJRRsOA9al2Af1IP9U9YlFKgZj+jutIhIDm5iU+sSCvZ3Zhr3qY2DOrmPZTnuoaViWkQkB3Xdo9S3LqJAv/Bv4wqMg/qBxD6Wdb6enRYRyVkHF8pTyfm7gdGmfWrToJ7rk3qPd2uSPC+5iEjpneJ6W5dQoPn83XT5pkF9A+NNV75QjXmcWupPi4jk5Q5aW5dQoCcZYtinNgzqqf7/7BZelJtZVzEtIpKnVV1/algXUaC/4c2i2jCo/8VUu4UX4QCOUkyLiBRgR3e+dQkF+oBnzJZtFtQ/+tvMVroYLbnbugQRkcS6nO2sSyjQeSww6lObBfXFzLdadBEqeJDV1J8WESlQTdc/oVOKjuFOoyUbBfVn/hGjFS7OuXRTTIuIFGF9d511CQW6nOkmfWqjoD6PSpsFF2VjPZQlIlK0E9ze1iUUZAr9TJZrEtSD/OsmK1ucujxKXfWnRUSKdjerW5dQkBsZb9CnNghq7y8o/UIjcCWbKKZFRCLQwt1qXUJB5nK5wVINgvophhusaLF25mzrEkREUuMQd4h1CQW5n29L3qcueVBX+iTe563P3Tj1p0VEInMHraxLKMAi+pZ8mSUP6kf5vOQrWbyr2EAxLSISoSbuHpJ4Yn2MT0vcpy5xUC9OZH96B06zLkFEJHV2c8dbl1AAzyUlXmKJg/pBvinxChavPvdTkcSPfSIigbsuka/peIGhJe1TlzSoF/orSrm4iFypy94iIrFo6O6wLqEgF5Z0aTVLubB7GFPSlYvCdpyR40+O9O/wKb+yChuxC9upFy4iktWe7kj/kHUReRvMIN+9ZOf4Egb1PH9l6RYWkfo8QI2sf4wp/k76r3BRvwUH+hPZVGEtIpLRDbzGJOsi8vZ3dvWlehaohJe+72R86RYWkStom+UPMdmf7Vtz0Ur33idyC5vRxT/srd63IiKSBKu7G6xLKMAnvFiyZZUsqOd4mzlSi7EtZ2b8fqW/xW/Ajcyt9ieGcCTrc72fpbAWEanGYa6XdQkFKN0cZSUL6tv5pWQrFY1a3JnxsvcEvwt/YUbWdn7iXNalr5+msBYRqdJtNLIuIW8f81KJzuolCur5PnmvNTs34x3mob4Tg3Nu6zcuY32u8nMU1iIiK2nlrrIuoQCX4EtyTi9RUN/DhNIsKDLrZXyk/W2/W95XCH7nQjbgdr9QYS0isoKT2dG6hLwN49WSLKckQb3Q/19JViZKN1G/2v70UN+LWQW1OpHTaMtdfrHCWkRkGc7dTR3rIvJ2WUmWUpKgfogfS7Iy0TmMntXG9Od+zwJj+g9jOZkteF5RLSKyjHbuXOsS8vYBr5fgXF6CoF7sk3bvoTHXVPu9af4Aphe9hC/Ylx38xwprEZGlLqaNdQl5u7QEyyhBUA9I3PzeV7NWtf3pU/g+oqW8z7Yc739VWIuIAFDP3WpdQt6G8kbsZ/HYg9r7/8S9iIjtwAnVfm+gfzzCJVVyL+24RlOiiIgAsIfb37qEvMX/PHXsQf18wt4/XYs7q52le7E/L/LlzeA8OjJQUS0iAtxAA+sS8jSY92M+g8ce1Em7P30WG1d72fsxvo5lmd/Ri57+W4W1iJS91q4Ud32jFXfOxRzUr/mhMa9AtNbgogzfjfPuyYtswvl+psJaRMrcOWxmXUKeXuDLWM/dMQf1v+NtPnJX0bja/vQ3MX/oWMD/0UGPbYlImavpbiZZLx70xDtXSKxBPdTnPslmCLajT4bvvlSCCn5iX3r58QprESljXd2h1iXk6VHGxnjejjWoSzNnS1QquIFMbxd9q0R1DGQTbveVCmsRKVtXJ2xI2ULifJ9FjEE9zJdmFtSoHM/WGa+2lG70+nROoysjFdUiUqZaufOtS8jTf5kS2zk7xqC+Nr6mY7BqlvvpC/y4ktbzPltyiZ+nsBaRsnQe61qXkJc53Bxb27EF9U/+ydiKjsNlNMvYn55GqTNzAf9iMwYrqkUkoWb5V/2/fC+/mV/br+bb+a7+dP+Qz63nWS9xL768hVkxna9jC+qbWRhX0zHYmFOz/MRck7q+ZRf+5ucrrEUkUWb4h/1+vhl7cAkD+ZyfmMp3vMdtHMWa7Oofz2FGxt5uJ+vVyMvv3BtTyzEF9Sx/d2wbIw43UTPL0wB1jSqr5Fq2ZLiiWkQS4hN/vG/BkTzHvCq/v5g3OZT2PJB10Oz11LBembzcRDyvMI4pqO9japxbI2K96Jb1ob3GpXkjaJVGsR1X6R3WIhK4hf5Bv43vzL3MyfqzP3IMO/JNxvPaFu5461XKy/c8H0u7saRPpb8p1o0RrZo5Tf9W161lWOMCLqQLoxXVIhKouf4W35aj+SiP3xnCVjye8bz2LxpZr1hero+l1ViC+nlGx7oponUiG+U0Cc6mxnV+wJbco6gWkeDM9P38evyFsXn/5iwO4/8ynNeaJ+wxrXf5KIazdCxBHc9niniswiU5/mRX61KZyQns76cqrEUkGHP8//n1+Du/Fvj7nvO5OsNZ7VzWtl7FvMRxPTmGoB6eqIlDL2TNHCeV3cu6VACeZXM+VFSLSAAW+Fv8BpzPb0W2c2GGC+D1EvY2rSeIfhLoGII6zonUotaSc3L+2U1dB+tyARjHTtyuqBYRU4v9vb4df2FiBG15TqT6F/0eQ0frlc3DQm6LvM3Ig3qCH1CSjRGNK6ifx0taTrEud4n5nMYJOTyFKCISj0F+S44v4J50dWZyPL6ac1oN1896dfNyZ+QTn0Qe1LewoFRbo2ibZXxb1sqOY3Xrkpe6hz34XVEtIiX3sd/F94j87Qfv0b/a7+3tdrZe6TxMzbAmhYk4qOf4u0q2MYr3f1Tk9dLTBu5i65KX8Rbbx3AvRESkeuP8yX5b3o6l7ctZVO0Z7TrDmSzyd3O1VwcKE/G631f0oILS6U6PvN9NfhobW5e9jG/YOdZ3oIqI/M8M/zfflruojKn973mq2u9t4Xpbr34evuKdSNuLNKi9v7WkG6M4VxTwO7Xcg9SyLnwZY9iF3xTVIhIz7+/37bk25lubmaaeviKoc2820Q4oizSo3+Grkm6KYuzDNnn3pwG2DGxYww8cG/FFFhGR5Q33XTiWX2JfzltMqvZstr47xnoz5OEZfo7wvBxpUN9R6m1RMMdlBf/uue4k6/KX8wKvWpcgIqk1yR/vO/N+SZZVmfFsdhF1rDdGzhbx3whbizCoJ/tnS70tCtabzQvqT//hFvazXoHlJGkmOBFJjkX+Rt+Oe2O7K72yIRm+19qdaL1B8nAnCyPrU0cY1P9lvsXWKEANipvpppZ7nF7WK7GM1xmli98iErFBfjPOZnpJl/lJxu/+g/qWGyQvE3kusrYiC2rv43pldvSOyvE1HNWr7Z7kMOvVWMrztHUJIpIqv/o+vgejSr7c7zN+t4U71WqDFOD2yFqKLKhfScwbs2oRxdPQtd3DRfbLo/SCdQEikhre3+U3inzSjtxMY2bG64MX0tCkrkK8yZcRXeuMLKjvtNoWeTuBNkX2p//gXF93J7WtVweAT9A7tUQkCt/67pzMVLPlz8z43abuL2aV5e/u4psAIgvqn/yLZpsiP/X4Z4StneTeYi3rVQIqE/RgnIiEaq7/p+/Im7Y1ZPn+32hiWl8+HmJeJF2oiIL6bhZZbo08nEDLSPrTf9refcIO1isFBveSRCRd3vZbcCULjavINq3Jqu4s4wpz93tE44ciCepF/h7TjZG7Wvw18jZbuLc4n0jTvwDjjJcvIkk2wx/nd+Eb6zKAell/4hwaWxeZs2iyMZKgfp6fTTdF7o5lnRgStZa7yg2ihemaZbtcJCJSnff9ltxnXQQANVgt6880dqG8cji7txgdwcXvSII6KQPJavC32Nru5oazp+G6zTFctogk1zx/ru+a5bGo0lmTGjl0ps5NzPPUPpIPQBEE9Rg/yHpb5OgI2sZ4hXpN95J7IodPg/FIym4rIiH53G/L9SWceSyb3N5P2DxBc5TdG8EMZREE9Z0B/ZEzr+rfY1/Gwe5LoznLmpksVUSSy/ur/VZ8Zl3GcrbK8ef+lph5v3/hpaLbKDqoF3ubx+LzdzAblmDEVwv3HHfRqORrt2bJlygiSTbPH80F5mO8V5TrDcRW7mjrUnNW/ICyooP6NSZab4WcOP5RqiW5E93X9Czx+m1W4uWJSJLN8bsbzT2WSQu2z/lnL6Cmdbk5ernoV14WHdQPWm+DHO3DpiV8gqqFe547S/hYfj06lG7lRCTxTmWwdQlVOI2KnM/Tbdzh1uXmaFHROVlkUE/30b0fJF5RzkeWC+dOcl/Tp0TPV29LLesHuUUkMV73IXaxmnBaXj9/YZSvf4xVsdcuilzPJxLy/G43OhsE2RruATeYTUuwpINLv3IikliXWxdQpStZLa/z9EZub+uSc/QVnxR18bvIoH7Aev1zFP18ZLnq4oZxfcyDy2qwv9n6iUjSfOrfsy6hCrtwct6/Y3dmz1dxfeqigvoH/7712uekPXsYLr2mO9t9w1ExXgQ/iDV14VtEcvSwdQFVaMVjedyf/tNObhvrwnP0aFFPUxcV1PeTjHcrnlfADhCtNd2D7o3YLoKfZ7tyIpIoL1sXsJJVGUjzgs7S51iXnqPJvFLEbxcR1N4/ZL3uOWnOEdYlALCLG8H9tI683X3ppP60iORoig/tXXuNeInNCjyLHcT61uXnqJiL30UE9WDGWK95Tv5C3UCCrMId7b7jzkhnEavP9darJSIJMiqwK6EteIttCz5H13B/sV6BHL3AtII3fBFBHeLw/pXVJ6z3rNR2J7lv+Bt1I2qvH+sF8jFERJIglNdv/GEThrJlUeewE1jdeiVyMo8BBf9uwUE91z9lvd45OZamwQXZqu7/3HecRI2iWzqcvwS3diISstHWBSzjCIYW/erhBu4k69XIUeEXvwsO6meYbr3WOa3eWdYlVKOVu9N9zlFFTYK3NXdbr4aIJEwotywbcicPuQYRdDXOoLb1yuTkPX4s8OJ3wUGdjAvf+8b6YstidXAPutGcSb2CfnsrXqZ+wGsnIiGaZV0AAF0ZzkkRnb/Wcgdar05OPI8X+JsFBvXEhLyDOvxhBuu4G90YzqNhnr+3D2/mOYuPiAgsti6A+vTjbTaI8Px1hvUq5eiJAn+vwKAeEMAfO7sO7GxdQk7WdFe7H7ks51dV1uIanqWhYlpE8mZ97u7KZ1zgop3bYnuX63usbQ3n64Iufhcc1ElwBi4xYbaau8T9xPN0zzqDWXeG81eXnDUTkZBUGi57Te7jnUj70n/K73Uedp4s6LcKCuqJiZg6tGEgE53krobr5V533/EvNq5mjY7jQ153HRXSIlKgJkbLrcWZfMMxMXUyDqe50Xrlp7C71AUNOn7C9DNZro6lUSIDbX13ERfxrX+Dd/iGCdRmdVrQme3YkShGSIpIOWtlstTu3MRGMZ6/6rjjfD+TNcvPl4z0G+e9HQoK6iRc+Hacal1CUdq5dglfAxEJUcuSL7E917FX7J2MU7mGRSVft/w9XsBLRgu49P2TH2q9pjnowYbqfYqIrKC0Pepm3MyXJYhpaO16lXTNClXIxe8CgvqpRFz4TsrQAhGRUtqkZEtqwAV8xxmuZok6Tcl4SOtbPs175HcBQV3ok2CltA49rUsQEQlQh5IMu6rFSYymn2tcwiubu9CudAsrQv4ZmndQj0/Ehe9TqKEL3yIiK3GuS8xLqOBgvuJOt2aJz8LOnVDaBRbo2bx/I++gHhDYK9KqUpNjrEsQEQnUzrG2vjcjeMKtb9JV6kMti8Xm6Su+zTNGCwjq8O1DqT/JiYgkxYERvLmval0ZzEC3qdn5dw23j9Wi8/Jcnj+fZ1CP9x9ar2EOjrcuQEQkWGu5vWNodUfeYLDratxJOtF28TmKOaifSMCF75bsbl2CiEjALsk6VXF+duB53nHdAriS2YN1rUvIwVB+yStK8wzqJFz4PlYDyUREMujkjomsrR14nvdcr0DOuhXuOOsSclDJi/mtVT4//JP/yHr9snIca12CiEjgrqdDBK3syjsBhfQfjovtDnyU8rv4nVdQv5CAC9+70CaonUZEJDyN3avVvPwnN7U5kmEMcjsGd75t6fa0LiEHg5idR5zmFdT5ddZtaCCZiEh2rdyQAsfzrM7f+YH+bsvgQvoPSbj4PZfX8vjpPIJ6jn/Tet2yasL+1iWIiCRCY/cyN+T55PEG3MBYrnRrBRrSAHvT1LqEHORz8TuPoH6dudZrltWR1At49xERCYlzZ7l32Cynn12FY3ibbznLhf663dqut3UJORjIopwvfucR1AOt1ysHx1gXICKSKNu5T7iLDTL8xCr05jEmcp/bybnAQ/oPfawLyMFvvJ/zz+b8PmrvX7Jer6w2pFMidiIRkXDUdCdynH+dp3mLMcu8HbEFHdmBndiWugk7s27jNvRfWxeR1XPsmONP5hzUnzDBeq2yOtK6ABGRRKrh9mAPYJb/mZl4GtOMVRMWz8s6kousS8jqOa7N8SdzDuoXrNcpK8dh1iWIiCTaKq69dQmROJJLlrk2EKbv+c63zenDUM73qMMP6h30BLWIiADruFwvK1t6NcefyzGof/afWa9RVkdYFyAiIoE4yrqAHEQc1OHPSVabg61LEBGRQBxMPesSsnqL+TlFa45B/bz1+mS1J6vrwreIiADQ0O1lXUJWs3N8RCunoJ7j37Zen6x04VtERP4nCdOe5HbxO6egDn9Oskb0tC5BREQC0pNVrEvI6pWcfiqnoH7Zel2yOlBTh4qIyDLqu72tS8jqcybmcJc6p6AeZL0uWWkgmYiILO8Q6wKy8ryew0/lENRj/ffW65JFE3a1LkFERAKzJ42tS8gql7vUOQR1Pm/NtLEPtXXhW0REllPX9bIuIavXqMx68TuHoA7/wveB1gWIiEiAwh/5PYURWX8ma1BX+jet1yOLhuxmXYKIiARoN5pYl5BV9pHfWYP6U6ZYr0UWPRP3CjYRESmFOi78R3ez36XOGtS68C0iIkm1n3UBWX3A7Cx3qbMG9RvW65BFffawLkFERAK1R/Bzfi9kaJafyBLU8/x71uuQxV400IVvERGpUgPX3bqErN7J8v0sQf0+c6zXIIsDrAsQEZGA7WtdQFZFBnXod6hrsad1CSIiErBe1LAuIYuPmJvxLnXCg3pHmujCt4iIVKu52966hCzm81HG72cM6ml+uHX9WYQ/8F5ERGwl/eJ3xqB+g8XW1WcR/rtRRETE1n7WBWRVRFC/bV17Fu1pqwvfIiKS0fpuY+sSshjKggx3qTMG9bvWtWcR/nTrIiJiL/Rhx3P5OMN3MwT1DP+lde1Z6A61iIhkF3pQZ774nSGohwZ+h7oxoY/kExGREHShoXUJWRQY1EOs685iL2rpDrWIiGRV23WzLiGL91lY7V3qBAe1RnyLiEhuQr/4PYvqH4euNqgX+Q+t686oQi/jEBGRHIWfGIOr/U61QT2C2dZVZ7Qlq+vCt4iI5GQd18G6hCyq7xxXG9ShX/juYV2AiIgkSOh96gKC+n3rmrMI/8VlIiISjr2sC8jiJyZUM5ys2qAO+z3U9djOugQREUmQLtSzLiGL6vrU1QT1936idcUZ7Ug93aEWEZGc1XE7WJeQRZ5BHfodal34FhGR/IT+LHV1L7tMaFBrKJmIiOQn9KD+hMVV3qWuJqjDvkPdlE2sSxARkYTZiibWJWQ0k6+q/HqVQT3df21db0Y9qNAdahERyUsNt6N1CVlUfZe6yqAeTqV1tRnpDrWIiOQv9IvfeQT1MOtaswh9U4uISIh2tS4gi9QEdUvW1YVvERHJ28asaV1CRiOZVcVwsmoufYcs9HsMIiISJud2ti4ho8VVdpSrCOrp/jvrWjPqal2AiIgkVBfrArKo6lnqKoJ6OD5rU5bUoxYRkcKEHtRVXdGuIqg/sa4zo9XYyLoEERFJqE1obF1CRp9V8bUqgjrsoWRd9Qy1iIgUqMKF/Uqnb5mz0kXtBAa1iIhIocJ+NcdiRq30tZWCerr/3rrOjBTUIiJSuNDvUn++0ldWCuphQQ8la8AW1iWIiEiCbUNt6xIyWvku9UpBHfYz1NtSS3eoRUSkYPVc2B2+HII67DHfYQ8CEBGR8IV98fsz/AoXthPWo97KugAREUm4sLt80xi/wldWCOqZfrR1jRltbV2AiIgkXGfrArJY8eL3CkE9KuihZGvTQneoRUSkKK1dC+sSMlpx3PcKQT3Sur6M1J8WEZHihX0bNUuPOuygDv1yhYiIJEHYaZL10nfI1KMWEZHihR3Uo1d4K3WCgrqCTtYliIhICnQm5AFPlXy13H8vF9Qz/Pi8GiutDWkU8pYVEZGEWN21sS4ho2+W+6/lgjrsMd+68C0iItEI++J3xqAOmS58i4hINMIO6q+X+6/lgjrsMd+bWxcgIiIpsaV1ARl9u9x/JSaoHZtYlyAiIimxqXUBGX3L4mXuRCcmqNelsYaSiYhIJFZzraxLyGDecvN9LxPUM/zP1rVlsJl1ASIikiJhp8qyw8mWCeqRQY/5DvsyhYiIJEsigzrsMd8KahERiU7YqVJNUH+Vd0OlFPYmFRGRZElkjzrkN1E3YH3rEkREJEXaUt+6hAyqCervrevKYFMqNOZbREQiU8NtbF1CBj8v82KOpUHt/Q/WdWWgZ6hFRCRaId9S9ctMerI0qH9ltnVdGSioRUQkWhtZF5DR/y5+Lw3qkC98w4bWBYiISMqEnSxjlv5bQoK6vXUBIiKSMmH3qMcu/belQT2moIZKowEhT/UmIiJJtG7Q476rCOqQe9TtcBrzLSIikapwba1LyCBhPWpd+BYRkeiFfJd6LH7JA1qJ6FErqEVEJHoh36Wex6Ql/7YkqGf5SQU3Fj8FtYiIRC/kHvX/Ln4vCeoxQb85K+xNKSIiyRRyjxp+XPK/S4M6XI6Qb/eLiEhStV12Hu3grNCjDvkOdStW0ZhvERGJXD3XwrqEDFYI6pDn+d7AugAREUmpNtYFZPDjkv9dEtTjrevJYD3rAkREJKVCDupxS/53SVD/bF1PButYFyAiIikVclfwxyX/uySoJ1jXk0HIm1FERJIs5B71TKZ6WBLUi4N+ilo9ahERicf61gVk9MdwsgqAX1hsXU0G6lGLiEg8wk6YX4AlQR3yHeparGVdgoiIpNSaNLAuIYNlgjrkO9TrUENPUYuISCycC7lPvUxQT7SuJQPdoRYRkfiEnDK/Agm49B3yZx0REUm6ta0LyGCZoA750ve61gWIiEiKtbQuIIOE3KNubV2AiIikWCvrAjJIyKXvkCdMFxGRpAs5qBPSo1ZQi4hIfEIO6qnM91AB8/xU61oyUFCLiEh8Qh5M5pkEVMBEvHUt1arNqtYliIhIijVwTaxLyOBXoOLPm9VhaoHTdCciMVlgXYBIEEK++P0LUAEhX/he07oAkSAsiqXVyxge7uU0kZIJOaiX9KinWNeRge5Qi8AIf0os7U5lVz5WVEvZC7lLmIAetYJa5GHfZekL5KM2jd0U1VL2mlkXkMEUoAJ+t64jAwW1lLdF/kJ/JHNiXIKiWiTkoJ4OVMBv1nVkoKCWcjbF785VsS9lGrvxkaJaylhz6wIymEbwPeqQP+eIxGuE78ybJVnSNHZXVEsZCzlpphF8UK9mXYCIkSf99rHdmV7ZNPZgmKJaypR61EVRUEt5utEfwrySLnEq3dWrljIVco96OlAz7HvUhQX1PD+Gn5jOdGYyg7l4pi33/bnVngIraLz03xtTn3qsSj3q05gG1GcN1tAELBI77y/jMoPlTmN3XvVbaw+XshN6j9p5Vgt4ru951Mn5tOH9MF7kbb5jQmyTotZiTdamBS1pyfpsShtq6LQmETvF32m27FV5nU7ap6XsNPSzrEuoRg0W4hb7WlRaV1KN+szO8ZSxyN/B1YwveYX12JKu7MjO1NPJTSJxub/UdPlNeBX1qqXctPE/WJdQrRm4Kb6pdRXVWptxOZ0wfvX78qFppQ3YiyPpSYVOcFKUh3wf85fkKKql/HTyw61LqNY4KpJ/h/oH39U4pmE2A9iXttzpF1mfZSXB3vbHmce0RoBLOWpiXUAG06hI+pjvyX5XvrMudIkxnMLmGjkrBZrmj2ahdRGARoBL+WlcfBOxmUbFdOsaMsj+Lur5/gDCurMwki7cqFOcFOBUxlmXsNQ0dtfEolJGmlgXkMF0KuKcRbhYq2f9iXN5z7rIlSzkbC7SKU7y9KB/zLqE5Uxjd10Al7IReI865KBumOX7g/zt1iVW49/cqlOc5GGaP9e6hJVMpbt61VImmlgXkMF0KmZb15BBg4zfnRbEwJvqnKNTnOThiiAnHtKbtaRchNyjnhN2jzpzUJ9n8Nx07hZyIhoBLrn50d9iXUI1FNVSHppYF5DBPGomNai/9/dbl5fFZ9zHidZFSCL8k/nWJVRrGlsT8KWrAtShft6/U5d6S/6tITUBqE8dAGrTAKhBI+pThybUoQGrUJsm1GV11qKxnkhPhJB71POoOde6hgwyHU7/ZpF1eVn9m2N8LR2mksWP/nHrEsrK/JJ+LKrr12AtmrMW67EJm9BSZ4QghRzUc5Paox7rH7IuLgdjeYbe1kVI8G5jsXUJEpt5jGXsMv/dxnfjYHbVWwICk/9VltKZl9R71LcEMjFENqGOSpdwzPH3WJcgJTSG/7I763OHZjEMSr3im4hNQoPa+wHWpeXobUbqYJSMHgn6jfASj7GcShe+0dkhGArqglV3MeKD5S4lhS0Jl+jF0iPWBYiRD9mSOxXVgQg5qOeGHdTV9aifsi4sDwOtC5Cg/ebftS5BzMzhFM7ylQrrAIQc1IH3qKsL6vetC8vDl/yow1Cq9WICnl6QON3EWdYlCBpMVoQ61Xz9G+vC8vKWdQESsGetCxBzt3CtPsybq0u4w/Dnhj2FaM0qv+r9NOvC8pKsjxVSSpX+TesSJAAX8qGi2liFq21dQrXmUXOedQ0Z1Kjyq85V+Err0vIQytuyJTzfEPJrZqVUFtGHz3zdcLt0kZjnZzKTqQDMZfnkmc2CFX76z5nf/pwJrgmOChrTmIqYtlP9YOcHnEvNkKdaqFnN1+szw7q0PPxiXYAE60PrAiQQ33I751gXEbmf/et8wxjGMJapkY3GWMU3pCFNaU4LmtOcdVif9ahTdHzXNd5a1ZtHzZD7pukI6hrFNyEp9Yl1ARKMKznJN0hNn/p3fxtP8Wksbc9iFhP5drmvVdDKt2VLOrEV6xe4FWsW9mslsCCZPeq1EtVLrWVdgARruHUBEowpPM5x1kVE5DF/eomn8alkHON4A4Dmfjf2ZDea5hnYFSWtOB+eiiT2qNe1LiwvyapWSmmcdQESkLRMJXujP9x0tr1JPMQRrEEPPyCvaVpDvvYZcFC7aqetX9+6tLxsZV2ABGqhT9KVIYnbB0xOwdjvy/3ZQbwVtZJB9KYtD+c8oUy4l76D7lFX//lmW+vS8rKNdQESqIl6a5Yso5LkP6z3iO9rXcJyfuRItubTnKI63B510EFd/eebnQK+m7Ci9mxhXYIEarx1ARKYYdYFFFu/Pz6I3vQKVbE99+dQVrhBHfSl7+qDenW3tXVxOTsRl5qRnBKtJD27IKXwtXUBRZnvjybMeTnmciz9skZ1uEEddI86U76dbF1cjhpxtHUJEqxkvFNdSifZgwsvZ6R1CRn8g/uyRHXQ96jDvUuWqbJDaG5dXk4uyvsRASkfC4pvQlJlpnUBRRjhr7YuISPPqVne/x10jzq8Owp/yjSPTT33f9bl5WB9zrQuQQKmHrUsL9QpLHNxafDvgZvPSfgMgRfyyKeE9qjhKHpYF5hFBXdGMK2diJSLVawLKNgo/6J1CTkYzKAM3w33g0bQ96gXZ/z049wANrcuMaML2FUxLRmsal2ABCa5e8S/CTdJlnV7hu+F22kNOqjJ8qdv7AaysXWJ1dqWy6xLkMCtZl2ABKatdQEFmuYHWJeQoxf4rdruX7g9akK+R519w7V0H3CodZFVasET1FJ/WjJa3boACcxG1gUUaGBixlssYnC13wu30+qpCHekWy6XIlZxj7rHaGNd6Arq8RxrK6YlC/WoZXldrQso0HPWBeThnWq/E/Sl79rWNWSQ24Y7xI3iBtpZF7tUPQbQWTEtWa3qkntPUqLXKKHTDVf6V6xLyMNn1X4n3EvftdIQ1FDHneW+5k2Ooql1yTThFfZWTEtOOlgXIAE5MKG3y35glnUJeVVbnXCDuk7YQZ3PhnNuF/eg+5UP6EsPo4uKjgP4lB0TebCJBQW1/M/x1gUU6CvrAvLyEwurGZgV7qXvOtSsY11DBvnP3FThtlly+egHP4xv+J7RfM+E2CutwfbszX60V0hLHhTU8qcd2CGhZ49kBfViZlQzjDPcwWS1qRlyj3pOEb+7nltv6b8v8JP4hV+ZzCRmMJMZzGQ6lUwHYP6S5cxiIeCZBjRcbt7XetRd5r9q0pB6NKQRjWlMK9rQhjbUTehBJpb0ZjX505XWBRRsqnUBeZpbzdfDndK3DjVrWdeQQTFBvazarhWtrFdGZCXb0YDZ1kVIAI5N8C2zcC8ZV21Onl+3F/g9ap3CJN1quy7WJUgA1uF66xKKEO4l46pV90hymK/oBKhDRcj3qMP9hCMSjV2tCxBzjXiOxontT0MD6wLyUsGaVX59vg/3ykBt9ahFLO1mXYAYa8AzbJbgmIb21gXkpS0Nqtzac/NtqIQCv/StHrWk3WYuqdNGShRW4zW6JTqmYUPrAvLSvZqvK6gLph61pF8f6wLETHdGsH3CYxo2XO6pmNAdXM3XFdQFU49a0u/IoF9YL3FpyM28RuvExzTUc7tYl5CzFtXOpx5yUOsetYixVk4DysrN2lzCD5zhXApiGuBo6wJydhgV1WzzkIO6TnonPBFJijN53boEKYmWbEIXdmHbauMimQ5gvQxzaIejDudU+72Qg7o2Netb15BBkqZ6FynU3mzJcOsiJEK1WIUG1KM5zWlJc9ZiDdZkfVZNVTwvs77uSn+YdRE5OJ5W1f4FZloXl0E9ajayriGDpE1NJ1II5y7yB1gXUa2tWK/4RkqscZ73/euQS4flz1ZX4Y/5HOtTZ5nfbkxtGlKfOjQhLZe0c3eoe9I/ZV1EFrW5MMN3Q06bRtRsaF1DBr9bFyBSEvuxKZ9bF1GlTXm7mudORZb1X77gW+siMjqLtTPsydOty8ugMRUh96gV1FIenOtnXUKVVuMZxbTkpIl7rpq3UoVhXS7N+P1p1gVm0CjsoA75YoRIlPZ0va1LWEkFD9FGMS052tC9ShPrIqpRk/5ZPnKqR10w9ailfNwY3EmuH3sqpiUPndy7tLYuokpX0CXLvjzNusQMAu9RK6ilfKzp/m1dwnIO4G/WJUjidHQf09O6iJUczQVZP3KqR12w+cz21jWIlMop7G1dwlKb8mAZjl2W4jV3z/MQa1uXsYxduSuHn5pmXWYGgQe17lJLOalw/WljXQQATTWITArm3BHuG26nnXUhAOzHQGrnsC+H3KNuREVj6xoy0sVvKSerumdyeqI3XrV4QoPIpCj13Cnua4ZwhulT+LX4JwOom9O+HHZQu2m+iXUVGbzFzjphSFnp74/G8o5PDR6ht446icxo/x4j+ZyR/FzCpbalF2ewXs57cjM/xWDb5KIWC1zNhjjT00Jm6lFLuTnK/eLPN1t6De5RTEukNnAbLPm33/0oxjGZX5nIZH5hMjOZw/yIltOIhqxFG9rQhh1pl9devNiHe5u1EVCzwq3iw53ldJJ1ASIld56b7y82WXIDHqWXYlpisprrUuXXp/uFzGAec4FZLFz69cqlF6SXnxS2Acu+TKouDWlEk6L22ykstt441WoM1IRGAU9H/qt1ASIGLnKr+b9QWeKltuAFOimmpeQaO2hqWsFk602QQSOg4o+8DpWCWsrTae5Vmpd0iZvzgWJaylTIQd0YBbVIoLq7L+heomXV5AI+oLViWspUyEG9OlBBiT+35+cX6wJEzDR3L3PRcnfj4tGRofRzdRTTUrZC7hKuAVT88T+hCnnzicStpvuX+yLWKRlX5Uo+YSuFtJS1kHvUzQm+R62glnLXzr3gXqFDDC035GLG8Hf1paXshRzUzQg+qGcxJ9yHvEVKZHf3BS/QnegStSUXMYbLXXEPtYikQwKCupl1HRmpTy0CFa6ne919zomsWmRLtdifFxjLv1xThbQIAD9ZF5BBAu5RwwTrAkSC0dHd5X7ldc4o6O1EzTic+/mZp11PV0MhLbJUKSc3zVczwHlG+o7WlWTwGIfolCKyAu9H8TGf8AmfMS/jT9alAx3ZlJ3ZggodSyIrWezrBDwz2RRWdzXDvkcN460LEAmQcxuzMccAC/1P/MxPTORXZiw93TSjKU1pynpsgHrPIplMCDima7IqUBNWpyaLrKupVsj3DkTs1XLrmb5KUCTpQk6ZZlQ4qIAKt7p1LRmoRy0iIvEJOaj/uOJd8b9/DVPIm1BERJIu5JRZJqhDHvetHrWIiMQnIUEdco/6VxZoyhMREYmJgrpolUy0LkFERFIr5KD+43p38Je+dfFbRETiM8a6gAxaAUuCupV1LRn9YF2AiIik1Bwf8kTV6wBLgrq1dS0ZhfxpR0REkmwMIQ+D+iOdK+DPzA6VetQiIhKPkLuCNVgLWBLULalpXU8GCmoREYlHyEG9FjUdLAnqmq6FdT0ZhLwZRUQkyUJOmD9vS1cs/58hmsD8kG8hiIhIYimoI1HJWOsSREQklRIU1GEPJwt5Q4qISFJ5/6N1CRmsveR/E9CjVlCLiEgcfmKudQkZ/DnHSSKC+jvrAkREJIW+si4goz+vdSciqL+xLkBERFLoa+sCMkrUPWoFtYiIRC/kHnUDVnN//NuSoG7kmljXlMGPzNMDWiIiErGQe9RrL/23ij//JeSL35WMti5BRERSJ+Qe9QZL/y0RQR32px4REUmiqUG/Oavt0n+rWPlLIdJdahERiVbYXcAqgrqddU0ZKahFRCRaIV/4rjKo21vXlFHYn3tERCR5wk6WxPWov8Jr3LeIiEToC+sCMqhT1ajvtWhoXVcGs/RiDhERidRn1gVksAEV7s9/XxrUzoU9nCzkTz4iIpI0k/1E6xIyWDaRK/73r2HfpVZQi4hIdELuT1cb1GHfpf7SugAREUmRz60LyEg9ahERKXNh96iX7TonJqi/YYHGfYuISEQS2qN2eTdVOgs16YmIiERkkQ95upMGtFjmv5YJ6gauRd6NlZLuUouISDS+Yr51CRlsgFum51yx7Lc2tK4to7DvJ4iISHKEfeF7o+X+a7mgDnvc9zDrAkREJCU+ti4go02W+6/lgjrs4WQjrAsQEZGUCDuoOy73XxXVfys0v/Gjxn2LiEjRFvqwu36bLfdfFdV/Kzy6+C0iIsX7krnWJWTQkNbL/fdyQd3MrWldX0bDrQsQEZEU+Mi6gIw2WW7M9wpBHXqfWkEtIiLFC/sO9SYr/HeigvoT6wJERCQFFNSxmcJPGk4mIiJFmeNHWZeQUZag3tS6vizC/hQkIiLhG84i6xIyWvEJrBWCekPqWFeY0QfWBYiISMJ9aF1ARi1ZbYUXb6wQ1DVdB+saMwp784qISPjesy4go5WvbFes+IWw71J/zCLdpRYRkYJ5/751CRltstJXEhbUc/jCugQREUmwb5lkXUJGiQ9q3aUWEZFiDLEuIIvEX/rWXWoRESlG2Heo67PySLGVgno118q6zoyGWhcgIiIJFnZQb0lNt+LXKlb+sbD71N/xm4aTiYhIQSb50dYlZLRVFV+rIqg7WdeZkVefWkRECjSEsPt6OQb1NtZ1ZjHYugAREUmo0IeSda7ia1UGtcvalKV3rQsQEZGEetu6gIwa07aKr1YR1Ku79a1rzegTZoZ95UJERII0zX9qXUJGnVd4E/UfKqr60bAvfi/Ss9QiIlKAN1lsXUJGnav8agKDWhe/RUSkEG9aF5BFHkG9rXWtWWg4mYiI5O8N6wKyqDqoXVW3exf6xsy1rjeDOkyjbtgj3kREJDAT/VrWJWS0JhOrTLYqe9S13ObW9WY0n4+sSxARkYQJvT+9VTVfr6j6y6HfpX7LugAREUmY0O9Qb13N1xMa1IOsCxARkYQJPag7V/N1V/UjyT/4NtYVZ1SL32iou9QiIpKj0b5t8Y3EqAa/0Tj3e9SwnlvDuuaMFmrkt4iI5OFl6wKy2KSamK42qKu/Vh6K0AcFiIhISF6xLiCLrtV+p9qgDv0u9evWBYiISGLM829bl5BFl2q/U21Q72BdcxYjmagZv0VEJCfvMMe6hCwKCOrtqGtddUZeF79FRCRHod+h3oC1qh0gXW1Q13GhTySqR7RERCQ3od+h7pLhexXVf2sn67qzeBWvi98iIpLVD/4b6xKy2DHD9zIE9c7WdWfxC8OtSxARkQR4ybqArLpm+F6GoN428LvU8KJ1ASIikgChX/hekw0yTOGVIajrutAf0Qr/M5KIiFib40OfPLRLxu9WZPrmzta1Z/Exk3SXWkREMnot+Eezdsz43YxBHfpwskpetS5BREQC95x1AVl1zfjdjEEd+rPUukstIiKZLfYDrUvIojGbZPx+xqCu60Kf8fs1Funit4iIVOtdpliXkMXO1Mj4NsiKbL8etqkMsS5BREQCFv6F7+5Zvp8lqEO/Sw3PWhcgIiIBCz+oe2T5vst85XieX5V51uuQ0Tr8gHPFtyMiIukzwm9pXUIWrRifJcOy9KjDv0s9lk+tSxARkUA9b11AVrtl/YmKbD+QrUtu71nrAkREJFDPWBeQVbY71DkE9R7W65BV+H8GERGx8K3/zLqELBy7Zv2ZrEG9Jc2t1yOLL/hWj2iJiMhKHrcuIKvNaZ51lFXWoK5w2a+fWwv/HoSIiJRe+EGdy+3lrEENe1qvR1bPWhcgIiLBGeVHWpeQVfY71DkF9W65/JCpofysi98iIrKc8PvTdbO8N+sPOWRwU7eV9bpkUckT1iWIiEhgBlgXkFUX6uUwD0hOneXwR36H/7lJRERK6TP/lXUJWeX2AHRKgvojftDFbxERWSr8/nRud6hzDOqtWd16bbLwuvgtIiLLCD8V1mKLnH4up6Cu4cKfn0wXv0VE5E8f+e+sS8iqV45vqshxQPfu1uuT1Qi+0sVvEREBoL91ATnolePP5RjUexD+C6qetC5ARESCsNA/Zl1CVvXYJcefzDGo13S5XUm3FP6fRURESuElpliXkFV36ufYA66Za5N7MNx6rbIYxTDfKfyO/wrm+GF8zDAm8jvzaU5LtmB7tqVG4tZERCQUD1oXkINcL3yDy/XG7kd+G+u1yuosbkhQvM3wA3mKl5lbxfeacSCnsFmC1kZEJBS/+7WYb11EFo7xtMzxHJ9zUHu/DuOt1yyLZvxMrUSE21B/OwOYl+WnduNKkneNQETE1m3+dOsSstqaD3M+u+c8jbdz+1ivV1aTecW6hKzm+bv8Fn57+meNaXiNrTnDz9JodhGRPKRpxDfkEdSwv/V65SDsP88sf6Nfn5P5NOffqORWtuRLRbWISI6+8x9al5CDfII650vfsMivwe/W65ZFXSbSJMiLxVP8TdzC1IJ+txED6RrkWomIhOYi/2/rErJam7E5TnYCefWoa7p8PgHYmBfkpHHT/SW+Df8qMKZhBnswRL1qEZGsFvn7rUvIQa5zkv0hr1dNJ+Hid2iD8uf4q3wb/sXM4lphX75TVIuIZPEyP1uXkIOeef10Hpe+Ya5vxmzr9cu2Qoxiw0AuEy/wd/NvJkbU2hYMpU4gayYiEqZ9/AvWJWS1CpOpG1ePup4Lf85vzz3WJSzxlN+YMyKLaRjBFdarJCIStIn+ZesSctArr5jOM6iTcfH7fuabXyT+0HfxBzE64lb/j9HmayYiEq57WGRdQg4OzvPn8wzqntS2XsOspvC86fLH+z5+O4bE0PJ8wh/LKCJixSdiINkq7JHnb+QZ1E3cztbrmIO7zZY83Z/n29KfuDq+DzFefWoRkSq9zvfWJeRgH+rlOdooz6BOxsXvQXxvEGeV/kHfnmtinWF2EfeXfsVERBLhv9YF5CTfC98FBPW++f9KyXnuLfky3/JbcjS/xr6cR0q+ZiIiSTDJP2ddQg4akv+g7LxTt4Xbzno9c3A/i0rYpx7n+/hufFaSZX1tcrVARCR0/2WBdQk56Jn3he8CghoOtV7PHEwo2YCyGf4C366kc4y/U8JliYgkwyJ/h3UJOcn/wndBQX0INa3XNAe3lmAZlf6/vh1Xl/i9p8NKujQRSa9Z/ic/xk9OxVW6Z4N/ETNAw7xHfAOFZG4z192H/zrJN/nSd4x1Hq/P/cl8YLBmowyWKSJp8pV/jlcZyeQl/13Lr83mbM4ubEvNhM5/eLN1ATnpVcCF7zynEP3Tg/5o67XNwencEtsON8dfzX+M7oe04fuEHkgiYu8t/x9er/a7TdiNw9gzcdMVj/SbxPZYbJSeYb9SBfVMvyZzrNc3q4b8RKNYdrYX/F8Ya7ZeqzAzYYeQiIThV38Oj+bwc6tyKKezcYLONCd5u/kzcteQXwvqURf0rFVDl9+bP2zMjGWI1wTfx+9jGNMw13DZIpJcQ/2WOcU0TOV2OrKrf9ZXJqGbyjSfjAdX85/q5A8FPhR9uPX65uQ2fKQ72SJ/g9+wpCO8q7KYZBw6IhKSJ/3OTMjrN95kfzblYV/Kh10Lc2/w73X8QyEjvqHAS9+wwK/JVOt1zsEgdo3s4s0YfwzvWq8QUJe5CbogJSIheMwfVfDrKtanL4dTEex5p9K3S8TUoU35mdql7FHXdgdZr3NOohoH6P3NfpMgYhoaWRcgIgnzkT+miLdKfc9RbMKAYPvVzycipuGQAmO64KCGw6zXOScv8HUEO9dE35Mzgxk+t451ASKSKFP8wUXP9jCK3uzsPwsyrK+xLiBHfQr+zYKDeidaWa91Dioj6FM/4DfiJesVWUZb6wJEJFGOZlwk7bxDJ87wUwML6499HC8Vjl47ti745kHBQV3hDrFe75zcz5QidqtZ/hB/DNOtV2I521sXICIJ8qqPrqOxmFvZgBv94oDC+irrAnJUzOwjRbwKKxkjv+dwZ8G/+53fhiesV2Al3a0LEJHE8P4fEbf4O2ezNe8HEtU/+GetS8iJKyoxiwjqLV0H63XPyU3MK2iX+srvGOB0nZ1oH+zYSxEJzdMMj6HV4XThOP9rAGF9HYutS8jJLqxbxJm7qJdLH2m97jmZlOMj/sub7w/gF+vSq3CqdQEikiD3xdSu5z425EbjCVF+93GtX9SOKuq3C3yO+g+/+LWLGPJfOh35HJfnp5lr/d+sy67CBnyV2CnzRaTUfvctYn4nwfbcSbyvP8rk3/4iq0XnpT6/0NCqR72m29N6/XPyJa/m+RsL/bXWRVfBcbNiWkRyNiD2Vwe9z5b8w8816VfP96V4nXEU9i8qposMajjeev1z9J88f/4tJlqXXIXj2UMxLSI5G1yCZSzkP2zMKwZR/WCQ5+mqFP4E9R+KDOq9aWG9BXIymPfy2o2eti64Cp240boEEUmUOAaSVeUH9qSX/6mkYb3Y/18pF1eEtdi1yBaKDOqarrhb5KWTT5+60j9nXe5K1mcg9dWfFpGczfLflnBpA9mUh0oY1Y/wXQnXrhhHUqPIc3dRg8kAvvUbJuJ13Y7hbJ7jxhrtQ5v9a13eKmpwv4iUn8/9ZiVf5oHcTrMSnKsqfUe+KvnaFWYkHYrcIkX2qKGd62K9FXLi6Zfzz4b259+M9xTTIpKnGQbLfIqOPFOCvtvTwZ2nq9O16JiOIKiTM6DsSb7NcfcZaV3qcvZgMC0V0yKSJ4ughkkcQO/YZwTPveNl7eQI2oggqHvTxHpL5GQxV+f4k6OtS12qgksZSCPFtIjkze6NfwPYnDdijOqBfpjZuuVndQ6MoJUIgrqeO9R6W+SoP+Ny2nVmWhe6xBq8Sl9X7DAEESlPTQyXPY4eXBjbvGVXGq5Zfo6ibgRn8AiCGo6z3hY5WpDjnzeMN08fzBd0V0iLSIHWMF265yp6MCmGqH7DDzVds3ycGEkrkQR1Z1f6sYWFuZcfctht7IO6BU/zhCvF2EkRSas1rQvgTbbiw8ij+l/Wq5WzHSMYSAYRBXVy+tQL+bd1CVk5TuFr9ldIi0hRmrK6dQmMZ2fuiTSqB/l3rFcqZydF1E5EQX0kdc02RX4e5PusO81qhvW15W1udxo+JiLFcq6rdQnAPE7gDL84srC+xHqFchbNQDKILKhXc4eZbYz8LOSKrD/T1Ki2VbiUz9lRIS0ikQghqAFu5UDmRBLVLybo/vTRkQwkg8iCGs602hZ56883WXYYi8tFFRzFaPq6qP6wIiI9rAtY6jl2Y0bRUe39ZdYrkofo5hiJLKg3d9ubbIr8Lc56n3r9kte0KyN40K2hkBaRCG3itrUuYakhdOP3IqP6GT62Xo2c7RTRQDKIMKjhLxbboiCPMCrj7tKppNW04wkGuU0V0iISudOtC1jGMPYu6gJ4pe9rvQp5iGogGUTwUo7/WejXZULpt0ZB9uOZDMG4yDdibknqWJOLOIlaCmkRicV83yao83JPnqFmgWe8x3xSxkJBU8ZHdoc60h51LRfFnKal8SzvZ/iEUtNtUYIaVuM/fM/pTjEtInGp4x6I8jRftIH8tcDfXOwvty4+DydHGNORBjWcRO1Sb42C/T3jd/eNeekNuIDRXOj0hmkRiVd393/WJSznJp4o6ELug4l5XxbU4tRI24vw0jfAEf6RUm6NorzIXtXG5Hi/Tmxv2a7NMfSlhSJaRErkBn9ubGe0/DVmZN5vBJzr2zPeuvCcHc7DkZ7hI74mkpwBZXAh1U8Yv3ZMY9grOJivuNMppkWkdM52d1LLuoilpnNG3r9zfYJiOvrHlSMO6m1d55JtimJ9Qabe/2mRL68GhzGKJ1wbhbSIlNiJ7g2zqZxW9ixv59XBn+JzfUlxCLZnm4jP8pGPMsj/k5Kdi5lf7c5yCB0iXFItjmEUj7j2CmkRMdHVvUd76yKWym8i0H8x3brgPJwVeYsR36OGeb41k0uzNSJwPWdXG53v+F0iuatTh2O4gPUU0SJibKY/kceti1jiUzbL8aw4xm/EAutyc7Y2Ywp+AK06kfeo67po3r9ZGpfzW7VZvJMr9DGC/6nDSYzmDqeYFhF7Dd1j7sZAns55IOef/EeCYhrOiDymY+hRwwS/LgtLskGicCY3VrtRF/luvFtwy004kb+iaUFFJCwf+SP5zroINuSrnM6OH/ttAhqxnk19xrF65Gf9GJ6EX8sdVIrtEZHbGFntPlDTvcBmBbW6ITfwE1dr9m4RCc7WbgSnYH1y+pqJOeXvhQmKaTg6hpiOJajhvLi3RYQWZZz6pLEbmOegslr0ZjBfubNcA+vjQESkSg3c7e4VWhpXkcsEJs/5N42rzIeL6RHlWIJ6C7dbrBsjWi/wWoYPbK3ckJxfFbcul/Ijj7uuimgRCdxu7lMONK1gTNafWOCT1O2DPdgolrN/TJPAJmvjnsOiDFHdxL3K7ayasYXWnMX7jKGvW0shLSKJ0NQ96Z7Icm6L04ysP3FdAPfS8xH9g1l/iGEw2R+28sPi2hYxuIsTswTsLH8Pj/Exi5f76lpsRVf2ZGPFs4gk0jh/DG+ZLPk/XJjxzPmLb8dMk8oK05HPcbFkQWxB/bg/NMYNErXmfEOTHDbwVD+KH5gDNKYV67OmAlpEEs77/pzLbyVf7h2cnPEMeqy/32qTFOQhjogpEWIL6sV+Q0bHtkGil+kxLRGRdJvoz2JAiZf5HPtkOOsO952pNN0m+VmPb2N4gvoPsb2otIY7O66mY3ErnyXpGQARkQi1cE+4gaxT0mVunuF73p+dqJiGv8UW0zH2qGGeX49fYms9ejvwbkz3F0REkmCmv4hbVxiJE5e1GZvhjPuwP9J6Y+SlOT9SL7b8iK1HDXVdtK/OjtsQHrYuQUTEUEN3o/uYrUqyrH0yxPQcf6H1psjT2THGdKw9avjdr8OsGNuP2hp8Q2P1qUWkrC3y13I5c2JeyhC2r/Zs+3ffz3oj5KURY3MajlyoGHvUsJo7Ls7mI/crl1uXICJirKa7wH3NIbEuY7MMMf2tv956E+TptFhjOuYeNYz1G7Ao1iVEqxYj9Ey0iAjwkT+TD2NqewAHVXOm9b4bb1uvel7q8kPMj+rG2qOGdVy8n8qitpDjqdTobxERtnZDuIOmMbTcOcPkpf0TFtNwXOwzasTco4Yv/OYJG2R/JyepTy0iAsA034/rI30jdA0+pFM1Z9mpfiN+tV7lvNTkG9rEnBkx96hhE3dA3IuI2PlMUJ9aRASAJq6fG86uEbZ4QbUxDf9IWEzDIbHHdAl61DDSb5qwPvVhPKI+tYjIMp71/8jpxZTZ7MSgaqcG+cRvW6KnuKPiGM7msedF7D1q2NjZvkotf4/yivrUIiLL2M99wX1Fz13WhserjenF/uSExTT0KkFMl6RHDV/6zRLWp16PL6mvXrWIyHLm+zv5N5MK/O01eJe21Z5Zb/ZnWq9enhzD2KIESVGCHjV0TFyf+gc9US0ispI67kw3hn40KeB312Zwhpge5/9pvXJ5O6AkMV2iHnUS+9S1+KgklzRERJLnN38VtzA3j9/YimdoleGcurd/yXql8lTBp2xSkpQoSY8aOrqDSrOgyCzkGBbqTrWISBVWd1e7MVxI45x+2nESgzPG9EOJi2noXaKYLlmPGkb5TRLWp4bLuVh9ahGRak33t3MTEzP+zPrczJ4Zz6VT/MYF3/e2UoMv2KhECVGiHjV0SFyfGq7gC/WpRUSq1dhd6MbyODtX8/1WXMvILDENZyYupuGwksV0CXvUyexTb8GH1FKvWkQki6/9AJ7is6X/3Zjd6c0+OZxBX/J7WxeftxqMpH0agxoO9Y+XcGnR6McFCmoRkZz86kcymcaszwYZ3je9rBm+I+Oty87bsdxbwmQoaVAnsU9dh2F6n5aISExO87dbl5C3WnxdgolD/6dk96gBOrjepVxcJOZzIot1p1pEJAaD/Z3WJRTgmJLGdIl71PCV3zRR76f+w3+4UH1qEZGIzfSb8YN1EXmrzXe0LmkmlLRHDRu5Y0u7wEhcwifqU4uIROzcBMY0nFjimC55jxom+LbMKfEyi7cJH1NHvWoRkci85HuSvD5QPb6jZYnToMQ9aljLnV3qRUbgCy6yLkFEJEWm+ZMTGNNwTslj2qBHDTP9Bgl8uL2CQeyiPrWISCSS+LguNGU0jUueBCXvUUNDd2HpF1q0SvowNYkf/0REgvNMImMaLjGIaZMeNSzwHfjeYLnFOob71KcWESnSJL9JAq+rQhu+orZBChj0qKG262ux2KLdz1PqU4uIFOn4RMY0/Mckpo161FDpOzPcZMnFacII1lWvWkSkYLf5061LKMjWfJDjtKhRMwpqeNXvYbTk4nThbWooqkVECjLKd07gI7oAb5oNKDa59A2wu+tuteiivMe/rEsQEUmo+f7whMb0vobP/Zj1qOEzv2XiXtEBelBLRKRQZ/qbrUsoSA0+M3w9k1mPGjZL4Cs64I8HtX7ToDIRkTy94m+xLqFAJ5i+RdGwRw0/+I2Yb7j8wu3P0+pTi4jkYZLfjF+siyhIA76jheE537BHDeu5Uy0XX4RnuEN9ahGRnHnfJ6ExDeeaxrRxjxqm+XZMNq2gUHUZwpbqVYuI5OQ6/1frEgrUgm9oaHq2N+1RQxN3hW0BBZtHb6arVy0ikoOP/T+sSyhYP+OYNu9RQ6Xflo+NayhUL54zevxdRCQ5pvktE/nmaYDtGGJ+njfuUUOFu4GkZt0L3GBdgohI4Lw/LrExXcEN5jEdQFDD9u5Q6xIKdgFDrC9JiIgE7RqesS6hYMeztXlMB3DpG+Bn357Z1kUUqBUjaBrAH1JEJEQf+J1YYF1EgVblG5oFcH4PoEcNLRP5huo//MRRVIbwaUdEJDiT/cGJjWnoG0RMB9Kjhvm+I6OtiyjYJVwWxB9TRCQklX4vXrUuomAd+JRaQZzbg+hRQx13lXUJRfiX3lMtIrKSKxIc03B9IDEdTI8aYFf/pnUJBWvMh7QP5E8qIhKCQX4PFlsXUbCDeSKYc3pAQT3Kb85C6yIK1p4PaRzMn1VExNZY3zmh804C1GMU6wZzRg/k0jdAB3eydQlF+Iaj8eF86hERMTTPH5jgmIYLA4rpoHrUMNW3Y4p1EUW4gn8G9KcVEbFyrL/fuoQitOYr6gd0Ng+oRw2ruv9Yl1CUS3glpM89IiImbkx0TMMtQcV0YD1q8H4n3rUuogir8gHtgvoDi4iU1tu+B4usiyjCgTwZ2Fk8sKCGb/xmzLcuogjtGcqqgf2RRURKZbzfiknWRRShEaNoGdg5PKhL3wDt3XnWJRTlGw5hUWiffkRESmKePzDRMQ1XBhfTAfaoYZ7flO+siyjKX7gpuD+0iEj8jvEPWJdQlG14n4rgzt/B9aihrrsrsS++/MPN3BHe5x8RkZhdnfCYrsntAcZ0kEENO7sjrEso0pm8qagWkbLykv+HdQlFOpctAozpIC99A/zmN0z0E9WwGh/QNsg/uYhI9D71XZllXURR1mEkDYI8awfZo4bVE/2SDoDf2ZepYX4KEhGJ2C9+n4THNNweaEwHG9RwLN2sSyjSV+zHfEW1iKTePL8/462LKNKh7BloTAd76RvgW79pop+oBjiUR3DB/vFFRIrn/ZE8Yl1EkRozirWCPVcH26OGdu4C6xKK9hh9rUsQEYnVZYmPabgq4JgOukcNC3xnPrcuokiOezkm4B3Awij/EV8xhknMBqAhzVifjdiGdrr+IJIwj/ojCDlHctGFd4J8LOtPQQc1fOa3ZoF1EUWqxYv0CHgXKB3v3+Qxns8wb1ELenEYOymuRRJisN8t8bco6zMi8Hc0BB7U0NdfZl1C0RrxLpsGvRvEr9I/xFWMyulnN+SfHB7051sRARjluzDVuoii3cBZgZ9tgg/qhX4bRlgXUbR1eD/oOyBx+9Ifx8d5/cYW3F/2H25EwjbBb8c46yKK1pW3g+8WBB/UMMp3Yp51EUXbmHfL9q1aj/njmZP3b9XmNo4v0y0mEr6Zfkc+tS6iaPX5NAFTUwU86vtPHdxF1iVEYCR7MSf8T0UxeNAfWUBMwwJOoF9ZbjGR8C30B6UgpqFfAmI6ET1qWOR34CPrIiLQi6epmYCdIkpP+MNZXPBvO+7ihDLbYiLh8/447rcuIgI7MDj4y96QkKCGr/0WKbj8DSdxZwJ2iuh84ndkblEt1OQtupTVNhMJ30X+39YlRKABn7JBIs4uCQlquNonf/oTgEvpm4gdIwoTfGcmFN3KOnxKk7LZZlI6Y/1g3mMcPzGPxjRnW3aiayL6V9bu9KdYlxCJWzg9IX/txAR1pd+J96yLiMRN/CUhO0dxFvvdeDOSls7m+rLYYlIq4/2jPMJnVXxnA87gZOpqf8vgGX9wEbezwtGNQYmZsSExQQ3f+C2KvIwahho8xkEJ2T2KEd3FsTp8zbplsMWkFEb463mURRl+Yn1uYzftb9V41e+T+EmoABryeYLOKgkY9f2n9q6fdQmRWMwRvJKcz0cFGuT/E1lb87ndenUkFb703f2W9M8Y0/A9e3C+r0z9MVqIof7AVMQ0XJ2gmE5Ujxq834eB1kVEoh6vsGOCdpN8/e43ieDu9P+sxThqpHh7SfwW+X9wfZaIXlYvHmEV7XPL+cLvzO/WRUQiSZe9IWFBDZP9pvxiXUQkGvEGWyVoR8nP4f7RiFscxpap3VoSv9n+0Lw/5G/Ha4rqZXzvuzLRuohINOEzWifqL5ugS98Azdz9JGr7VmsGezIqWZ+ScvZs5DEN71uvlCTYLN+tgGtxQ9mXuSk9RvM3wfdISUzDHQmL6cQFNezuzrIuISJT2I0fUngamOJPjKHVr61XSxJrsT+0wAmT3uQIfAqP0fxN83vzg3URETmeQxIW0wkMaujH5tYlRORnujMhdaeBvzElhlbTccNDLJzLiwX/7jMk/+19xZvp90jFdKEAbbnBuoQCJDCo67hHqG9dRETG0INJqYrqt/2DsbSb/FfpiY0X/U1F/f7lDEjVEZq/2X4vPrQuIiK1EjpEMIFBDRu5a61LiMwoujMlNSeCBf404lmZ2tarJok0veg5tDwn8mNqjtD8zfX7pGSqKYDLEzqEN5FBDae43tYlROYLuvNbSk4E/fgqppbrWq+aJNJ5/FR0G9M5isUpOULztcAfFNH8giHoynnWJRQooUENd9DauoTIfEZ3fk/BieC7CCc5WdFa1isnCfStvy+Sdt7jKutVMbHAH8hL1kVEpgkPJXY2hsQG9aquPzWsi4jMp/RgauKj+rQY33C2nvXKSQJdlMcEJ5n15dPEH5/5Wuh7p2SCqT8k76Gs/0lsUMOO7nzrEiI0nJ7MSvSp4CE/KMbW21qvniTOKP9kZG0t5MQyu/y9yB/Oc9ZFROi4BD6U9T8JDmq4nB2tS4jQ++yR4Kie4f8aa/vbWq+gJM49kQ5s/ISbrVeohBb7Y4juY4699RP5UNb/JGwK0RVN8Fvyq3UREdqJgYl8eAAu8FfH2Pr6jE7kVhE7C3wrJkfaYn2+ZL2y2A8X+aN5xLqICNXi/YSO9v5TonvUsJZ7JEV3quEd9mBGAj87/Vjks6rZ7GS9gpI4gyKOaZjDudYrVRIL/eGpimm4MuExnfighm4uXTMHDaFbAkeAXxjjMDKAfaxXUBInjoeKnuXVxB2b+VrgD2GAdRGR2pt4b8uVQsIvfQN4v3+qBj3AFrzO6gn6BPiB3z6maU7+UIcpCb0hIHY6+eExtLoRn1ErxfviAt87ZWfT1gxP1Nm0aonvUYNz96Xs4Z0RiZqtzPtzY41p2EMxLXla7D+Lpd2vuN161WI01/dKWUzX4rEUxHQqghpWdY9Tx7qISH3KjkxMSFQ/ztCYl9DHehUlcSazOKaW+ybw1lRu5vh9eM26iIhdw3YpiOmUBDV0dtdZlxCxr+jOLwk4ISzwF8W8hNXY23olJXHie9va1JTOUjbT70GcMyFYOJgzUxHTqQlqOM0dZl1CxEaxMz8FH9U38H3MSzicOik52KR0GsTY9k0JOC7zNc3vzrvWRURsY+61LiEyKRhM9qfZfmtGWRcRsda8TruAY2qqb8O0WJfgGMlGAW8BCVOlb8Ts2Fo/hdtTtU/+mqL3Tf+pIR+m6MyRmh41NHDP0Mi6iIiNoysjAv4sdW3MMQ09UnSwSelUuN1ibP2/fBPwUZmvsb5r6mK6gkdSdeZIUVBDO3c3KfrbADCJbrwX6Enht5inOQH4i/VKSkLtH2Pbi0jP7A0j/Q58Z11E5C6hZ6qiIFVBDb3d361LiNw0duflIKP6KmbGvIQO7GW9kpJQ+1A/xtYf57Mgj8l8feJ35mfrIiLXi4utS4hYyoIa/kVP6xIiN4f9eCy408JkH/8TpZdQkarPxVI6jd3hMbZeyT+sVzACb/hdmGJdROQ60D91543UBXWFe4SNrYuI3AIO58bAovpKZsW8hI042HolJcFOj7X1l3g7sCMyX8/7nrEfw6W3Os/ROGUxncKghobuaZpYFxE5zzn8J6ATw0R/Z+zLUH9airG5i/flqHHPIBCv+/wBMc/Qb6EOz7FBCs8aKQxqaOeeSNU7tf7g+Qcn+kWBhPUVzI15CRvR23olJeFOjbX1IbwUyNGYvxv98bHN3WbHcTc7pDCmU/Uc9fL+z59vXUIs9uUR6pvviuN8O+bHvIxHOMx8PSXZ5vvWTIqx/a35MIH76GJ/BndYFxGLi7k8gX+PXKSyRw1wnjvWuoRYPEc3Jpt/uro29pjeiEOsV1ISr447Jtb2P+Id82MxX7P9fimN6QPpa11CbFLbo4Z5fic+si4iFuvzMm0NPzlO9a1jH4Si/rREYYxvF+sl3j15KVH76W9+H963LiIWnRgcwLXGuKS2Rw113bO0tC4iFt/TlWGGn7DuiD2mt1B/WiLRxh0Ya/svMzxBfZ3v/XYpjem1eC7FMZ3qoIYWbkDKXn/5p1/ZiReNThAL/W2xL+MGjfeWiPwj5tkKr7FewZx96LdL4RxkAKvwEi1TfcZI8aXvP9znj7MuISY1uZPjDHbO+33cd/8PYkCqD7p4zPefMJIfmEYlTWjFxnSmobYjsJd/OcbWa/B1Ih4IesYfEfuTGjZq8Ay9EvAXKEbqgxr+6a+0LiE2Z3J9yfuem/vPYm2/NiMTceILx3z/DA/xFnNW+HotduBQDqNRmW/Nd/2OsbZ/KrcFv4Vv9OdSaV1ETK7jnOC3f7HKIKi978ND1kXEZi8eLemJ+BW/Z8xLOJ+rUn/YRWe2v4VrmZzhJxpwKufTrKy3aVf/Xoyt1+EHWgS8fRf4k7nfuojYHMc9AW/7qJRBUMM8350h1kXEZguep1XJdtXd/Ouxtt+cb1M4AWBcnvRnMjGHn2vEvzmtjO/7v+jjfQPA37ky2G07xR/IYOsiYrMbA6kV7LaPTlkENfzmt+db6yJi04Ln6FySnfVbvyHx7jF3cHIZHHZRmOVP4PE8fr4rjwfd74vXln5EjK03YixNgty23/lefGNdRGw68VaZjMNI9ajv/1ndvUQz6yJiM5Edebgkn7jujjmmO3B8KVYjBX702+YV0/Aunfi4PD6XV+G8WFufwV3WK1il1/3WKY7p9XmxTGK6bHrUAO/57rHPp2XHcT7/wcW62y7wrTLeDS3ea/QokwOvOD/6bvxQwO+twvPsUpZbeLFvz/cxtt+KMcFdgr3Ln8FC6yJi04z3aBfYFo9PmfSoAbq4e2J+otKS5yqOZG6sn7uejzmmD1RM52S071JQTMMs9uG98vlsvowaLt53Xf3Ek9aruJyF/gx/copjuiGvlFFMl1WPGuByf6l1CbHanKdZL7bd9yD/VIy112cU64bPERYAABtzSURBVJTRoVeosX5nfizi9xvwEjuW4XZe7DvydYztb8XHwWzVKf4Q3rQuIka1eIHdg9napVBGPWqAiznauoRYfUpnBsX02WuWfynW2i9XTOdgqt+lqJiG2ezDd+X1+RyAGu7iWNv/hKGBbNXhfqtUx7Tjv2UW02UX1M7dza7WRcTqN/bgqlhOGC/GOq/RJpwVY+tp4f3xBV70XtZ0DmROIKFSSoeyaazt32i9ggA85Lsw1rqIWF1LnzKL6bILaqjlBtDRuohYLeZCjvTRn4hfi7Fmx83ULLuDL3938Ewk7XzBP6xXxUBFzPepn2Kc8cefBf40f1RKJwr90/llMA/ZysrsHvUfJvgdirx8GL7NeCbiu9VtfPF9ueocz3/L8ODL1xy/bmTD+WrxLeuW3Tb3fks+jbH9C+hnuE0n+968bbf4kjich2J+tiVMZdejBljLvc4a1kXE7DM683qEn8J+jTGmV6dfCbZI8j0a4aj7hdxhvToGnOsba/t3Mcus5zPMb5X6mN6V+8oypss0qGEDN5BVrIuI2W/sSV9fGdGJI867XlfRtCwPvnw9H2lrz1mvjol93dYxtj6VB43W6y6/PeOMll0qnXmW2mV6pijToIat3HMpfVf1/yzmMnbj10iiempsVW5P3K/NTIfF/t1I2/uaCeV434u+sbZ+i8EazfSH+pNZYLDkUtqAF1ilTGO6jIMaurn7ymD132BrPojghNwkpvrqclcZvywiH59G/mHpbetVMrGn2z7G1r8q+YQyn/pOeU4mm0SteJ01yvg8kf6kyuAwZ/H5t9TG0ZWrvC/y9LFaTNVdxcZlfPjl49MEtJgM8Y6IuLek6/Kg34HvSrpEC814tQyHPi6rrIMaTnX/tC6hBBZxIfsxtaioXpvaMVS2C2cYbZPkiX6UQNrvaVanq+sVY+tPMKNEfeq5/kR/NHNKszBDjXmFDmUd02Uf1HCF+4t1CSXxPFvwYREnkLpui8hrasR9uuyds+iDOt3TYmRyNTVja3t2iS5Ef+O34b8lWZKt+gxky7I/S5R9UMP17G9dQkmMZWduLeIS+A6RV3S9Jg3Ng4I6Ohu6Y2Js/Z4SrMH9vhNflGA51uoxkC46S5TnhCcrWuB78rp1ESWyGw+wZkE7/kd+m0gr6cXzOgDz0N5/G3GLFSws2ysaE3w7ZsfW+qdsFuN2neFP4+H4mg9ILZ6mZ5nuoctTjxqo7Z6ks3URJfIanQp8bcfWbrMI62jKXdabImFmRN5iZYxRFbq1XJxzy98fY9tD/KZlEtM1eFgxvYSCGoBG7jW2tC6iRCawG2f5BQWEdZSnttsL7NeXr1kxtDnTeqUMXRjj7IRPUOxTFlVb7K/yu5TJLQvHHRysc8QSCuolmrhX2Ni6iBLx3MT2fJv3qeRoOkVUwZkcpEMwL97HMbo3jvBPioYuvheTTODjGFod53fhQhbGt0mCcg0n6ByxlIJ6qWbuDTa0LqJkhrE5N+YZ1RXuOmpEsOztucZ69RNnNpUxtFrOPWo4hTaxtf1y5C0+5Tcn2rnpQvYfzlVML0NBvYw13KusY11EyczlbA71v+cV1ju6i4te7ho8QS0dhHmKJ1LLO6hruytja/vTSFub7o/xB8U4jW9o/smFOkMsR0G9nNbunTKKanicDjyfV1RfTM+illiTx2mpgzBv82NpdZ71ahnrTZeYWo7yI9B7vhMPlGJzBOIMrtAZYgUK6hWs415nTesiSuhX9qWPn5lzWFe4p9i7iOVdxU46CAuwOJZW47icniTO3RzJzZyVRXUOmesv9Dvxfek2ibmjudG6hAApqFfS1r3G6tZFlFR/NmNwzlFd2w3gwAKXdDjnWK9sQsUTqeUe1LC5OzGWdqO5LveB35yryuqvdDj3lO2z/ZkoqKuwiRvEqtZFlNQP7MzJfk6OYV3PDeCGAiZh7M69Zfra9+IpqOPy71g+lncvuoWF/iq/I1FPchO23jxADZ0hqqCgrtLm7iUaWhdRUp672IqPc4xq585yQ/OcJGYPnqWODsICKajjsprrG3mbjSj2VZpf+m3L6FGsP/TmYWrqDFElBXU1tnXPU9+6iBL7iu35p5+XY1hv5T7gHtrn9LNr0o+BNNBBWDAFdXxOJco59wBOLuoj6QJ/ue/EcNNtUnqH84hiuloK6mrt7F4ts141LOJKOvJWjlFd4Y5zo3iOgzJ8pKnJLtzPj1zgdEmrGArq+NRwN0TaXp2i5vAb4bfjUhaYbpHS00XvzPRSjoyG+L1imGM5dI4T+T8a5XHYzPVv8gnD+Z4p/EYFDViVtnSkE3uwqg6/CHzmN4+h1cfprb8OAL39gMjauoJ/FrhV5/rLuCamEf4h00XvbBTUWXzidyujiQb+Zy1uZT8dOsEY4eOYi/5RDtXfGIDxfuOInn3egg8LnNBnsD+xzAaP/UExnZ0ufWexlXud1ayLMDCB/entJ+tzXCDiuUhdfn236qztroiknRY8XVBMT/Mn+50V01INBXVWndxrZRnVMICNeURRHQTdo47b6RT/vvVGDGTdAkLnCb8hd1GOh5qGkOVGQZ2DTu4NmloXYWIyR7CL/6oczyCBUVDHrYa7i9pFtbAmb7Nl3qEzxu/lD+FX69U3oSFkuVJQ52RzN5gW1kUYeZvNOMvPVlibUlDHb1N3WRG/vRlD2CLP0Fnor/Ibx/CmrWTQRe/cKahztJF7k7WsizCykJvYlJcV1YYU1KVwPjsV9HuOk3ifNnmGztt+My4s2xejKKbzoaDO2YbuTVpaF2FmDHvRy49TWBtRUJdChbuvgAlFO/Eud7r6eYXOL76P34WvrFfYjGI6PwrqPLQv66iGgXTker9IYW1Ab88qjfXc43nNYt+RB/iIHfKKnMX+Jt+e/tarauhoDSHLk4I6L+3cu6xvXYShmZzLlrypqC45PZ5VKru6/tTL4efqcgCv8Dl9XH5ve3rHb8VZZTiN0v+czn0aQpYnBXWe1nND2Ny6CFNfsCu9/BiFdQroj1iVQ91XXM+u1Y4BX5+jeYhfecrt7vJ7G9xPvo/fhU+tV9DUBdyS51YTzUxWkGm+J0OsizBWm1P4V17TjEox3vLdYmj1Nk7VX7BaC/3XfME4pjENT2PqsC4bsCFrFLTN5viruZq51itl7AL6aY8rgIK6IHP8gbxiXYS5FvTlBL3mvSTe8TvH0OodnKy/Xgl4/yTnMda6DGOOazlH+1tBdOm7IPXdc/S2LsLcRE5mG97XZ70SiOdA1eFfCsN8V3qXfUzX4G7FdMF0pBaotnuEE62LCMAndOFIP1ZhHTMFdTKN9X381mV/owxq8TDHK6YLpiO1YDXcnVxgXUQAPA/TjpP1Ao9YKaiTZ6q/0G9Ifz0ERx2e4BDFdBF0pBbBuX7uBrT/wQLuoj1X+XkK65jEc6DWsF6t1Frg7/Ltuaps5x1bVgNe0Ctzi6SgLtJZ7r68JkhIr6lcSFvu8osV1jFQjzo5vB/gN+JkJlsXEoQmvEYPxXSRdKQW7Wj3cJFv3UmPnziZzgxSVEdOQZ0Ug/xW9GaMdRmBaMZbbK+YLpqO1Aj0di/T2LqIYIygB939UIV1pBTUSTDU9/A9GG5dRjBa8g6bK6YjoCM1Et3ce6xtXURA3mB79vbDFNaRiedusg7/6Azze/vtGWRdRkDa8S4bKaYjoSM1Ih3dh2xhXURQXmIrevgRCutIqEcdspG+t+/MS9ZlBKUz77GeYjoiOlIj08INZk/rIgIziE709l8rrIumoA7V176P34wBmjd9OT14g2aK6cjoSI3QKu45jrYuIjCeAXTkGD9a57Gi6PGsEH3nj/Yd6a+3kK3geF6ioWI6QgrqSNVy93GpdRHBWcwDtKeXH66wLph61KEZ6fv4DjyokF7JBdytt01HTEdqxJzr6+6jlnUZwalkIFvRy3+ksC6Igjokn/k+fjP6s8i6kODU4Hb66TWWkdORGoNj3Is0si4iQJ6BbEMX/6bCOm8K6lAM8b38FrrcXaU6PMYpCukY6EiNRQ/3Hq2siwjUEHali39BYZ0XPZ4Vgvd8L9+FgRo4VqVVGcRBiulY6EiNySbuXTa2LiJYQ9iHbfwTmm40Z/ViabW+9WolxiL/uO/suzLQupBgrcv7dFFMx0RBHZt13Qfsa11EwD7iEDbgKj9dYZ2DhglqNW1m+bv8xhzKJ9aFBKwj77KhYjo2TmfJOHl/GZdZFxG4RhzDebTSQZ5FLR/90KXv2EDbPaNf/e3czO/WZQRuF56hsfakGCmoY3e/P4X51kUErg6H81c21qGeQRM/PfI2f2ENbfNqfeGv5VEWWJcRvD7cTW3tR7FSUJfAEH8Ak6yLCJ5jN/7CnlTokK9SK/9z5G3Opr62dhUq/YvczCANGsvK8W/+rn0odgrqkvjJ76t36uSkDSdxAqvr0F9JRz8y4hZrMR898bqi6f5xrudr6zISoS73cLj2oBLQYLKSaOXeYT/rIhJhDBfSij7+c32CXEH0j/u1Ukyv4Gt/lm/JyYrpnLRgsGK6RBTUJbKKe5pL0V6di3n0ZzO28g/6hYrrpdaJvMXW1qsUkEr/gu/hO3ATs61LSYhN+YDOOqGViIK6ZJzr6x6krnUZiTGMo2nDpX6swhqII1ajj/5k+tFf7Fuzj+5J5+EghtBaMV0yCuqSOtK9xZrWRSTIT1xOG/b0T6tvzbqRt6igXuAH+N39+lxB9AP10quCK3iCVRTTJaTBZCU3yR/KW9ZFJM4aHMKJdCzjk8No3zbiFgeydxlvz2/9vdynpzHy1pAH2a+M9xsbCmoDC/1fudm6iARy7MwJ7E+9Mj1NrOPHRdhaTX6jUVluyTn+Kf7Lu7rQXYD2PKsZyAwoqI087E9ijnURidSYg+lDlzIcsdzH94+wtW34oOy2YKUfzIM8yUzrQhKqJw9pBjITCmozX/sD+Mq6iMRam8M5nrZlddJ40feMsLUbOKustt43/lH6M8a6jMSqwUVcoumIjCioDc3wx/K0dRGJ1omjOIKmZXLyqPSbMCqitlZjTNn0jab5J3iQ93WpuwjNeJgeZbK/hEhBbcr7K+hLpXUZiVaHvTiEnjQog9PI6373iOLmVk4rg+0107/A47yi+bqL1IXHWasM9pdwKajNveUP1djTotWlOwdzYOrj+u++XwSt7MOzKb/HP8+/zgCeYZZ1IYnn+AvXUCvVe0v4FNQBGO8P4iPrIlKhHrtyMAel+FUTi/yeDCqyjY0YmuLL3n9E9LMaMBaJhtzDwandV5JDQR2Eef507rUuIjWasC/70yOlcT3H9yzqOfy2vJ3Sy5iz/Ss8w/OK6MhswRN6Y3kQFNTBeNKfyDTrIlKkHrvSi31YM3Unmll+T94r8HfX521apW6L/OZfZCAv60J3pI7izrKdsyA0CuqA/OgP4wPrIlKmBtvSi/1pl6oTzhy/P68V8Hsb8TotU7UlfvTPMZC3WWRdSMo05i56p2pPSTYFdVDm+/O5WY+RxGALerIXnamRkpPPfH8yD+T5Oz14jNVSsv6L/Ae8zAt8YV1IKm3Po3rlRlAU1MF53h/Hb9ZFpNRq7Ep39k5Jr/Iuf27OL2Wsyd+5NBUfUyb5d3iBgUy1LiSlNMo7RArqAP3kj2CwdRGp1oFedGenxJ+OxvozGJjDz23DHWye8HVd7D/lBQYyXFecYtSMB9gz4XtKGimog7TIX8aVmgglZquyC93oxkaJPjG976/kFRZX+/3tuZCeCX5q2vuRvMGbvM0M61JSb0/uTeHgyzRQUAfrbX8EE6yLKAtrsCPd2Y11E3uK+sk/xuu8v9yo5zp0pge9E/yuowl+CIN4iZ+sCykLdenLeZrLO1AK6oBN8kfzinURZWQDdmVnuiT28SXvxzKOGVTSkFa0Sewd6bH+Xd7mDX60LqSMbMbDbJzQ/aUcKKiD5v1N/J251mWUmXXowg50pYP6FyW02H/Bu7zPu/xsXUqZqeAc/k0d7esBU1AH7yvfh0+siyhLTdiB7elKp5TOcRaGWf5j3uV93teMYiZa8gC7av8OnII6ARb6K7hSUzqYqcnGdGZrOtORmjqlRWKh/5yP+JiP+SrDQDiJW29uT82z9WmmoE6Ij3wfvrEuouzVZws605nObJDgcdR2Kv23fMzHfMynzLMupuytxq0cqr04ERTUiTHXX8b/6ZGtQNRmAzrRiY3ZgtV1sstohv+OkQxjGJ/mPEGLxG0P/puSiX/KgYI6UV73x+lhlcA42rAZm7IJHVg/8VOoRGWB/5av+ZzP+ZwfrIuRFTTiOo7XnpogCuqEme7P5y7rIqQaNWlNGzqwMR3YlEZldiqc7kczhpGMYiTfakxFsHbgAdYvs30z6RTUCfSEP02zgSfA2mxAm6X/NE3hqXGSH8Of/3zLROtyJKv69OMMja9IHAV1Iv3iT+dp6yIkL42WBPbatGYt1maNxD2lvdj/wnh+5ifG8gNjGKP3PydMN+5SXzqRFNSJ9bQ/Q32YBKtFC9amFS1Zm2Y0Zw2a0iyYe9zz/RQm8wtTmMw4fuZnxvGLLmcnWGP+jxPUl04oBXWCTfN/4169SyhVVqU5zWhKM1ajMY1pssz/j/qe93Q/nWlM53///3emMJkp/KIXYKTMPtymMd4JpqBOuDf9SXxvXYSUSANq04gaNKGCJtSkIVCbBku+W0HjZX522tKPcLNYCEynkqlUMp2FzGI+c6xXRkqkGTfpeemEU1An3lx/FVey0LoMEQnQwdxKM8V0wimoU+Ezf4LmAxeR5azHreypkE6BCusCJAqbuaH0o651GSISiJqcyeeK6ZRQjzpFvvEnMdi6CBExtwN30FEhnRrqUadIe/eOe4I1rMsQEUNNuIHBiulUUY86dab5S7lVrw4UKUs9uUMPYqWOgjqVPvWnMdS6CBEpqXbcxO4K6RTSpe9U2twN4QGaWZchIiXSgEv5QjGdUupRp9gUfyH36Q3WIinnOIKraaGQTi0FdcoN92fxnnURIhKbzbiZrgrpVNOl75Tb0g3mIVpalyEiMViVm/hEMZ166lGXhTn+aq5innUZIhKZCo7gGporpMuAgrps/OT/QX/rIkQkErtyHZsqpMuEgrqsvOn/yqfWRYhIUdpzDT0V0mVEQV1mvH+S8/nRugwRKUgTLuRs6iimy4qCugzN8ddzFTOtyxCRvNTiZPqyukK67Cioy9Rv/nJuY5F1GSKSo55cR1uFdFlSUJexb/zFDLAuQkSy2o6r6aKQLlsK6jI32P+d962LEJFqdaQfeyuky5omPClzO7oh7nk2sS5DRKrQinv5VDFd9tSjFqDSP8U/GG1dhogstTrncSb1FNKioJY/LfT3cRkTrMsQERpyGn+nsUJaAAW1LGe2v5lr+M26DJEy1oAzOY9VFdKylIJaVjDL38rV/G5dhkgZqs0x9NULK2UFCmqpwgx/Azcw1boMkTJSh+P4O2srpGUlCmqpxkx/G1cprEVKoDbHcDGtFNJSJQW1ZDDNX8+NTLcuQyTF6nEi59NSIS3VUlBLFjP9vVzFROsyRFKoDkdziUJaslBQSw5m+7u5hp+tyxBJkYaczN9YQyEtWSmoJUcL/GP8m2+tyxBJgaaczpmsppCWnCioJQ+L/GP0Y6R1GSIJ1pq/cgL1FdKSMwW15Mn7N7iRgdZliCTQ+vyFU6ijkJa8KKilIB/5a3iaxdZliCTGDvyVfalQSEveFNRSsB/8DdzDbOsyRAJXwV5cyA6KaCmQglqKMsXfxq1Msi5DJFANOZ6zWFchLUVQUEvRFvjnuI4PrMsQCUwLTtLYbomAgloiMtjfxLO6ay0CwA78hQOopZCWCCioJUIT/F3cotdkSlmrwz6cw3aKaImMgloiNtv351a+tC5DxEBrTuUEmiqkJVIKaonFu/4OnmK+dRkiJbMzZ7AfNRTSEjkFtcRmmn+AmxhjXYZIzBpzCGewiSJaYqKgllhV+je5i2dYZF2ISCw6cRJHakJQiZWCWkpgnL+P+xhrXYZIhJpwFCezsSJaYqeglhKp9IO4h+d031oSz9GV4+hNPYW0lISCWkpqmn+C2/nUugyRAq3FUZzABopoKSEFtRj40N/LE0yzLkMkD3XYl2PpoXHdUnIKajEyz79Af15hoXUhIll14miO0GSgYkRBLaam+gE8yBDrMkSqsTb7cyybK6LFkIJaAvCV788jGhUuQVmd3hzB9jiFtBhTUEsgvB/KYwzgF+tCpOzVpydHsAe1FdESBAW1BKXSv88AHtMbrsVEXbpzMPvTUBEtAVFQS4AW+Nd4jBeYYV2IlI067MYh9KKRIlqCo6CWYM33r/M0z/G7dSGSanXYld7sSxNFtARKQS2BW+yHMoAnmWBdiKROfbpxMPvSWBEtQVNQSyJU+iE8zXP8YF2IpEIz9mU/ulNHES0JoKCWRPnSv8DzfESldSGSUG3pxb7soPnFJEEU1JJAU/xbvMBzGmwmOavBtvSiO50U0JI4CmpJrHn+LV7iFUZbFyJBa8qe9GR33YmWxFJQS+KN9q/yCm8x27oQCUoNtmE3dqezLnNLwimoJSXm+3d5lVf40roQMbcuu9ODXfXAlaSEglpSZqJ/kzd4g3HWhUjJNWFHerAb7RTQkioKakmpMX4Q7/GGnr8uA/XZnu7swDbUUkRLCimoJdUq/ee8w2De0+zhKVSP7diFXdiGmgpoSTEFtZSJMf49hjCIMdaFSNEasTU70IUu1FVASxlQUEuZGeffYShD+YLF1qVIntajC13owkZ6R7SUFQW1lKnZfgTDGMI7uigeuAZsTic6sSPrKp6lLCmopeyN9h/wMcMYwRzrUmSpCjZiG7ZlGzbWc9BS5hTUIkss9l8zjGGKbEM1aUcnOrExW7Ka4lkEUFCLVGGRH8UIPuczPmOKdTFloD4bswVbsiWbaHiYyEoU1CIZTfB/BPbnfMMi62JSpAZt2JRN6MhmtKFC8SxSLQW1SI4W+O/4iq8Yxdd8zTzrchKoJuvRgfZsyCZ0oL7CWSQnCmqRAiz2PzKKr/mO0XzHz+g4qs6qbEB7NqI9G7EBtRXOInlTUIsUba7/jtGM5jtG8yM/lfkl8jVZnw2W/p+GhIkUS0EtErFF/md+ZCw/MJYfGcvPzLcuKUY1WYvWrEvrJf+sSwNFs0ikFNQisZvkJ/ITPzOBn5jIOCYzmUrrogqyGi1oyZq0XPK/a9NC82yLxExBLWKg0k9mCpOZyGSm8CtTmMrvTOV3ZlmXBtSmCU1oSlOasgZNaUozmtGc5np4SsSAglokKAv9H5E9nZlMZzZzmM5MZjObaSxmBp5pwHQqmcXCPNqtSz2gMRXUpCF1qUcT6lKfxtSlAY1oyKo0WfKPLl6LhERBLZJoC/3/+uCLmAk4miz3ExU0VvCKJNj/A7Lx0ziWZXe6AAAAJXRFWHRkYXRlOmNyZWF0ZQAyMDIxLTAzLTI1VDIwOjA4OjM2KzAwOjAwCWF/ygAAACV0RVh0ZGF0ZTptb2RpZnkAMjAxNi0wNC0yNFQxMDo0MzoyMyswMDowMCWcWEYAAAAASUVORK5CYII=" vertex="1" parent="Y_pHUTL9zJ1j55iuGQUV-3">
          <mxGeometry x="393.28999999999996" y="84.5" width="40.92" height="41" as="geometry" />
        </mxCell>
        <mxCell id="H--HfnbZHBEuk7Bjk80q-75" value="Ожидать" style="text;html=1;strokeColor=none;fillColor=none;align=center;verticalAlign=middle;whiteSpace=wrap;rounded=0;fontColor=#001847;fontFamily=Comic Sans MS;fontStyle=1" vertex="1" parent="Y_pHUTL9zJ1j55iuGQUV-3">
          <mxGeometry x="383.75" y="130" width="60" height="30" as="geometry" />
        </mxCell>
        <mxCell id="H--HfnbZHBEuk7Bjk80q-78" value="Звонок из турагенства" style="text;html=1;strokeColor=none;fillColor=none;align=center;verticalAlign=middle;whiteSpace=wrap;rounded=0;fontColor=#001847;fontFamily=Comic Sans MS;fontStyle=1" vertex="1" parent="Y_pHUTL9zJ1j55iuGQUV-3">
          <mxGeometry x="420" y="174.37" width="170" height="40" as="geometry" />
        </mxCell>
        <mxCell id="H--HfnbZHBEuk7Bjk80q-117" value="" style="ellipse;whiteSpace=wrap;html=1;aspect=fixed;strokeColor=#001847;fillColor=#FFF2F4;strokeWidth=4;" vertex="1" parent="Y_pHUTL9zJ1j55iuGQUV-3">
          <mxGeometry x="1536.25" y="116.87" width="47.5" height="47.5" as="geometry" />
        </mxCell>
        <mxCell id="H--HfnbZHBEuk7Bjk80q-118" value="&lt;font face=&quot;Comic Sans MS&quot;&gt;&lt;b&gt;Желание отдохнуть в Европе не удовлетворено&lt;/b&gt;&lt;/font&gt;" style="text;html=1;strokeColor=none;fillColor=none;align=center;verticalAlign=middle;whiteSpace=wrap;rounded=0;fontColor=#001847;" vertex="1" parent="Y_pHUTL9zJ1j55iuGQUV-3">
          <mxGeometry x="1590" y="111.25" width="120" height="88.75" as="geometry" />
        </mxCell>
        <mxCell id="H--HfnbZHBEuk7Bjk80q-144" style="edgeStyle=orthogonalEdgeStyle;rounded=0;orthogonalLoop=1;jettySize=auto;html=1;exitX=1;exitY=0.5;exitDx=0;exitDy=0;strokeColor=#001847;strokeWidth=2;entryX=0;entryY=0.5;entryDx=0;entryDy=0;" edge="1" parent="Y_pHUTL9zJ1j55iuGQUV-3" source="H--HfnbZHBEuk7Bjk80q-120" target="H--HfnbZHBEuk7Bjk80q-139">
          <mxGeometry relative="1" as="geometry">
            <mxPoint x="1850" y="105.96296296296293" as="targetPoint" />
          </mxGeometry>
        </mxCell>
        <mxCell id="H--HfnbZHBEuk7Bjk80q-120" value="" style="ellipse;whiteSpace=wrap;html=1;aspect=fixed;strokeColor=#001847;fillColor=#FFF2F4;strokeWidth=2;" vertex="1" parent="Y_pHUTL9zJ1j55iuGQUV-3">
          <mxGeometry x="1326.25" y="82.5" width="47.5" height="47.5" as="geometry" />
        </mxCell>
        <mxCell id="H--HfnbZHBEuk7Bjk80q-121" value="" style="shape=image;verticalLabelPosition=bottom;verticalAlign=top;imageAspect=0;aspect=fixed;image=data:image/png,iVBORw0KGgoAAAANSUhEUgAAA9QAAAPWCAQAAACrFRgEAAAABGdBTUEAALGPC/xhBQAAACBjSFJNAAB6JgAAgIQAAPoAAACA6AAAdTAAAOpgAAA6mAAAF3CculE8AAAAAmJLR0QA/4ePzL8AAAAJcEhZcwAAAGAAAABgAPBrQs8AAAAHdElNRQflAxoGDg0W5sA7AACAAElEQVR42u3dd7zVVLrG8d86dJCiAoogKgooYkWsYEGwgl3s2Ltjm7HMjAUdx0GvvZexYscudmwoYgNsYEMUUFBA6R3Oun+IDOWcXZP9rmQ/Xz/3jp6y8iYnybNXsrLiPCKSVIv8zGX+ax5zl/mv+tQBoCE1nXWdIlI4p6AWCckC/zu/8zvTmc00ZjGb2UxjNrOZyXQqmckiFjETmMXCvFpugqM+dWhELRpTh/o0oDZNaEATGi/zf6sq1kWCoqAWMTHNT2QSE5jEJKbw+9J/ZlkXBjSmCc1pRlOa0pzmNKUpzViDhopwEQMKapHYzfVjGc9PjGMif8bzPOuiCtCAVrSgFWvRkpa0oBVrUlvhLRIzBbVI5Kb77/meHxnPWMYzninWBcWoBeux7tJ/1lFwi0ROQS0SgV/8d3zP94zhe75PdTBnVsFarEsb2tKOtrSjgWJbpGgKapGCLPJjGMU3fM1XfMM063IC1XJJYLejPW00+lykIApqkZwt9t/zOV/wJV8xOs8x11KbjehARzamI+tRodAWyZGCWiSL3/xnfMEXfMYo5lgXkxL16MDGbMxmbEFzRbZIRgpqkSpN9MMYxnCG8bN1KSnXki2W/LOuIlukCgpqkWX87P8I52FMtC6lDK3KFmxBJ7ahjSJbZCkFtQgL/ee8xzCGMcq6FAGgMZ3ZgU5sR1NFtpQ9BbWUsR/8UD7kA0ZoYFigHO3Zmq3Zjs2oociWMqWgljI0xg/iPQYz1roQyVkDNqcL3dmBegpsKTMKaikbi/xnvMcQ3uQ361KkYDXZjB3owi66KC5lQ0EtqbfYD+MN3mCoHq5KEcfGdGNXdqSJAltSTkEtKTbGD2IQg5hqXYjEpgabswNd2J1GCmxJKQW1pNAE/ypv8KYesSojtdmGbnRnW01UKqmjoJYUWeQ/4wUGMhzt1+WqAbvQiz1orbiW1FBQSyr84F9nEK8x3boQCUQbutOT3aijwJbEU1BLoi3yg3mBF/nOuhAJUgO6sRc9aaW4lgRTUEtCzfZvMoCBGigmOehAL3qyA06BLQmkoJbE+cG/zgu8xgLrQiRhmrM7B+tyuCSOgloS5HP/NE/xpXUZkmirsDv70YvGimtJCAW1JMJIP4DH+dq6DEmNGmzLwRymt2FLAiioJWiV/n0G8hSjrQuRVPojrg9hTcW1BExBLYHy/gMeY4AmLZHY1WAnDuIgmimuJUgKagnQSD+Ah9WLlpKqwbb04VBNRSrBUVBLUH70j/MAX1mXIWWrLt05mIOor7iWYCioJRC/+kfpz3DrMkSAJuzP4exCDcW1BEBBLebm+ud4iFdZZF2IyHJacATHsLHCWowpqMXUMP8gD/ObdRki1epAH47TQDMxpKAWI2P8/TzIWOsyRHJQh54czZ56haaYUFBLyc3zz3APb+pVlJIwa3AEx+lSuJScglpKapR/kHuYYl2GSME6cRJH0EBxLSWjoJYSme4f5R4+sS5DJAJNOJIT2VRhLSWhoJYSGObv4mFmW5chEqlOnMThrKK4lpgpqCVWc/1j3M7H1mWIxKQRR3AaHRXWEiMFtcTmO38P/9WjV1IGOnEmh1FLcS2xUFBLDBb5Z7mdtzSuW8pIK07hRL02U2KgoJaITff3c72ej5ayVJt9OYnuCmuJlIJaIjTS38RDzLEuQ8RUZ87kEF0Il8goqCUSlf5NbuRFXewWAWBNTuZMVlNYSwQU1FK0Wf5ebtbbo0VWsArHchbrK6ylSApqKcokfxu3aGS3SDUq2IuzdNdaiqKgloKN8tfyMPOtyxAJ3jb8lQOpUFxLQRTUUpD3/FW6Iy2ShzacycnUVVhL3hTUkqdK/xRXMcy6DJEEask5nKxJRyVPCmrJw0L/KP34yroMkQRrxDH8nTUV1pIzBbXkaL5/nH9pbLdIBBpwPH9jbYW15ERBLTmY5e/haiZYlyGSIrU4lEvYQGEtWSmoJYvf/Q3cwlTrMkRSqBZH8w/WU1hLRgpqyWCGv51+TLMuQyTFanEoF9NWYS3VUlBLNWb62xTSIiVRi0O5iHYKa6mSglqq8Lu/npuYYV2GSBmpyZFcTBuFtaxEQS0rmOqv50aFtIiB2hzPRaylsJblKKhlGbP9LbrcLWKqNsdwOWsorGUpBbUssdDfR18mWpchIqzC6fydxgprARTUAvwxLejf+d66DBFZanXO40zqKaxFQS3eP8NFmhZUJECt6Msx1FBYlzkFdZl7y1/Ax9ZFiEi1OnIVeymqy1qFdQFi52vf23dTTIsE7Uv2Zlc/XH2qMqYedZma4C/jXhZZlyEiOXEcRD89ZV2mFNRlaLa/hX8z07oMEclLbY7hCpoprMuOgrrMLPL/pS+/WpchIgVZjb6cSk2FdVlRUJeVN/w5fGFdhIgUpT3XsreiuoxoMFnZ+M739t0V0yKJ9w096eFHqZdVNtSjLguz/DX0Y751GSISmVqcyuWavawsKKhTr9I/xPm6Ky2SQqtzMWdoQpTUU1Cn3Dv+bD61LkJEYrMlt7KtojrVdI86xSb6Pn4XxbRIqg1ne/r4SepzpZiCOqUW+Rv9hvRHR69I2nn6syE3+sU63FNKl75TabA/Q+O7RcqMLoKnlXrUqfOL7+N3VkyLlJ3h7EAfP0W9r9RRUKfKIn+9b68L3iJlqpL+dOB+73UKSBVd+k6RT/1JeheWiNCVu9hQF8FTQz3qlJjjL/RbKaZFBHiXLejr56sflhLqUafCQH8GY62LEJGgdOQutlO/OgXUo068ib6P76WYFpEVfMkOnOxnqDeWeOpRJ1qlv51/MMO6DIlVLRrTmCY0oTE1aEwF9alDbRrgaAI0pGaG317AbCqZDkynktksYD5zWMB0ZjCNaUxnsfUKSqxacgv7qV+daArqBPvGn8B71kVIRJrRjGa0oDnNaMZqNF76T/2YT7Kz/AymM50ZTGcqk5nMZCYwmclMst4oEpEDuZU1FNaJpaBOqEX+Oi5lnnUZUpCmtKY167A2zWlGC5rRjFoBnkYX+clMZiKTmMxP/MQ4xvGLHv5LpKbcxGEB7mOSCwV1In3hj+MT6yIkRzVZm7VZh3VoTWtasy71EnzCnO/HM55x/Mh4xjGescy1LklytB+3s2aC973ypaBOnIX+Oi7Vu6UDtypt6MDGtKENG8V+8drWVD+GkYxiDGMYpdgOWhOu4qRU743ppKBOmE/8cZoeNEi12YgOtKcd7WhLozI9GS70P/It3/Ad3/I1E6zLkSr04g7WKtP9M6kU1AmywF/OVSyyLkOWsRabLvlnwyDvMtv63X/JSD5nFF8w1boYWaoJN3C09tYEUVAnxhe+j94tHYTabMJmbMKmbMbqOt3l6Gf/OSMYwQjGaDhaAPblLppr700IBXUiLPbXconuS5uqoD2d2ZrObE5tneCKMN1/yghG8AlfU2ldTBlrzt3soz05ERTUCfCDP5Z3rIsoWy3oRCc6sb16z5Gb5T9lGMN4jx+sSylTB3MXTbRfB09BHTjv7+A8ZluXUXZqsiVd6crWtNBprATG+48YwhBGsNC6lDKzHg/QVft44BTUQZvoj+VV6yLKSh22Zke6sgOr6ORlYI7/kPcYwlBNjFsyFfyNy6mj/T1gCuqAPedPYIp1EWViFbajKzuxNXUTesL63g9mJD8wg0oa0YqObMemCV0XWOw/523eYjDTrUspC5vyMB0Tu7ekn4I6UHP8udxpXUQZqMk27EYPOlMzsaepn/y99Gd0Fd9Zi0M5gY0Su2aw2I/gbd7iXWZal5JydbmG03AJ3lfSTEEdpBH+cL62LiLl1mc3etCNxok+Nf3o/8WDGZ+td+xDXzZP9FrCIv8xr/EaH+pdXzHah3tomvA9JZ0U1MHx/iYu0KNYsWnAdnSnO50Sf0Ja5G/lnzkNNHScyP+lYra02X4oL/CCRonHZA3uZ48U7Cdpo6AOzM/+aN6wLiKlNmYf9mabBF/kXtZ4fxAf5fHzbXgq8f3q//nOv8iLDGaBdSGpU8EFXKZZ9gKjoA7KIH8Uv1gXkTo12JZe7MuGKTr5fOR7MjnP36nHQxyQom0Ac/wbDGSg5hSPWGceYYNU7SlJp6AOxkL/T67R5IqRWoU92Ie9UjdVyXt+74IeX6rJAxyesm0Blf5jnudZRlkXkiKNuD2Fe0pyKagDMc4fylDrIlJkLfZhH7ql8unQ9/0eBY+BrsH9HJnCbQLwjX+Gp/lEH3YjchI3JvZhxbRRUAfheX8sv1sXkRJrchC92YGKlJ5ihvo9ipoMpAYPprqvNN4/yzMM1ujwCGzOE7RN8b6SHApqc4v8FfxLLyeIwGrszcHsmZLBYlX70W9Z9Asja/EO26V4GwH85l9kAK/opbBFashdHJryfSUJFNTGfvS9+di6iMRbnf3pTTdqpPyUstDvFMkNklaMKIvnZX/2A3iCD3QxvCincV0qbyEliYLa1Ev+KF3yLkojDqA33cvkcZK+/rKIWjqMR8piiwGM9Y/Tny+ty0iwTjxBm7LZX0KkoDZT6S/jCl3yLlgF3enDAdQrmxPIb36dyN6j5vg0wTOBF+JT359HmWhdRkI15t6UPdqXLApqI7/5I3nFuojEas+hHMO6ZXbiuMGfE2Frp3JbmW0/qPTv059HNW94ARx/4ZoyuXIVHgW1iY/9QYyzLiKRVuVQ+rBtWZ4uevhBEbbWmrFluRVhlh/APQyxLiOBduWxshjbEB4FtYEH/SnMtS4icSroxlEcRP0yPVEs8KtFduH7D9+X9X3Hb/293M+v1mUkTCueZJsy3musVFgXUG7m+WP80YrpPLWiL+N43fVx5RrT8FHEMQ1vWq+SqXaunxvPM/SkhnUpCfITO3OPenclp6AuqQl+Zx6wLiJRKujOE/zApa5l2Ub0H6IftawpN2u5/dwLbjz9aG1dSmLM4wT6+LkK65JSUJfQ+34rPrQuIkFW5Uy+43V3sEvzFCa5in5Mw1jrVQpEC3eBG8Pr9ES7WW7604UfFdUlpKAumf/6bno4JGc78Si/cKMr57uoy4s+VhXU/1PDdXcvuK85h1WtS0mE4WzDe4rqktFgspJY6M/hVusiEmIVjuVUNlJAr6CLj3qccjMmaSuvZI7vz026LZCD2tzG8dqDSkJBXQK/+d5lPnAnVy04iTNZTQd/Fdr60ZG3uTDV86IX4z1/E0/rxR5ZncQtera6BBTUsfvc76OLjDnYhnM4UMFRrTV99I8STaOxtne1vvM3c78mR8miB4+zqvaimCmoY/aqP4Tp1kUEroK9OIvuOtgzauDnRN7meFppq2c009/LtYy3LiNo6/M8HbQfxUqDyWJ1l++pmM6oIWfyPS84xXRmlT6OZ+9nWa9W8Bq6s9xoHqCjdSEB+55teU49vlgpqGOzyJ/iT9b7cDNoyXX8zI2u3ObsLsSsWF7VqMu6uajt+rjPGcjO1oUEayYHco2iOkYK6phM83typ3URAVufuxjDOa6hQjon8fR9FdS5cm5v95b7iP30rHWVFnMeJ/mFCuuYKKhjMcZvT5QvUEiXjjzA15zoauucl7P5sbS6wHq1Eqaze8Z9wVHUtC4kSHezJ9MU1bFQUMfgPb81X1kXEahteI7P6aO5xvIUz3vL9Tb0/G3sHnSjOI5a1oUE6A3NWBYTBXXknvQ9+M26iCB1YxAfuH2cU0jnTUEdkrbuHjea06ljXUhwRrItHyqqI6egjtgN/hDmWRcRoL0ZyhtuV0V0gRTUoWntbnHfcQq1rQsJzK/swlOK6ogpqCPkfV9/jk5+K9mBtxnotlVIF0FBHaK13e3uO85Uz3o5czmYvorqSCmoIzPPH8Jl1kUEZwfe4j23k0K6SArqULV2N7pRHKMBZsvwXMYpfrHCOjIK6ohM9bsxwLqIwGzFy7zndlZIRyCeSNVc1tFo4+5zozhUj24t404OYI6iOiIK6kiM9TvwrnURQdmEZ/iIPXTmioh61KFr6x51n7C7dRkBeZ7u/KaojoSCOgJf+a56HGsZ63EnI9hPo7sjpKBOgi3dK24IXa3LCMZQtmG0ojoCCuqifeS7atL+pVpwN99xkquhkI6Ugjoptnfv8DQbWZcRiO/ZkU8V1UVTUBfpLT01vVR9LuBrTlBIx0BBnRzO7e++5AHWtC4kCBPpyiuK6iIpqIvynN+LGdZFBKGCoxhNP9dIIR2LeIZ9KajjUuH6uNFcSj3rQgIwi315WFFdFAV1Ee7yB2pyEwD25DMedC0U0rFRjzp5Gri+7muO0FhwFnAUNyqqi6CgLth//Cl6vAXYnNd5yXXU2ShWCupkau0ech9qeBmeszUJShEU1AXx/nz/j1jeEJwsLbmTT+iukI6dnqNOrs5usHuedazLMHcZp/tKnTQLoul0CrDYn8D91kWYq8t5XEj9vEO60k/kR35kNnWoj6M17WmsqM9CPepk6+W6+f9wbZnfKruNmdzr9ea8/Cmo87bQH86T1kWY687NbJjXAbfIf8BrvM7wKt6CvKbfiF3Zh010CFdDQZ10DdwVnOz/SX/rQkz1ZypP+Ho6zvPkdCUiP/P9wbxgXYSxDbiBvfM61H7xN3MHv2f9ufU4gL6sosN4JW/6XWNo9RZO17Yusdf9WWU+PdIuPEdD7Xd50T3qvMzx+5R5TNfjUr7IK6Z/9if4dbkyh5iGH7iWbZmsT48riee8psO/9Hq4z7iBVazLMPQWu+gYz5OO1DzM8nvxmnURpg7ia/q6unmkxm1+Q+5hfh7LGMmBLNBhvIJ4DlQd/hZqubPcF/SyLsPQMHbhFx3jedCRmrPpfjfesS7CUDteZoBrnUdIz/OH+tOZlfeS3uVs65UNTjwHag3r1Spb67rn3fOsa12GmZHsxE+K6pwpqHP0m9+VodZFmKlPP77M811Ys/3uPF7g8u5goA7i5ahHnT693JdcQC3rMox8y06M1VGeIx2pOZnkuzHMuggzOzGcC1ytPMd492ZwwUv0nKC7WMtRUKdRA9fPDWMb6zKMjGFHvVsrRzpSc/CL78bn1kUYWZU7eYv2eY9l6sdLRS33V063XvWgxHORWoe/vU3c+9xJQ+syTIyjKyMV1TnQkZrVz74rI62LMHIU33JSAe+VHuH/VfSyB/CcDuGl1KNOrwp3kvucPazLMPELu/KljvOsdKRm8YvvwWjrIky04VUedE0LeC5ovj+6iklN8nca03UIL6GgTrd13cvuCZpZl2HgV3bkYx3nWWhmsowm+F341roIAzX5K5dS6PxB1/FFJFVM4GJust4UgVBQh837sfzMb8wH6tOUlrTK++g52O3sz+AJ61UpuansziC/paZAyUAzk2UwwXfjG+siDHTmbjYr+LCZ7tvkNLlJLmownE11AAOf+81iaPVxemvrFmm4f5a3GM6cFb7ekI7swC50I595B+BJfzqTrFeq5FbjDTbXvlgtfaSu1q++RxnGdC0uYEgRMQ3XRxbTsFhPVC+h56jDs8g/4Df2nfgX760U0zCToVzD3jSnj38/j/7QQe5rTrJetZL7nW4MU6+xWgrqakzyuzLKuoiS24QP6Zfng1jLm+FviLSit3hahy+69B2eT/wWHJPDOWIm/dmBbf0bOe/Hq7o73Qu0sF7BEpvKnnyhY70aOlKr9IvfuexGetfkYoaxRZGXn55hesR1/Y15OnwV1IF5yG/Pl3n8/Id050Cf+7SZPd1nHGi9kiU2me6M0rFeJR2pVZjke5Td+206MJTLi+pL/+HhyCv7getMtkhYFNQhedb3YWHev/U0m/BWzkHUzD3pnmBV61UtqUnsoueqq6QjdSVTfLe8PisnXw3OYxhbRTCU4xf/Zgz1/YcJZX/wKqjD8YM/lsJ2yCnszgN5/OrBbjg7Wa9uSU2iB9+U/dG+Mh2pK5judy+zi95tGczVeb0Rq3pvsTiGCmdxYYm3SXgU1KFY6I9gWuG/zXE8lEcQreve5GrqWK90CU2kmyYWXYmO1OXM9nsz3LqIEnKcwadsH9ljEXFNtPoQH5T5oRvPhAca9Z2/84p8OU8lx/JmHntzhTvPfcQm1qtdQhPozvgyP95XpKBexjy/H0Osiyih5gzkZlc/wqcXo3swa3mec/BlfejWj6XVBtarlTgv+uKn4FnEoXkG0abuI86kfB4zHkt3fi3r431FCuqlFvujGGRdRAl1ZwR7RXzst4qt2g94LubtEbZVYmm1PF8FUbgZ/pQC704vb3LeT0rXdTe6V1nTegOUzLf04HdF9VIK6iUq/VE8aV1EydTiUl5lrcg/om8dY83/ZHEZH7h1XRzvLY4n/tPrr/wUUUuvFPDKmR7uszJ6dccX7MnMMj7il6egBsD7U3nUuoiSac8H9HUVMVxJ2znGPtooHoxxm4QvjlBVjzofb/p7ImztigJ+p7l7iRuobb0hSuQj9mS2ohpQUC9xLndZl1AyJzCMuCbAr+Pi/MTft6ynPokjqNWjzt0sf0Ikl73/9AkfFtCcc2e5waxnvTFKZAi9WVDGx/z/KKiBSyKe9jJcqzKAu12DGEel9Imx+nHcFmProYt+6ou6Bb8frRz9nR8ibvH5An9vGzec/a03R4m8xJFlfcvrTwpqbvL/si6hRLryKQfFfGrek7VjbP0KppbtQRv9do3zL5U2Q3z0HxJfK/g3m7inuI44Ri2EZwCnlPkTH6Cg5jF/jnUJJeE4kzdoHXsPqoY7OsbWp5bxdKLrJKDFtFrkT6cy8la/KiKAnDvHvV8ml8D/y8XWJZgr86B+0x8TwwEYnkYM4MYIZvLOxfGx7lTXk/uLDdIl+lhtbb1KiXEjn8XQ6mwmFvX7W7kRZfLijn9zQ5ke9X8q66D+xO/HfOsiSmBLRnBgye5Grut2jbH12QWNlk2DNpG3WB79seKN931janl2kb/f2A2gX0yz1oXlrzxe1lFdxkH9ve/JTOsiSuAo3qVNSQcNnRhr63cztiwP2R0S0GI6nc2smFpeUHQLzl3g3iiDiVAqOYpXy/K4/0PZBvUE34NfrYuIXV3u5sFIJwnNxb40i7H1BfyntKsTiBauXaTt1WVb61VKhFf907G1Hc3jcTu6T8rgb7mQAxhatlFdpkE9w+8d+cMW4WnLh5xg8ABObXdyrO3fW6Z96m6Rtra9Hs7KwVx/WoytN4+onZbubc4sxeYwNYd9yvYVmGUZ1PN8Lz61LiJ2B/IJmxqdiv9C3RhbX8j/2ayWsSMjbS3OJ97T49+Mia3t1SP8qFTH3ej+G+tRF4Ip7MnEsozqMgzqSn8kg62LiFkNrmEAjcx6TM3dEbG2/19+KsPDdQfXJbK2WnOI9eokwGh/TYytbxZxe8e7d1P/bPwP9GJWGR77ZRjU5/GUdQkxa8Qz/NU50wub58W6a80v0z71TdSJpB3HjdTVhe+szon1qZAtI29xKzecnWOsOATDOIRFZRfVZRfUd/u0T5nRjg/pZX4Sbh/rrN9wFz+X3cEKW7ho9t6z2M98DwnfID8w1vbjGHXf1L3OGbFWbe8l4hw3EKYyC+qXYx0aEoI9+YgNgzgJ/zXW1udxrfUKmjjNHVd0G9242no1EmBRzHMW1mSXeNp1N7s7Uz696N1cU2Yf08sqqEf43iyyLiJGjgsYSOMgYhq6uc6xtn87E8rsYP3D3RxV1O9vz3OUZo66ZLuFL2Ntf9sYj9ST3BuRjSgP0/k8XFZHfxkF9XjfM7aJC0JQn8foF8tbpgt1Vqytz+N66xU0UeHu47CCf3sHXmGVgPaRUE3yl8W8hHgn/+zqhtIx5jWw5DmBIWUU1a5c1nWm7xrLfL2haMUzbBXYCXihX5/xMbbfgB9pGtg6l8ZifxL3FvB7O/ECDctyi+XrRP/fWNuvYBwtY/5LzPKHEe9ddlurM4T2ZbI3l0mPepE/ONUxvSPDg4tpqOX+Fmv7s8v2/dQ13H/pm/fBexyvKKZzMsIX8jEoH11jj2lYxT2b6oFlv9GT38qkp1kmQX0ar1qXEKPjGESzIE/AJ7FWrO3fytwyOVBX5Nyl7kVa5fzzjbmHe5weycrN2bG/U6/4IYG5qOFudjdRoyTLsjCaA1lYFmeAsgjq6/zd1iXExnEp95ToBZb5qxtzn3oSD1mvoqE93EjOyuHJ6goOZxTHBbqPhOcZH/eESE04qGRr8xf3Eo1LtrRSe4d4pysORRnco37N753asd51+C9HBn0CnufXZ0KM7bdnFCENoCu98f4a+jO1mu/W4yDOp2NZb6H8LPKb8lXMyziH60r6F/nS92RsKRdYUtdxTur379QH9Td+W6ZZFxGTVXmGnYLfRa/z8T5R/XwA07tYm+df5BUG8z2Ll35tHbZnD/ahSdlvnfzc4v8S8xJq8DUblPiv8ovvybDSLrJkKng29eeAlAf1DL8do6yLiEkbXgxkapPM5vk2TIyx/Z14OwFboTTm+bFMZzGNWVvDxgoy07eN/fW3h/Owwd9mtj+EF0u/2JJoyBA2SfX+nuqgXuz34SXrImKyDc/TPCG75jX+vFjb/4BtErIlJHQX+qtiXoLjM6NQWexP506LBZfAunyYmPNhIVI9mOzc1Mb0AbyVoN3ytJhnSbrBegUlJX7yN8e+jF5mfb8a7g7Xj8ScNvLyIwcwP8W9zhQH9X/9TdYlxORvDIjwTbbxqx/z2O8n+THFh6iUzoXMiX0ZF5iu4QXunpTOAz6E061LiFFqL32/67uzwLqIGFRwE6cnKKT/MNu3YVKM7V9Av8RtEwnNCN+JuM+H3XjDfE991R+U0smUb+NU860bj5T2qMf6A1MZ07V5JIExDQ1cvHep70v1ZS8pjYtij2n4p/VKAru7N2hqXUQszk7t/N+p7FHP8135xLqIGDTgSfZIYEwDzPPtGRdj+49yaEK3jIRhiO8S+zK2Z0gge+nXfvdYj0cra/AJrQLZxlFKZY/6jFTG9Kq8ltiYhrru0ljbT+toVimVi0uwjLhHlOduQ/cBm1oXEYNfOSiVV9dS2KO+y6dxUrkWvJrwJwUX+01jfKbd8W3JJ5GQ9Hjd7xb7MvbjmaD20Km+F0Osi4hBHx4IajtHIXU96hH+bOsSYrAhHyQ8pqGG+3eMrfuynvVbinVJ7EuoQZz7fyFWda+xl3URMXiQ21PX/0xZUP/uD2SudRGR24rBtE54TAPs57aPsfWH8Kk7PKU0nvUfxL6ME+gQ3DFc3z3HkdZFxOAsBqfsXJCqS9+L/R4Msi4ict15hlWCO8QLM9jvFGPrQ9k2JdtJSsn7zfk85mU04DtaBLl3LvbHpPBq1JoMD3R7FyZVPeqLUhjTBzMwNTENO7o4L7W9YL16kkgDY49p+GuwsVHDPcAJ1kVE7hcOY1GKeqEp6lE/7/crwXOQpXUYD1Iz0AO8MJ/7LZd5w1O0NmdEqraVlEYXH/eQqmaMplHA+6b356ZwIt40TYOUmh71d/6o1MX08TyUspiGTd2JsbX9GZPStgtI7IbEHtNwadAxDc5dH/M0vxau5oXUnA9S0qOe77djhHURETuJ26kI+vAuzO++PVNianswXVO4xSROvfzAmJfQgU+plYD98ip/oXUJEWvCMNokYMtnl5Ie9Tmpi+lTuCOVMQ2ructjazuNcy1JnL7y8b9h7+ZExDRc4MKZkCUa0ziAuanoi6YiqJ/0t1uXELG/cbtziTi4C3ESW8TUcjPrVZOEuYHKmJdwCN0ScySf725L2WswP+Nc6xIikYJL39/7Tky3LiJSaRoEUbX3fZcYRhTUZDJNUr7lJEpz/VpMi3UJ9RnFOonaJ+/2p8T+4aW07ufoRP0FqpL4HvV8f0jKYvqy1Mc0bO+OiKHVXRXTkpdXY45puChhMQ0nunuoYV1EpE5nVOL7o4kP6vMYZl1CpC7nkoQd2IW5isaRt/kX65WShBkac/ttE3nh9Rj3CLWsi4jQbHon/k51woP6GX+LdQmRupaLyyKmYS13Q8Qtbp3KeYslTj/F3P4N1Enk8dzbPZ6qqB6ZyA9My0p0UI/zJ6Tq2ekrOTeRh3VhjnG9ImzNcQ3pHX4n8Zgca+v7sldi98j93WOpiuo7eCzRUZHgoF7oD+Z36yIidAV/T+xhXZh7aB5ZW2fqCWrJW5znj/pcb716RTnA9U/VverTGJvgqE5wUPflI+sSInQp/yy7oGnm7oiopQ78x3plJIEWxth2X9ZL+BF9iHskRVE9ld4sTGxUJzaoh/g0PZz/V/om/KAuzP7ukAhaqcMj1CvL7SfFie8xpM0423rlItDb3ZPciFjJR/S1LqFgCf0rTPdHxvZqh9I7m2vKNmZuY72i27iVzcp2+0kxasfUbk3uTchsZNkc7e5OakhUoR+vJ7RPndC/wen8aF1CZM7k+lQc0oVZzT1D/aJauJTjy3j7STFWi6ndv7JlavbJ49xNqZmtrJKjE/rinkQG9ZP+YesSInN8Cl8vl5/N3J1FnAiO4VLrFZDEWj2WVtfnEusVi9TpLtnD4pY1kaPxCYzqBAb1OB/fixJL7Xju1kNFHOkuK/A39+IubT8p2AYxtOm4nfop2yfPcldalxCZV7jLuoQCJC6oK/0xsU/7Vyr7cadiBoCL3akF/FZvnknJnUCx0SGGNk+gRwr3yb+7861LiMy5fJO4PnXigvoq3rIuISK78hg1UnhIF+bWvCcAPYaHqa3tJ0XoHHmLG6X2VlY/TrIuISJzOCJxD2olLKiH+b7WJURkG55N6PSC8XDuRv6R871qx0Xc52pq+0lR2rp1I22vDo+k7rL3n5y7jYOti4jIMK6wLiFPiQrq+f4YFlgXEYmNeZFVUnpAF8q5f7sHaZDDT67GM/xLW08iEO388NeyeYr3yxruYfa0LiIiVzI0UX3qRAX1JXxpXUIk1uYlVk/xAV24I91wts3yM9szgn219SQSx0bY1t6cZr06MavlnqSrdRGRWMSRzExQVCcoqD/011qXEIlmvE5rBU012rkh9Gfdar67Cv/hHW09icxWLqr71GvzQBkMDa3vXmAL6yIiMSZRb9RySflQMddvydfWRUSgMW+n+vJYNBb7gTzIIGYs87WGnMjfaKFtJ5F6ze8eQSv1eZvOZbJv/uK7Mtq6iEg8T6+E/M0SE9R/S0V/uh6vsGNCdg17C/0XfMl4ptKQLeie2mE6UZnvR/EDs6ikEa3poO2Vo338C0W2UMHTZXU75ge/Hb9aFxGBFnzJaon4uyUkqIf4HWOcQL9UavBUWR3OUirf+0d4mY+Wm/++gs3ZncPYRHtcFr/4TYt6M7XjLk4os638sd+F2dZFROBI+ifiL5eIoJ7jt+Bb6yIicBN/ScROIUnytv83b1D9cbwNF7JvGdw9Lca7fjfmFfi7jhvL8rh+2e/DIusiIvAUByTgr5eIoD7b32hdQgTO56oE7BCSJN/50xiUw89txe1spb0vg+f9ocwt4Pdqcw9HlumWvcefYF1CBJoxkmbB/wUTMOp7iL/ZuoQI9OY/1iVIqnh/vd80p5iGT9iWC/yiJHwqN7KPe5M18/6tFrxatjENx7s0vHxkciLeHB58j3qu3zQFIwx35DXNQyYRmuOPYUCev7MTAxLQd7Dzmz+LfN7LdyC3l/n29P547rMuIgJPs3/gf8fgg/pCf5V1CUXbiPcSMrZQkmG234c3C/i99rxBS+2JGXzk/8VLOQxc3Y4r6KYtyUK/D69YF1G0ZnxJ86D/moEH9Wd+q8QPWFiToawb9E4gyTLN78XQAn93A97QhDFZjPeP8SIfVXPPug09OZxttA2XmOl3Zrh1EUU7lEeD/osGHdSVvkvBJ6RQ1OdNHdQSoal+Dz4q4vdbM4i22iOzWuBH8j3jmMI85tKYuqxFa7ZgDW27FUz02zDeuoiiPRv0o7NBB/UN/hzrEopUg+fZK+A/vyTNr74HXxTZxhq8rqerJULD/Y6Jf6q6FSNpFOxREfCo73H+YusSinaNYloiNN53LTqm4Vd25uOQP6FLwmzp+occJTn5iX9Yl5BBwFv3DGZZl1CkYzhbMS2R+dHvwneRtPQ7uyXsNX8Stv1d0t7wvLLbeS/YYyLYS9+P+sOtSyhSFwbpkSyJzDe+Oz9F2F4Dnte4ZYnQSf5u6xKK1J7PAj1nBxrUv/sOCZ/0fV0+DHzAvyTJWL81kyJuUwMdJUoL/W68bV1EkfpyaZBHRKCXvv+W8JhuyAuKaYnQ6MhjGuak4LEaCUct9wRtrIso0n/4Ksi+a5BB/Z6/37qEolTwCB0V0yJSVpq5F2hsXURR5nMilQFGdYBBvcifToBbKg/96KmYFpGy08E9FGKo5GEId1qXUIUAt+nNfG5dQlH6cJ5iWkTKUk93qXUJRbqQicH1FIML6om+r3UJRdmGu6xLEBExczH7WZdQlBlcYF3CSoIL6r8xw7qEIjTnyUCH94uIlIJz/dnYuoiiPMRbgfWpAwvqd/2j1iUUoSaP00oxLSJlbRX3NE2siyiC5wwWBhXVQQV10oeRXc3OimkRKXvt3INhhUueRnG9dQnLCWpbXhfBPMZ2DuUcxbSICNDLXWJdQlEu48eAeo0BBfVP/l/WJRRhQw0iExFZ6hIOtC6hCHP4q3UJywgoqP+a4JdwNOZ5Gqo/LSKyhHP3sIF1EUV4mpeC6VMHE9SD/RPWJRSsgv60VUyLiCyjsRtAXesiinAm8wKJ6kCCutKHdJkhXxfRSzEtIrKCzd2N1iUU4XuutS5hiUCC+j4+sS6hYLuQ7EETIiJxOcn1sS6hCFcyLog+dRBBPdNfbF1CwZrzMDXUnxYRqdJtdLAuoWBz+Kd1CUAgQX0lE61LKFAFD9FCMS0iUo0G7mkaWhdRsId5L4A+dQBB/YO/wbqEgv2THoppEZEM2rvkPrzqOSuAF18GENTnMc+6hALtSNLfEyMiEr9D3YnWJRRsOA9al2Af1IP9U9YlFKgZj+jutIhIDm5iU+sSCvZ3Zhr3qY2DOrmPZTnuoaViWkQkB3Xdo9S3LqJAv/Bv4wqMg/qBxD6Wdb6enRYRyVkHF8pTyfm7gdGmfWrToJ7rk3qPd2uSPC+5iEjpneJ6W5dQoPn83XT5pkF9A+NNV75QjXmcWupPi4jk5Q5aW5dQoCcZYtinNgzqqf7/7BZelJtZVzEtIpKnVV1/algXUaC/4c2i2jCo/8VUu4UX4QCOUkyLiBRgR3e+dQkF+oBnzJZtFtQ/+tvMVroYLbnbugQRkcS6nO2sSyjQeSww6lObBfXFzLdadBEqeJDV1J8WESlQTdc/oVOKjuFOoyUbBfVn/hGjFS7OuXRTTIuIFGF9d511CQW6nOkmfWqjoD6PSpsFF2VjPZQlIlK0E9ze1iUUZAr9TJZrEtSD/OsmK1ucujxKXfWnRUSKdjerW5dQkBsZb9CnNghq7y8o/UIjcCWbKKZFRCLQwt1qXUJB5nK5wVINgvophhusaLF25mzrEkREUuMQd4h1CQW5n29L3qcueVBX+iTe563P3Tj1p0VEInMHraxLKMAi+pZ8mSUP6kf5vOQrWbyr2EAxLSISoSbuHpJ4Yn2MT0vcpy5xUC9OZH96B06zLkFEJHV2c8dbl1AAzyUlXmKJg/pBvinxChavPvdTkcSPfSIigbsuka/peIGhJe1TlzSoF/orSrm4iFypy94iIrFo6O6wLqEgF5Z0aTVLubB7GFPSlYvCdpyR40+O9O/wKb+yChuxC9upFy4iktWe7kj/kHUReRvMIN+9ZOf4Egb1PH9l6RYWkfo8QI2sf4wp/k76r3BRvwUH+hPZVGEtIpLRDbzGJOsi8vZ3dvWlehaohJe+72R86RYWkStom+UPMdmf7Vtz0Ur33idyC5vRxT/srd63IiKSBKu7G6xLKMAnvFiyZZUsqOd4mzlSi7EtZ2b8fqW/xW/Ajcyt9ieGcCTrc72fpbAWEanGYa6XdQkFKN0cZSUL6tv5pWQrFY1a3JnxsvcEvwt/YUbWdn7iXNalr5+msBYRqdJtNLIuIW8f81KJzuolCur5PnmvNTs34x3mob4Tg3Nu6zcuY32u8nMU1iIiK2nlrrIuoQCX4EtyTi9RUN/DhNIsKDLrZXyk/W2/W95XCH7nQjbgdr9QYS0isoKT2dG6hLwN49WSLKckQb3Q/19JViZKN1G/2v70UN+LWQW1OpHTaMtdfrHCWkRkGc7dTR3rIvJ2WUmWUpKgfogfS7Iy0TmMntXG9Od+zwJj+g9jOZkteF5RLSKyjHbuXOsS8vYBr5fgXF6CoF7sk3bvoTHXVPu9af4Aphe9hC/Ylx38xwprEZGlLqaNdQl5u7QEyyhBUA9I3PzeV7NWtf3pU/g+oqW8z7Yc739VWIuIAFDP3WpdQt6G8kbsZ/HYg9r7/8S9iIjtwAnVfm+gfzzCJVVyL+24RlOiiIgAsIfb37qEvMX/PHXsQf18wt4/XYs7q52le7E/L/LlzeA8OjJQUS0iAtxAA+sS8jSY92M+g8ce1Em7P30WG1d72fsxvo5lmd/Ri57+W4W1iJS91q4Ud32jFXfOxRzUr/mhMa9AtNbgogzfjfPuyYtswvl+psJaRMrcOWxmXUKeXuDLWM/dMQf1v+NtPnJX0bja/vQ3MX/oWMD/0UGPbYlImavpbiZZLx70xDtXSKxBPdTnPslmCLajT4bvvlSCCn5iX3r58QprESljXd2h1iXk6VHGxnjejjWoSzNnS1QquIFMbxd9q0R1DGQTbveVCmsRKVtXJ2xI2ULifJ9FjEE9zJdmFtSoHM/WGa+2lG70+nROoysjFdUiUqZaufOtS8jTf5kS2zk7xqC+Nr6mY7BqlvvpC/y4ktbzPltyiZ+nsBaRsnQe61qXkJc53Bxb27EF9U/+ydiKjsNlNMvYn55GqTNzAf9iMwYrqkUkoWb5V/2/fC+/mV/br+bb+a7+dP+Qz63nWS9xL768hVkxna9jC+qbWRhX0zHYmFOz/MRck7q+ZRf+5ucrrEUkUWb4h/1+vhl7cAkD+ZyfmMp3vMdtHMWa7Oofz2FGxt5uJ+vVyMvv3BtTyzEF9Sx/d2wbIw43UTPL0wB1jSqr5Fq2ZLiiWkQS4hN/vG/BkTzHvCq/v5g3OZT2PJB10Oz11LBembzcRDyvMI4pqO9japxbI2K96Jb1ob3GpXkjaJVGsR1X6R3WIhK4hf5Bv43vzL3MyfqzP3IMO/JNxvPaFu5461XKy/c8H0u7saRPpb8p1o0RrZo5Tf9W161lWOMCLqQLoxXVIhKouf4W35aj+SiP3xnCVjye8bz2LxpZr1hero+l1ViC+nlGx7oponUiG+U0Cc6mxnV+wJbco6gWkeDM9P38evyFsXn/5iwO4/8ynNeaJ+wxrXf5KIazdCxBHc9niniswiU5/mRX61KZyQns76cqrEUkGHP8//n1+Du/Fvj7nvO5OsNZ7VzWtl7FvMRxPTmGoB6eqIlDL2TNHCeV3cu6VACeZXM+VFSLSAAW+Fv8BpzPb0W2c2GGC+D1EvY2rSeIfhLoGII6zonUotaSc3L+2U1dB+tyARjHTtyuqBYRU4v9vb4df2FiBG15TqT6F/0eQ0frlc3DQm6LvM3Ig3qCH1CSjRGNK6ifx0taTrEud4n5nMYJOTyFKCISj0F+S44v4J50dWZyPL6ac1oN1896dfNyZ+QTn0Qe1LewoFRbo2ibZXxb1sqOY3Xrkpe6hz34XVEtIiX3sd/F94j87Qfv0b/a7+3tdrZe6TxMzbAmhYk4qOf4u0q2MYr3f1Tk9dLTBu5i65KX8Rbbx3AvRESkeuP8yX5b3o6l7ctZVO0Z7TrDmSzyd3O1VwcKE/G631f0oILS6U6PvN9NfhobW5e9jG/YOdZ3oIqI/M8M/zfflruojKn973mq2u9t4Xpbr34evuKdSNuLNKi9v7WkG6M4VxTwO7Xcg9SyLnwZY9iF3xTVIhIz7+/37bk25lubmaaeviKoc2820Q4oizSo3+Grkm6KYuzDNnn3pwG2DGxYww8cG/FFFhGR5Q33XTiWX2JfzltMqvZstr47xnoz5OEZfo7wvBxpUN9R6m1RMMdlBf/uue4k6/KX8wKvWpcgIqk1yR/vO/N+SZZVmfFsdhF1rDdGzhbx3whbizCoJ/tnS70tCtabzQvqT//hFvazXoHlJGkmOBFJjkX+Rt+Oe2O7K72yIRm+19qdaL1B8nAnCyPrU0cY1P9lvsXWKEANipvpppZ7nF7WK7GM1xmli98iErFBfjPOZnpJl/lJxu/+g/qWGyQvE3kusrYiC2rv43pldvSOyvE1HNWr7Z7kMOvVWMrztHUJIpIqv/o+vgejSr7c7zN+t4U71WqDFOD2yFqKLKhfScwbs2oRxdPQtd3DRfbLo/SCdQEikhre3+U3inzSjtxMY2bG64MX0tCkrkK8yZcRXeuMLKjvtNoWeTuBNkX2p//gXF93J7WtVweAT9A7tUQkCt/67pzMVLPlz8z43abuL2aV5e/u4psAIgvqn/yLZpsiP/X4Z4StneTeYi3rVQIqE/RgnIiEaq7/p+/Im7Y1ZPn+32hiWl8+HmJeJF2oiIL6bhZZbo08nEDLSPrTf9refcIO1isFBveSRCRd3vZbcCULjavINq3Jqu4s4wpz93tE44ciCepF/h7TjZG7Wvw18jZbuLc4n0jTvwDjjJcvIkk2wx/nd+Eb6zKAell/4hwaWxeZs2iyMZKgfp6fTTdF7o5lnRgStZa7yg2ihemaZbtcJCJSnff9ltxnXQQANVgt6880dqG8cji7txgdwcXvSII6KQPJavC32Nru5oazp+G6zTFctogk1zx/ru+a5bGo0lmTGjl0ps5NzPPUPpIPQBEE9Rg/yHpb5OgI2sZ4hXpN95J7IodPg/FIym4rIiH53G/L9SWceSyb3N5P2DxBc5TdG8EMZREE9Z0B/ZEzr+rfY1/Gwe5LoznLmpksVUSSy/ur/VZ8Zl3GcrbK8ef+lph5v3/hpaLbKDqoF3ubx+LzdzAblmDEVwv3HHfRqORrt2bJlygiSTbPH80F5mO8V5TrDcRW7mjrUnNW/ICyooP6NSZab4WcOP5RqiW5E93X9Czx+m1W4uWJSJLN8bsbzT2WSQu2z/lnL6Cmdbk5ernoV14WHdQPWm+DHO3DpiV8gqqFe547S/hYfj06lG7lRCTxTmWwdQlVOI2KnM/Tbdzh1uXmaFHROVlkUE/30b0fJF5RzkeWC+dOcl/Tp0TPV29LLesHuUUkMV73IXaxmnBaXj9/YZSvf4xVsdcuilzPJxLy/G43OhsE2RruATeYTUuwpINLv3IikliXWxdQpStZLa/z9EZub+uSc/QVnxR18bvIoH7Aev1zFP18ZLnq4oZxfcyDy2qwv9n6iUjSfOrfsy6hCrtwct6/Y3dmz1dxfeqigvoH/7712uekPXsYLr2mO9t9w1ExXgQ/iDV14VtEcvSwdQFVaMVjedyf/tNObhvrwnP0aFFPUxcV1PeTjHcrnlfADhCtNd2D7o3YLoKfZ7tyIpIoL1sXsJJVGUjzgs7S51iXnqPJvFLEbxcR1N4/ZL3uOWnOEdYlALCLG8H9tI683X3ppP60iORoig/tXXuNeInNCjyLHcT61uXnqJiL30UE9WDGWK95Tv5C3UCCrMId7b7jzkhnEavP9darJSIJMiqwK6EteIttCz5H13B/sV6BHL3AtII3fBFBHeLw/pXVJ6z3rNR2J7lv+Bt1I2qvH+sF8jFERJIglNdv/GEThrJlUeewE1jdeiVyMo8BBf9uwUE91z9lvd45OZamwQXZqu7/3HecRI2iWzqcvwS3diISstHWBSzjCIYW/erhBu4k69XIUeEXvwsO6meYbr3WOa3eWdYlVKOVu9N9zlFFTYK3NXdbr4aIJEwotywbcicPuQYRdDXOoLb1yuTkPX4s8OJ3wUGdjAvf+8b6YstidXAPutGcSb2CfnsrXqZ+wGsnIiGaZV0AAF0ZzkkRnb/Wcgdar05OPI8X+JsFBvXEhLyDOvxhBuu4G90YzqNhnr+3D2/mOYuPiAgsti6A+vTjbTaI8Px1hvUq5eiJAn+vwKAeEMAfO7sO7GxdQk7WdFe7H7ks51dV1uIanqWhYlpE8mZ97u7KZ1zgop3bYnuX63usbQ3n64Iufhcc1ElwBi4xYbaau8T9xPN0zzqDWXeG81eXnDUTkZBUGi57Te7jnUj70n/K73Uedp4s6LcKCuqJiZg6tGEgE53krobr5V533/EvNq5mjY7jQ153HRXSIlKgJkbLrcWZfMMxMXUyDqe50Xrlp7C71AUNOn7C9DNZro6lUSIDbX13ERfxrX+Dd/iGCdRmdVrQme3YkShGSIpIOWtlstTu3MRGMZ6/6rjjfD+TNcvPl4z0G+e9HQoK6iRc+Hacal1CUdq5dglfAxEJUcuSL7E917FX7J2MU7mGRSVft/w9XsBLRgu49P2TH2q9pjnowYbqfYqIrKC0Pepm3MyXJYhpaO16lXTNClXIxe8CgvqpRFz4TsrQAhGRUtqkZEtqwAV8xxmuZok6Tcl4SOtbPs175HcBQV3ok2CltA49rUsQEQlQh5IMu6rFSYymn2tcwiubu9CudAsrQv4ZmndQj0/Ehe9TqKEL3yIiK3GuS8xLqOBgvuJOt2aJz8LOnVDaBRbo2bx/I++gHhDYK9KqUpNjrEsQEQnUzrG2vjcjeMKtb9JV6kMti8Xm6Su+zTNGCwjq8O1DqT/JiYgkxYERvLmval0ZzEC3qdn5dw23j9Wi8/Jcnj+fZ1CP9x9ar2EOjrcuQEQkWGu5vWNodUfeYLDratxJOtF28TmKOaifSMCF75bsbl2CiEjALsk6VXF+duB53nHdAriS2YN1rUvIwVB+yStK8wzqJFz4PlYDyUREMujkjomsrR14nvdcr0DOuhXuOOsSclDJi/mtVT4//JP/yHr9snIca12CiEjgrqdDBK3syjsBhfQfjovtDnyU8rv4nVdQv5CAC9+70CaonUZEJDyN3avVvPwnN7U5kmEMcjsGd75t6fa0LiEHg5idR5zmFdT5ddZtaCCZiEh2rdyQAsfzrM7f+YH+bsvgQvoPSbj4PZfX8vjpPIJ6jn/Tet2yasL+1iWIiCRCY/cyN+T55PEG3MBYrnRrBRrSAHvT1LqEHORz8TuPoH6dudZrltWR1At49xERCYlzZ7l32Cynn12FY3ibbznLhf663dqut3UJORjIopwvfucR1AOt1ysHx1gXICKSKNu5T7iLDTL8xCr05jEmcp/bybnAQ/oPfawLyMFvvJ/zz+b8PmrvX7Jer6w2pFMidiIRkXDUdCdynH+dp3mLMcu8HbEFHdmBndiWugk7s27jNvRfWxeR1XPsmONP5hzUnzDBeq2yOtK6ABGRRKrh9mAPYJb/mZl4GtOMVRMWz8s6kousS8jqOa7N8SdzDuoXrNcpK8dh1iWIiCTaKq69dQmROJJLlrk2EKbv+c63zenDUM73qMMP6h30BLWIiADruFwvK1t6NcefyzGof/afWa9RVkdYFyAiIoE4yrqAHEQc1OHPSVabg61LEBGRQBxMPesSsnqL+TlFa45B/bz1+mS1J6vrwreIiADQ0O1lXUJWs3N8RCunoJ7j37Zen6x04VtERP4nCdOe5HbxO6egDn9Oskb0tC5BREQC0pNVrEvI6pWcfiqnoH7Zel2yOlBTh4qIyDLqu72tS8jqcybmcJc6p6AeZL0uWWkgmYiILO8Q6wKy8ryew0/lENRj/ffW65JFE3a1LkFERAKzJ42tS8gql7vUOQR1Pm/NtLEPtXXhW0REllPX9bIuIavXqMx68TuHoA7/wveB1gWIiEiAwh/5PYURWX8ma1BX+jet1yOLhuxmXYKIiARoN5pYl5BV9pHfWYP6U6ZYr0UWPRP3CjYRESmFOi78R3ez36XOGtS68C0iIkm1n3UBWX3A7Cx3qbMG9RvW65BFffawLkFERAK1R/Bzfi9kaJafyBLU8/x71uuQxV400IVvERGpUgPX3bqErN7J8v0sQf0+c6zXIIsDrAsQEZGA7WtdQFZFBnXod6hrsad1CSIiErBe1LAuIYuPmJvxLnXCg3pHmujCt4iIVKu52966hCzm81HG72cM6ml+uHX9WYQ/8F5ERGwl/eJ3xqB+g8XW1WcR/rtRRETE1n7WBWRVRFC/bV17Fu1pqwvfIiKS0fpuY+sSshjKggx3qTMG9bvWtWcR/nTrIiJiL/Rhx3P5OMN3MwT1DP+lde1Z6A61iIhkF3pQZ774nSGohwZ+h7oxoY/kExGREHShoXUJWRQY1EOs685iL2rpDrWIiGRV23WzLiGL91lY7V3qBAe1RnyLiEhuQr/4PYvqH4euNqgX+Q+t686oQi/jEBGRHIWfGIOr/U61QT2C2dZVZ7Qlq+vCt4iI5GQd18G6hCyq7xxXG9ShX/juYV2AiIgkSOh96gKC+n3rmrMI/8VlIiISjr2sC8jiJyZUM5ys2qAO+z3U9djOugQREUmQLtSzLiGL6vrU1QT1936idcUZ7Ug93aEWEZGc1XE7WJeQRZ5BHfodal34FhGR/IT+LHV1L7tMaFBrKJmIiOQn9KD+hMVV3qWuJqjDvkPdlE2sSxARkYTZiibWJWQ0k6+q/HqVQT3df21db0Y9qNAdahERyUsNt6N1CVlUfZe6yqAeTqV1tRnpDrWIiOQv9IvfeQT1MOtaswh9U4uISIh2tS4gi9QEdUvW1YVvERHJ28asaV1CRiOZVcVwsmoufYcs9HsMIiISJud2ti4ho8VVdpSrCOrp/jvrWjPqal2AiIgkVBfrArKo6lnqKoJ6OD5rU5bUoxYRkcKEHtRVXdGuIqg/sa4zo9XYyLoEERFJqE1obF1CRp9V8bUqgjrsoWRd9Qy1iIgUqMKF/Uqnb5mz0kXtBAa1iIhIocJ+NcdiRq30tZWCerr/3rrOjBTUIiJSuNDvUn++0ldWCuphQQ8la8AW1iWIiEiCbUNt6xIyWvku9UpBHfYz1NtSS3eoRUSkYPVc2B2+HII67DHfYQ8CEBGR8IV98fsz/AoXthPWo97KugAREUm4sLt80xi/wldWCOqZfrR1jRltbV2AiIgkXGfrArJY8eL3CkE9KuihZGvTQneoRUSkKK1dC+sSMlpx3PcKQT3Sur6M1J8WEZHihX0bNUuPOuygDv1yhYiIJEHYaZL10nfI1KMWEZHihR3Uo1d4K3WCgrqCTtYliIhICnQm5AFPlXy13H8vF9Qz/Pi8GiutDWkU8pYVEZGEWN21sS4ho2+W+6/lgjrsMd+68C0iItEI++J3xqAOmS58i4hINMIO6q+X+6/lgjrsMd+bWxcgIiIpsaV1ARl9u9x/JSaoHZtYlyAiIimxqXUBGX3L4mXuRCcmqNelsYaSiYhIJFZzraxLyGDecvN9LxPUM/zP1rVlsJl1ASIikiJhp8qyw8mWCeqRQY/5DvsyhYiIJEsigzrsMd8KahERiU7YqVJNUH+Vd0OlFPYmFRGRZElkjzrkN1E3YH3rEkREJEXaUt+6hAyqCervrevKYFMqNOZbREQiU8NtbF1CBj8v82KOpUHt/Q/WdWWgZ6hFRCRaId9S9ctMerI0qH9ltnVdGSioRUQkWhtZF5DR/y5+Lw3qkC98w4bWBYiISMqEnSxjlv5bQoK6vXUBIiKSMmH3qMcu/belQT2moIZKowEhT/UmIiJJtG7Q476rCOqQe9TtcBrzLSIikapwba1LyCBhPWpd+BYRkeiFfJd6LH7JA1qJ6FErqEVEJHoh36Wex6Ql/7YkqGf5SQU3Fj8FtYiIRC/kHvX/Ln4vCeoxQb85K+xNKSIiyRRyjxp+XPK/S4M6XI6Qb/eLiEhStV12Hu3grNCjDvkOdStW0ZhvERGJXD3XwrqEDFYI6pDn+d7AugAREUmpNtYFZPDjkv9dEtTjrevJYD3rAkREJKVCDupxS/53SVD/bF1PButYFyAiIikVclfwxyX/uySoJ1jXk0HIm1FERJIs5B71TKZ6WBLUi4N+ilo9ahERicf61gVk9MdwsgqAX1hsXU0G6lGLiEg8wk6YX4AlQR3yHeparGVdgoiIpNSaNLAuIYNlgjrkO9TrUENPUYuISCycC7lPvUxQT7SuJQPdoRYRkfiEnDK/Agm49B3yZx0REUm6ta0LyGCZoA750ve61gWIiEiKtbQuIIOE3KNubV2AiIikWCvrAjJIyKXvkCdMFxGRpAs5qBPSo1ZQi4hIfEIO6qnM91AB8/xU61oyUFCLiEh8Qh5M5pkEVMBEvHUt1arNqtYliIhIijVwTaxLyOBXoOLPm9VhaoHTdCciMVlgXYBIEEK++P0LUAEhX/he07oAkSAsiqXVyxge7uU0kZIJOaiX9KinWNeRge5Qi8AIf0os7U5lVz5WVEvZC7lLmIAetYJa5GHfZekL5KM2jd0U1VL2mlkXkMEUoAJ+t64jAwW1lLdF/kJ/JHNiXIKiWiTkoJ4OVMBv1nVkoKCWcjbF785VsS9lGrvxkaJaylhz6wIymEbwPeqQP+eIxGuE78ybJVnSNHZXVEsZCzlpphF8UK9mXYCIkSf99rHdmV7ZNPZgmKJaypR61EVRUEt5utEfwrySLnEq3dWrljIVco96OlAz7HvUhQX1PD+Gn5jOdGYyg7l4pi33/bnVngIraLz03xtTn3qsSj3q05gG1GcN1tAELBI77y/jMoPlTmN3XvVbaw+XshN6j9p5Vgt4ru951Mn5tOH9MF7kbb5jQmyTotZiTdamBS1pyfpsShtq6LQmETvF32m27FV5nU7ap6XsNPSzrEuoRg0W4hb7WlRaV1KN+szO8ZSxyN/B1YwveYX12JKu7MjO1NPJTSJxub/UdPlNeBX1qqXctPE/WJdQrRm4Kb6pdRXVWptxOZ0wfvX78qFppQ3YiyPpSYVOcFKUh3wf85fkKKql/HTyw61LqNY4KpJ/h/oH39U4pmE2A9iXttzpF1mfZSXB3vbHmce0RoBLOWpiXUAG06hI+pjvyX5XvrMudIkxnMLmGjkrBZrmj2ahdRGARoBL+WlcfBOxmUbFdOsaMsj+Lur5/gDCurMwki7cqFOcFOBUxlmXsNQ0dtfEolJGmlgXkMF0KuKcRbhYq2f9iXN5z7rIlSzkbC7SKU7y9KB/zLqE5Uxjd10Al7IReI865KBumOX7g/zt1iVW49/cqlOc5GGaP9e6hJVMpbt61VImmlgXkMF0KmZb15BBg4zfnRbEwJvqnKNTnOThiiAnHtKbtaRchNyjnhN2jzpzUJ9n8Nx07hZyIhoBLrn50d9iXUI1FNVSHppYF5DBPGomNai/9/dbl5fFZ9zHidZFSCL8k/nWJVRrGlsT8KWrAtShft6/U5d6S/6tITUBqE8dAGrTAKhBI+pThybUoQGrUJsm1GV11qKxnkhPhJB71POoOde6hgwyHU7/ZpF1eVn9m2N8LR2mksWP/nHrEsrK/JJ+LKrr12AtmrMW67EJm9BSZ4QghRzUc5Paox7rH7IuLgdjeYbe1kVI8G5jsXUJEpt5jGXsMv/dxnfjYHbVWwICk/9VltKZl9R71LcEMjFENqGOSpdwzPH3WJcgJTSG/7I763OHZjEMSr3im4hNQoPa+wHWpeXobUbqYJSMHgn6jfASj7GcShe+0dkhGArqglV3MeKD5S4lhS0Jl+jF0iPWBYiRD9mSOxXVgQg5qOeGHdTV9aifsi4sDwOtC5Cg/ebftS5BzMzhFM7ylQrrAIQc1IH3qKsL6vetC8vDl/yow1Cq9WICnl6QON3EWdYlCBpMVoQ61Xz9G+vC8vKWdQESsGetCxBzt3CtPsybq0u4w/Dnhj2FaM0qv+r9NOvC8pKsjxVSSpX+TesSJAAX8qGi2liFq21dQrXmUXOedQ0Z1Kjyq85V+Err0vIQytuyJTzfEPJrZqVUFtGHz3zdcLt0kZjnZzKTqQDMZfnkmc2CFX76z5nf/pwJrgmOChrTmIqYtlP9YOcHnEvNkKdaqFnN1+szw7q0PPxiXYAE60PrAiQQ33I751gXEbmf/et8wxjGMJapkY3GWMU3pCFNaU4LmtOcdVif9ahTdHzXNd5a1ZtHzZD7pukI6hrFNyEp9Yl1ARKMKznJN0hNn/p3fxtP8Wksbc9iFhP5drmvVdDKt2VLOrEV6xe4FWsW9mslsCCZPeq1EtVLrWVdgARruHUBEowpPM5x1kVE5DF/eomn8alkHON4A4Dmfjf2ZDea5hnYFSWtOB+eiiT2qNe1LiwvyapWSmmcdQESkLRMJXujP9x0tr1JPMQRrEEPPyCvaVpDvvYZcFC7aqetX9+6tLxsZV2ABGqhT9KVIYnbB0xOwdjvy/3ZQbwVtZJB9KYtD+c8oUy4l76D7lFX//lmW+vS8rKNdQESqIl6a5Yso5LkP6z3iO9rXcJyfuRItubTnKI63B510EFd/eebnQK+m7Ci9mxhXYIEarx1ARKYYdYFFFu/Pz6I3vQKVbE99+dQVrhBHfSl7+qDenW3tXVxOTsRl5qRnBKtJD27IKXwtXUBRZnvjybMeTnmciz9skZ1uEEddI86U76dbF1cjhpxtHUJEqxkvFNdSifZgwsvZ6R1CRn8g/uyRHXQ96jDvUuWqbJDaG5dXk4uyvsRASkfC4pvQlJlpnUBRRjhr7YuISPPqVne/x10jzq8Owp/yjSPTT33f9bl5WB9zrQuQQKmHrUsL9QpLHNxafDvgZvPSfgMgRfyyKeE9qjhKHpYF5hFBXdGMK2diJSLVawLKNgo/6J1CTkYzKAM3w33g0bQ96gXZ/z049wANrcuMaML2FUxLRmsal2ABCa5e8S/CTdJlnV7hu+F22kNOqjJ8qdv7AaysXWJ1dqWy6xLkMCtZl2ABKatdQEFmuYHWJeQoxf4rdruX7g9akK+R519w7V0H3CodZFVasET1FJ/WjJa3boACcxG1gUUaGBixlssYnC13wu30+qpCHekWy6XIlZxj7rHaGNd6Arq8RxrK6YlC/WoZXldrQso0HPWBeThnWq/E/Sl79rWNWSQ24Y7xI3iBtpZF7tUPQbQWTEtWa3qkntPUqLXKKHTDVf6V6xLyMNn1X4n3EvftdIQ1FDHneW+5k2Ooql1yTThFfZWTEtOOlgXIAE5MKG3y35glnUJeVVbnXCDuk7YQZ3PhnNuF/eg+5UP6EsPo4uKjgP4lB0TebCJBQW1/M/x1gUU6CvrAvLyEwurGZgV7qXvOtSsY11DBvnP3FThtlly+egHP4xv+J7RfM+E2CutwfbszX60V0hLHhTU8qcd2CGhZ49kBfViZlQzjDPcwWS1qRlyj3pOEb+7nltv6b8v8JP4hV+ZzCRmMJMZzGQ6lUwHYP6S5cxiIeCZBjRcbt7XetRd5r9q0pB6NKQRjWlMK9rQhjbUTehBJpb0ZjX505XWBRRsqnUBeZpbzdfDndK3DjVrWdeQQTFBvazarhWtrFdGZCXb0YDZ1kVIAI5N8C2zcC8ZV21Onl+3F/g9ap3CJN1quy7WJUgA1uF66xKKEO4l46pV90hymK/oBKhDRcj3qMP9hCMSjV2tCxBzjXiOxontT0MD6wLyUsGaVX59vg/3ykBt9ahFLO1mXYAYa8AzbJbgmIb21gXkpS0Nqtzac/NtqIQCv/StHrWk3WYuqdNGShRW4zW6JTqmYUPrAvLSvZqvK6gLph61pF8f6wLETHdGsH3CYxo2XO6pmNAdXM3XFdQFU49a0u/IoF9YL3FpyM28RuvExzTUc7tYl5CzFtXOpx5yUOsetYixVk4DysrN2lzCD5zhXApiGuBo6wJydhgV1WzzkIO6TnonPBFJijN53boEKYmWbEIXdmHbauMimQ5gvQxzaIejDudU+72Qg7o2Netb15BBkqZ6FynU3mzJcOsiJEK1WIUG1KM5zWlJc9ZiDdZkfVZNVTwvs77uSn+YdRE5OJ5W1f4FZloXl0E9ajayriGDpE1NJ1II5y7yB1gXUa2tWK/4RkqscZ73/euQS4flz1ZX4Y/5HOtTZ5nfbkxtGlKfOjQhLZe0c3eoe9I/ZV1EFrW5MMN3Q06bRtRsaF1DBr9bFyBSEvuxKZ9bF1GlTXm7mudORZb1X77gW+siMjqLtTPsydOty8ugMRUh96gV1FIenOtnXUKVVuMZxbTkpIl7rpq3UoVhXS7N+P1p1gVm0CjsoA75YoRIlPZ0va1LWEkFD9FGMS052tC9ShPrIqpRk/5ZPnKqR10w9ailfNwY3EmuH3sqpiUPndy7tLYuokpX0CXLvjzNusQMAu9RK6ilfKzp/m1dwnIO4G/WJUjidHQf09O6iJUczQVZP3KqR12w+cz21jWIlMop7G1dwlKb8mAZjl2W4jV3z/MQa1uXsYxduSuHn5pmXWYGgQe17lJLOalw/WljXQQATTWITArm3BHuG26nnXUhAOzHQGrnsC+H3KNuREVj6xoy0sVvKSerumdyeqI3XrV4QoPIpCj13Cnua4ZwhulT+LX4JwOom9O+HHZQu2m+iXUVGbzFzjphSFnp74/G8o5PDR6ht446icxo/x4j+ZyR/FzCpbalF2ewXs57cjM/xWDb5KIWC1zNhjjT00Jm6lFLuTnK/eLPN1t6De5RTEukNnAbLPm33/0oxjGZX5nIZH5hMjOZw/yIltOIhqxFG9rQhh1pl9devNiHe5u1EVCzwq3iw53ldJJ1ASIld56b7y82WXIDHqWXYlpisprrUuXXp/uFzGAec4FZLFz69cqlF6SXnxS2Acu+TKouDWlEk6L22ykstt441WoM1IRGAU9H/qt1ASIGLnKr+b9QWeKltuAFOimmpeQaO2hqWsFk602QQSOg4o+8DpWCWsrTae5Vmpd0iZvzgWJaylTIQd0YBbVIoLq7L+heomXV5AI+oLViWspUyEG9OlBBiT+35+cX6wJEzDR3L3PRcnfj4tGRofRzdRTTUrZC7hKuAVT88T+hCnnzicStpvuX+yLWKRlX5Uo+YSuFtJS1kHvUzQm+R62glnLXzr3gXqFDDC035GLG8Hf1paXshRzUzQg+qGcxJ9yHvEVKZHf3BS/QnegStSUXMYbLXXEPtYikQwKCupl1HRmpTy0CFa6ne919zomsWmRLtdifFxjLv1xThbQIAD9ZF5BBAu5RwwTrAkSC0dHd5X7ldc4o6O1EzTic+/mZp11PV0MhLbJUKSc3zVczwHlG+o7WlWTwGIfolCKyAu9H8TGf8AmfMS/jT9alAx3ZlJ3ZggodSyIrWezrBDwz2RRWdzXDvkcN460LEAmQcxuzMccAC/1P/MxPTORXZiw93TSjKU1pynpsgHrPIplMCDima7IqUBNWpyaLrKupVsj3DkTs1XLrmb5KUCTpQk6ZZlQ4qIAKt7p1LRmoRy0iIvEJOaj/uOJd8b9/DVPIm1BERJIu5JRZJqhDHvetHrWIiMQnIUEdco/6VxZoyhMREYmJgrpolUy0LkFERFIr5KD+43p38Je+dfFbRETiM8a6gAxaAUuCupV1LRn9YF2AiIik1Bwf8kTV6wBLgrq1dS0ZhfxpR0REkmwMIQ+D+iOdK+DPzA6VetQiIhKPkLuCNVgLWBLULalpXU8GCmoREYlHyEG9FjUdLAnqmq6FdT0ZhLwZRUQkyUJOmD9vS1cs/58hmsD8kG8hiIhIYimoI1HJWOsSREQklRIU1GEPJwt5Q4qISFJ5/6N1CRmsveR/E9CjVlCLiEgcfmKudQkZ/DnHSSKC+jvrAkREJIW+si4goz+vdSciqL+xLkBERFLoa+sCMkrUPWoFtYiIRC/kHnUDVnN//NuSoG7kmljXlMGPzNMDWiIiErGQe9RrL/23ij//JeSL35WMti5BRERSJ+Qe9QZL/y0RQR32px4REUmiqUG/Oavt0n+rWPlLIdJdahERiVbYXcAqgrqddU0ZKahFRCRaIV/4rjKo21vXlFHYn3tERCR5wk6WxPWov8Jr3LeIiEToC+sCMqhT1ajvtWhoXVcGs/RiDhERidRn1gVksAEV7s9/XxrUzoU9nCzkTz4iIpI0k/1E6xIyWDaRK/73r2HfpVZQi4hIdELuT1cb1GHfpf7SugAREUmRz60LyEg9ahERKXNh96iX7TonJqi/YYHGfYuISEQS2qN2eTdVOgs16YmIiERkkQ95upMGtFjmv5YJ6gauRd6NlZLuUouISDS+Yr51CRlsgFum51yx7Lc2tK4to7DvJ4iISHKEfeF7o+X+a7mgDnvc9zDrAkREJCU+ti4go02W+6/lgjrs4WQjrAsQEZGUCDuoOy73XxXVfys0v/Gjxn2LiEjRFvqwu36bLfdfFdV/Kzy6+C0iIsX7krnWJWTQkNbL/fdyQd3MrWldX0bDrQsQEZEU+Mi6gIw2WW7M9wpBHXqfWkEtIiLFC/sO9SYr/HeigvoT6wJERCQFFNSxmcJPGk4mIiJFmeNHWZeQUZag3tS6vizC/hQkIiLhG84i6xIyWvEJrBWCekPqWFeY0QfWBYiISMJ9aF1ARi1ZbYUXb6wQ1DVdB+saMwp784qISPjesy4go5WvbFes+IWw71J/zCLdpRYRkYJ5/751CRltstJXEhbUc/jCugQREUmwb5lkXUJGiQ9q3aUWEZFiDLEuIIvEX/rWXWoRESlG2Heo67PySLGVgno118q6zoyGWhcgIiIJFnZQb0lNt+LXKlb+sbD71N/xm4aTiYhIQSb50dYlZLRVFV+rIqg7WdeZkVefWkRECjSEsPt6OQb1NtZ1ZjHYugAREUmo0IeSda7ia1UGtcvalKV3rQsQEZGEetu6gIwa07aKr1YR1Ku79a1rzegTZoZ95UJERII0zX9qXUJGnVd4E/UfKqr60bAvfi/Ss9QiIlKAN1lsXUJGnav8agKDWhe/RUSkEG9aF5BFHkG9rXWtWWg4mYiI5O8N6wKyqDqoXVW3exf6xsy1rjeDOkyjbtgj3kREJDAT/VrWJWS0JhOrTLYqe9S13ObW9WY0n4+sSxARkYQJvT+9VTVfr6j6y6HfpX7LugAREUmY0O9Qb13N1xMa1IOsCxARkYQJPag7V/N1V/UjyT/4NtYVZ1SL32iou9QiIpKj0b5t8Y3EqAa/0Tj3e9SwnlvDuuaMFmrkt4iI5OFl6wKy2KSamK42qKu/Vh6K0AcFiIhISF6xLiCLrtV+p9qgDv0u9evWBYiISGLM829bl5BFl2q/U21Q72BdcxYjmagZv0VEJCfvMMe6hCwKCOrtqGtddUZeF79FRCRHod+h3oC1qh0gXW1Q13GhTySqR7RERCQ3od+h7pLhexXVf2sn67qzeBWvi98iIpLVD/4b6xKy2DHD9zIE9c7WdWfxC8OtSxARkQR4ybqArLpm+F6GoN428LvU8KJ1ASIikgChX/hekw0yTOGVIajrutAf0Qr/M5KIiFib40OfPLRLxu9WZPrmzta1Z/Exk3SXWkREMnot+Eezdsz43YxBHfpwskpetS5BREQC95x1AVl1zfjdjEEd+rPUukstIiKZLfYDrUvIojGbZPx+xqCu60Kf8fs1Funit4iIVOtdpliXkMXO1Mj4NsiKbL8etqkMsS5BREQCFv6F7+5Zvp8lqEO/Sw3PWhcgIiIBCz+oe2T5vst85XieX5V51uuQ0Tr8gHPFtyMiIukzwm9pXUIWrRifJcOy9KjDv0s9lk+tSxARkUA9b11AVrtl/YmKbD+QrUtu71nrAkREJFDPWBeQVbY71DkE9R7W65BV+H8GERGx8K3/zLqELBy7Zv2ZrEG9Jc2t1yOLL/hWj2iJiMhKHrcuIKvNaZ51lFXWoK5w2a+fWwv/HoSIiJRe+EGdy+3lrEENe1qvR1bPWhcgIiLBGeVHWpeQVfY71DkF9W65/JCpofysi98iIrKc8PvTdbO8N+sPOWRwU7eV9bpkUckT1iWIiEhgBlgXkFUX6uUwD0hOneXwR36H/7lJRERK6TP/lXUJWeX2AHRKgvojftDFbxERWSr8/nRud6hzDOqtWd16bbLwuvgtIiLLCD8V1mKLnH4up6Cu4cKfn0wXv0VE5E8f+e+sS8iqV45vqshxQPfu1uuT1Qi+0sVvEREBoL91ATnolePP5RjUexD+C6qetC5ARESCsNA/Zl1CVvXYJcefzDGo13S5XUm3FP6fRURESuElpliXkFV36ufYA66Za5N7MNx6rbIYxTDfKfyO/wrm+GF8zDAm8jvzaU5LtmB7tqVG4tZERCQUD1oXkINcL3yDy/XG7kd+G+u1yuosbkhQvM3wA3mKl5lbxfeacSCnsFmC1kZEJBS/+7WYb11EFo7xtMzxHJ9zUHu/DuOt1yyLZvxMrUSE21B/OwOYl+WnduNKkneNQETE1m3+dOsSstqaD3M+u+c8jbdz+1ivV1aTecW6hKzm+bv8Fn57+meNaXiNrTnDz9JodhGRPKRpxDfkEdSwv/V65SDsP88sf6Nfn5P5NOffqORWtuRLRbWISI6+8x9al5CDfII650vfsMivwe/W65ZFXSbSJMiLxVP8TdzC1IJ+txED6RrkWomIhOYi/2/rErJam7E5TnYCefWoa7p8PgHYmBfkpHHT/SW+Df8qMKZhBnswRL1qEZGsFvn7rUvIQa5zkv0hr1dNJ+Hid2iD8uf4q3wb/sXM4lphX75TVIuIZPEyP1uXkIOeef10Hpe+Ya5vxmzr9cu2Qoxiw0AuEy/wd/NvJkbU2hYMpU4gayYiEqZ9/AvWJWS1CpOpG1ePup4Lf85vzz3WJSzxlN+YMyKLaRjBFdarJCIStIn+ZesSctArr5jOM6iTcfH7fuabXyT+0HfxBzE64lb/j9HmayYiEq57WGRdQg4OzvPn8wzqntS2XsOspvC86fLH+z5+O4bE0PJ8wh/LKCJixSdiINkq7JHnb+QZ1E3cztbrmIO7zZY83Z/n29KfuDq+DzFefWoRkSq9zvfWJeRgH+rlOdooz6BOxsXvQXxvEGeV/kHfnmtinWF2EfeXfsVERBLhv9YF5CTfC98FBPW++f9KyXnuLfky3/JbcjS/xr6cR0q+ZiIiSTDJP2ddQg4akv+g7LxTt4Xbzno9c3A/i0rYpx7n+/hufFaSZX1tcrVARCR0/2WBdQk56Jn3he8CghoOtV7PHEwo2YCyGf4C366kc4y/U8JliYgkwyJ/h3UJOcn/wndBQX0INa3XNAe3lmAZlf6/vh1Xl/i9p8NKujQRSa9Z/ic/xk9OxVW6Z4N/ETNAw7xHfAOFZG4z192H/zrJN/nSd4x1Hq/P/cl8YLBmowyWKSJp8pV/jlcZyeQl/13Lr83mbM4ubEvNhM5/eLN1ATnpVcCF7zynEP3Tg/5o67XNwencEtsON8dfzX+M7oe04fuEHkgiYu8t/x9er/a7TdiNw9gzcdMVj/SbxPZYbJSeYb9SBfVMvyZzrNc3q4b8RKNYdrYX/F8Ya7ZeqzAzYYeQiIThV38Oj+bwc6tyKKezcYLONCd5u/kzcteQXwvqURf0rFVDl9+bP2zMjGWI1wTfx+9jGNMw13DZIpJcQ/2WOcU0TOV2OrKrf9ZXJqGbyjSfjAdX85/q5A8FPhR9uPX65uQ2fKQ72SJ/g9+wpCO8q7KYZBw6IhKSJ/3OTMjrN95kfzblYV/Kh10Lc2/w73X8QyEjvqHAS9+wwK/JVOt1zsEgdo3s4s0YfwzvWq8QUJe5CbogJSIheMwfVfDrKtanL4dTEex5p9K3S8TUoU35mdql7FHXdgdZr3NOohoH6P3NfpMgYhoaWRcgIgnzkT+miLdKfc9RbMKAYPvVzycipuGQAmO64KCGw6zXOScv8HUEO9dE35Mzgxk+t451ASKSKFP8wUXP9jCK3uzsPwsyrK+xLiBHfQr+zYKDeidaWa91Dioj6FM/4DfiJesVWUZb6wJEJFGOZlwk7bxDJ87wUwML6499HC8Vjl47ti745kHBQV3hDrFe75zcz5QidqtZ/hB/DNOtV2I521sXICIJ8qqPrqOxmFvZgBv94oDC+irrAnJUzOwjRbwKKxkjv+dwZ8G/+53fhiesV2Al3a0LEJHE8P4fEbf4O2ezNe8HEtU/+GetS8iJKyoxiwjqLV0H63XPyU3MK2iX+srvGOB0nZ1oH+zYSxEJzdMMj6HV4XThOP9rAGF9HYutS8jJLqxbxJm7qJdLH2m97jmZlOMj/sub7w/gF+vSq3CqdQEikiD3xdSu5z425EbjCVF+93GtX9SOKuq3C3yO+g+/+LWLGPJfOh35HJfnp5lr/d+sy67CBnyV2CnzRaTUfvctYn4nwfbcSbyvP8rk3/4iq0XnpT6/0NCqR72m29N6/XPyJa/m+RsL/bXWRVfBcbNiWkRyNiD2Vwe9z5b8w8816VfP96V4nXEU9i8qposMajjeev1z9J88f/4tJlqXXIXj2UMxLSI5G1yCZSzkP2zMKwZR/WCQ5+mqFP4E9R+KDOq9aWG9BXIymPfy2o2eti64Cp240boEEUmUOAaSVeUH9qSX/6mkYb3Y/18pF1eEtdi1yBaKDOqarrhb5KWTT5+60j9nXe5K1mcg9dWfFpGczfLflnBpA9mUh0oY1Y/wXQnXrhhHUqPIc3dRg8kAvvUbJuJ13Y7hbJ7jxhrtQ5v9a13eKmpwv4iUn8/9ZiVf5oHcTrMSnKsqfUe+KvnaFWYkHYrcIkX2qKGd62K9FXLi6Zfzz4b259+M9xTTIpKnGQbLfIqOPFOCvtvTwZ2nq9O16JiOIKiTM6DsSb7NcfcZaV3qcvZgMC0V0yKSJ4ughkkcQO/YZwTPveNl7eQI2oggqHvTxHpL5GQxV+f4k6OtS12qgksZSCPFtIjkze6NfwPYnDdijOqBfpjZuuVndQ6MoJUIgrqeO9R6W+SoP+Ny2nVmWhe6xBq8Sl9X7DAEESlPTQyXPY4eXBjbvGVXGq5Zfo6ibgRn8AiCGo6z3hY5WpDjnzeMN08fzBd0V0iLSIHWMF265yp6MCmGqH7DDzVds3ycGEkrkQR1Z1f6sYWFuZcfctht7IO6BU/zhCvF2EkRSas1rQvgTbbiw8ij+l/Wq5WzHSMYSAYRBXVy+tQL+bd1CVk5TuFr9ldIi0hRmrK6dQmMZ2fuiTSqB/l3rFcqZydF1E5EQX0kdc02RX4e5PusO81qhvW15W1udxo+JiLFcq6rdQnAPE7gDL84srC+xHqFchbNQDKILKhXc4eZbYz8LOSKrD/T1Ki2VbiUz9lRIS0ikQghqAFu5UDmRBLVLybo/vTRkQwkg8iCGs602hZ56883WXYYi8tFFRzFaPq6qP6wIiI9rAtY6jl2Y0bRUe39ZdYrkofo5hiJLKg3d9ubbIr8Lc56n3r9kte0KyN40K2hkBaRCG3itrUuYakhdOP3IqP6GT62Xo2c7RTRQDKIMKjhLxbboiCPMCrj7tKppNW04wkGuU0V0iISudOtC1jGMPYu6gJ4pe9rvQp5iGogGUTwUo7/WejXZULpt0ZB9uOZDMG4yDdibknqWJOLOIlaCmkRicV83yao83JPnqFmgWe8x3xSxkJBU8ZHdoc60h51LRfFnKal8SzvZ/iEUtNtUYIaVuM/fM/pTjEtInGp4x6I8jRftIH8tcDfXOwvty4+DydHGNORBjWcRO1Sb42C/T3jd/eNeekNuIDRXOj0hmkRiVd393/WJSznJp4o6ELug4l5XxbU4tRI24vw0jfAEf6RUm6NorzIXtXG5Hi/Tmxv2a7NMfSlhSJaRErkBn9ubGe0/DVmZN5vBJzr2zPeuvCcHc7DkZ7hI74mkpwBZXAh1U8Yv3ZMY9grOJivuNMppkWkdM52d1LLuoilpnNG3r9zfYJiOvrHlSMO6m1d55JtimJ9Qabe/2mRL68GhzGKJ1wbhbSIlNiJ7g2zqZxW9ixv59XBn+JzfUlxCLZnm4jP8pGPMsj/k5Kdi5lf7c5yCB0iXFItjmEUj7j2CmkRMdHVvUd76yKWym8i0H8x3brgPJwVeYsR36OGeb41k0uzNSJwPWdXG53v+F0iuatTh2O4gPUU0SJibKY/kceti1jiUzbL8aw4xm/EAutyc7Y2Ywp+AK06kfeo67po3r9ZGpfzW7VZvJMr9DGC/6nDSYzmDqeYFhF7Dd1j7sZAns55IOef/EeCYhrOiDymY+hRwwS/LgtLskGicCY3VrtRF/luvFtwy004kb+iaUFFJCwf+SP5zroINuSrnM6OH/ttAhqxnk19xrF65Gf9GJ6EX8sdVIrtEZHbGFntPlDTvcBmBbW6ITfwE1dr9m4RCc7WbgSnYH1y+pqJOeXvhQmKaTg6hpiOJajhvLi3RYQWZZz6pLEbmOegslr0ZjBfubNcA+vjQESkSg3c7e4VWhpXkcsEJs/5N42rzIeL6RHlWIJ6C7dbrBsjWi/wWoYPbK3ckJxfFbcul/Ijj7uuimgRCdxu7lMONK1gTNafWOCT1O2DPdgolrN/TJPAJmvjnsOiDFHdxL3K7ayasYXWnMX7jKGvW0shLSKJ0NQ96Z7Icm6L04ysP3FdAPfS8xH9g1l/iGEw2R+28sPi2hYxuIsTswTsLH8Pj/Exi5f76lpsRVf2ZGPFs4gk0jh/DG+ZLPk/XJjxzPmLb8dMk8oK05HPcbFkQWxB/bg/NMYNErXmfEOTHDbwVD+KH5gDNKYV67OmAlpEEs77/pzLbyVf7h2cnPEMeqy/32qTFOQhjogpEWIL6sV+Q0bHtkGil+kxLRGRdJvoz2JAiZf5HPtkOOsO952pNN0m+VmPb2N4gvoPsb2otIY7O66mY3ErnyXpGQARkQi1cE+4gaxT0mVunuF73p+dqJiGv8UW0zH2qGGeX49fYms9ejvwbkz3F0REkmCmv4hbVxiJE5e1GZvhjPuwP9J6Y+SlOT9SL7b8iK1HDXVdtK/OjtsQHrYuQUTEUEN3o/uYrUqyrH0yxPQcf6H1psjT2THGdKw9avjdr8OsGNuP2hp8Q2P1qUWkrC3y13I5c2JeyhC2r/Zs+3ffz3oj5KURY3MajlyoGHvUsJo7Ls7mI/crl1uXICJirKa7wH3NIbEuY7MMMf2tv956E+TptFhjOuYeNYz1G7Ao1iVEqxYj9Ey0iAjwkT+TD2NqewAHVXOm9b4bb1uvel7q8kPMj+rG2qOGdVy8n8qitpDjqdTobxERtnZDuIOmMbTcOcPkpf0TFtNwXOwzasTco4Yv/OYJG2R/JyepTy0iAsA034/rI30jdA0+pFM1Z9mpfiN+tV7lvNTkG9rEnBkx96hhE3dA3IuI2PlMUJ9aRASAJq6fG86uEbZ4QbUxDf9IWEzDIbHHdAl61DDSb5qwPvVhPKI+tYjIMp71/8jpxZTZ7MSgaqcG+cRvW6KnuKPiGM7msedF7D1q2NjZvkotf4/yivrUIiLL2M99wX1Fz13WhserjenF/uSExTT0KkFMl6RHDV/6zRLWp16PL6mvXrWIyHLm+zv5N5MK/O01eJe21Z5Zb/ZnWq9enhzD2KIESVGCHjV0TFyf+gc9US0ispI67kw3hn40KeB312Zwhpge5/9pvXJ5O6AkMV2iHnUS+9S1+KgklzRERJLnN38VtzA3j9/YimdoleGcurd/yXql8lTBp2xSkpQoSY8aOrqDSrOgyCzkGBbqTrWISBVWd1e7MVxI45x+2nESgzPG9EOJi2noXaKYLlmPGkb5TRLWp4bLuVh9ahGRak33t3MTEzP+zPrczJ4Zz6VT/MYF3/e2UoMv2KhECVGiHjV0SFyfGq7gC/WpRUSq1dhd6MbyODtX8/1WXMvILDENZyYupuGwksV0CXvUyexTb8GH1FKvWkQki6/9AJ7is6X/3Zjd6c0+OZxBX/J7WxeftxqMpH0agxoO9Y+XcGnR6McFCmoRkZz86kcymcaszwYZ3je9rBm+I+Oty87bsdxbwmQoaVAnsU9dh2F6n5aISExO87dbl5C3WnxdgolD/6dk96gBOrjepVxcJOZzIot1p1pEJAaD/Z3WJRTgmJLGdIl71PCV3zRR76f+w3+4UH1qEZGIzfSb8YN1EXmrzXe0LmkmlLRHDRu5Y0u7wEhcwifqU4uIROzcBMY0nFjimC55jxom+LbMKfEyi7cJH1NHvWoRkci85HuSvD5QPb6jZYnToMQ9aljLnV3qRUbgCy6yLkFEJEWm+ZMTGNNwTslj2qBHDTP9Bgl8uL2CQeyiPrWISCSS+LguNGU0jUueBCXvUUNDd2HpF1q0SvowNYkf/0REgvNMImMaLjGIaZMeNSzwHfjeYLnFOob71KcWESnSJL9JAq+rQhu+orZBChj0qKG262ux2KLdz1PqU4uIFOn4RMY0/Mckpo161FDpOzPcZMnFacII1lWvWkSkYLf5061LKMjWfJDjtKhRMwpqeNXvYbTk4nThbWooqkVECjLKd07gI7oAb5oNKDa59A2wu+tuteiivMe/rEsQEUmo+f7whMb0vobP/Zj1qOEzv2XiXtEBelBLRKRQZ/qbrUsoSA0+M3w9k1mPGjZL4Cs64I8HtX7ToDIRkTy94m+xLqFAJ5i+RdGwRw0/+I2Yb7j8wu3P0+pTi4jkYZLfjF+siyhIA76jheE537BHDeu5Uy0XX4RnuEN9ahGRnHnfJ6ExDeeaxrRxjxqm+XZMNq2gUHUZwpbqVYuI5OQ6/1frEgrUgm9oaHq2N+1RQxN3hW0BBZtHb6arVy0ikoOP/T+sSyhYP+OYNu9RQ6Xflo+NayhUL54zevxdRCQ5pvktE/nmaYDtGGJ+njfuUUOFu4GkZt0L3GBdgohI4Lw/LrExXcEN5jEdQFDD9u5Q6xIKdgFDrC9JiIgE7RqesS6hYMeztXlMB3DpG+Bn357Z1kUUqBUjaBrAH1JEJEQf+J1YYF1EgVblG5oFcH4PoEcNLRP5huo//MRRVIbwaUdEJDiT/cGJjWnoG0RMB9Kjhvm+I6OtiyjYJVwWxB9TRCQklX4vXrUuomAd+JRaQZzbg+hRQx13lXUJRfiX3lMtIrKSKxIc03B9IDEdTI8aYFf/pnUJBWvMh7QP5E8qIhKCQX4PFlsXUbCDeSKYc3pAQT3Kb85C6yIK1p4PaRzMn1VExNZY3zmh804C1GMU6wZzRg/k0jdAB3eydQlF+Iaj8eF86hERMTTPH5jgmIYLA4rpoHrUMNW3Y4p1EUW4gn8G9KcVEbFyrL/fuoQitOYr6gd0Ng+oRw2ruv9Yl1CUS3glpM89IiImbkx0TMMtQcV0YD1q8H4n3rUuogir8gHtgvoDi4iU1tu+B4usiyjCgTwZ2Fk8sKCGb/xmzLcuogjtGcqqgf2RRURKZbzfiknWRRShEaNoGdg5PKhL3wDt3XnWJRTlGw5hUWiffkRESmKePzDRMQ1XBhfTAfaoYZ7flO+siyjKX7gpuD+0iEj8jvEPWJdQlG14n4rgzt/B9aihrrsrsS++/MPN3BHe5x8RkZhdnfCYrsntAcZ0kEENO7sjrEso0pm8qagWkbLykv+HdQlFOpctAozpIC99A/zmN0z0E9WwGh/QNsg/uYhI9D71XZllXURR1mEkDYI8awfZo4bVE/2SDoDf2ZepYX4KEhGJ2C9+n4THNNweaEwHG9RwLN2sSyjSV+zHfEW1iKTePL8/462LKNKh7BloTAd76RvgW79pop+oBjiUR3DB/vFFRIrn/ZE8Yl1EkRozirWCPVcH26OGdu4C6xKK9hh9rUsQEYnVZYmPabgq4JgOukcNC3xnPrcuokiOezkm4B3Awij/EV8xhknMBqAhzVifjdiGdrr+IJIwj/ojCDlHctGFd4J8LOtPQQc1fOa3ZoF1EUWqxYv0CHgXKB3v3+Qxns8wb1ELenEYOymuRRJisN8t8bco6zMi8Hc0BB7U0NdfZl1C0RrxLpsGvRvEr9I/xFWMyulnN+SfHB7051sRARjluzDVuoii3cBZgZ9tgg/qhX4bRlgXUbR1eD/oOyBx+9Ifx8d5/cYW3F/2H25EwjbBb8c46yKK1pW3g+8WBB/UMMp3Yp51EUXbmHfL9q1aj/njmZP3b9XmNo4v0y0mEr6Zfkc+tS6iaPX5NAFTUwU86vtPHdxF1iVEYCR7MSf8T0UxeNAfWUBMwwJOoF9ZbjGR8C30B6UgpqFfAmI6ET1qWOR34CPrIiLQi6epmYCdIkpP+MNZXPBvO+7ihDLbYiLh8/447rcuIgI7MDj4y96QkKCGr/0WKbj8DSdxZwJ2iuh84ndkblEt1OQtupTVNhMJ30X+39YlRKABn7JBIs4uCQlquNonf/oTgEvpm4gdIwoTfGcmFN3KOnxKk7LZZlI6Y/1g3mMcPzGPxjRnW3aiayL6V9bu9KdYlxCJWzg9IX/txAR1pd+J96yLiMRN/CUhO0dxFvvdeDOSls7m+rLYYlIq4/2jPMJnVXxnA87gZOpqf8vgGX9wEbezwtGNQYmZsSExQQ3f+C2KvIwahho8xkEJ2T2KEd3FsTp8zbplsMWkFEb463mURRl+Yn1uYzftb9V41e+T+EmoABryeYLOKgkY9f2n9q6fdQmRWMwRvJKcz0cFGuT/E1lb87ndenUkFb703f2W9M8Y0/A9e3C+r0z9MVqIof7AVMQ0XJ2gmE5Ujxq834eB1kVEoh6vsGOCdpN8/e43ieDu9P+sxThqpHh7SfwW+X9wfZaIXlYvHmEV7XPL+cLvzO/WRUQiSZe9IWFBDZP9pvxiXUQkGvEGWyVoR8nP4f7RiFscxpap3VoSv9n+0Lw/5G/Ha4rqZXzvuzLRuohINOEzWifqL5ugS98Azdz9JGr7VmsGezIqWZ+ScvZs5DEN71uvlCTYLN+tgGtxQ9mXuSk9RvM3wfdISUzDHQmL6cQFNezuzrIuISJT2I0fUngamOJPjKHVr61XSxJrsT+0wAmT3uQIfAqP0fxN83vzg3URETmeQxIW0wkMaujH5tYlRORnujMhdaeBvzElhlbTccNDLJzLiwX/7jMk/+19xZvp90jFdKEAbbnBuoQCJDCo67hHqG9dRETG0INJqYrqt/2DsbSb/FfpiY0X/U1F/f7lDEjVEZq/2X4vPrQuIiK1EjpEMIFBDRu5a61LiMwoujMlNSeCBf404lmZ2tarJok0veg5tDwn8mNqjtD8zfX7pGSqKYDLEzqEN5FBDae43tYlROYLuvNbSk4E/fgqppbrWq+aJNJ5/FR0G9M5isUpOULztcAfFNH8giHoynnWJRQooUENd9DauoTIfEZ3fk/BieC7CCc5WdFa1isnCfStvy+Sdt7jKutVMbHAH8hL1kVEpgkPJXY2hsQG9aquPzWsi4jMp/RgauKj+rQY33C2nvXKSQJdlMcEJ5n15dPEH5/5Wuh7p2SCqT8k76Gs/0lsUMOO7nzrEiI0nJ7MSvSp4CE/KMbW21qvniTOKP9kZG0t5MQyu/y9yB/Oc9ZFROi4BD6U9T8JDmq4nB2tS4jQ++yR4Kie4f8aa/vbWq+gJM49kQ5s/ISbrVeohBb7Y4juY4699RP5UNb/JGwK0RVN8Fvyq3UREdqJgYl8eAAu8FfH2Pr6jE7kVhE7C3wrJkfaYn2+ZL2y2A8X+aN5xLqICNXi/YSO9v5TonvUsJZ7JEV3quEd9mBGAj87/Vjks6rZ7GS9gpI4gyKOaZjDudYrVRIL/eGpimm4MuExnfighm4uXTMHDaFbAkeAXxjjMDKAfaxXUBInjoeKnuXVxB2b+VrgD2GAdRGR2pt4b8uVQsIvfQN4v3+qBj3AFrzO6gn6BPiB3z6maU7+UIcpCb0hIHY6+eExtLoRn1ErxfviAt87ZWfT1gxP1Nm0aonvUYNz96Xs4Z0RiZqtzPtzY41p2EMxLXla7D+Lpd2vuN161WI01/dKWUzX4rEUxHQqghpWdY9Tx7qISH3KjkxMSFQ/ztCYl9DHehUlcSazOKaW+ybw1lRu5vh9eM26iIhdw3YpiOmUBDV0dtdZlxCxr+jOLwk4ISzwF8W8hNXY23olJXHie9va1JTOUjbT70GcMyFYOJgzUxHTqQlqOM0dZl1CxEaxMz8FH9U38H3MSzicOik52KR0GsTY9k0JOC7zNc3vzrvWRURsY+61LiEyKRhM9qfZfmtGWRcRsda8TruAY2qqb8O0WJfgGMlGAW8BCVOlb8Ts2Fo/hdtTtU/+mqL3Tf+pIR+m6MyRmh41NHDP0Mi6iIiNoysjAv4sdW3MMQ09UnSwSelUuN1ibP2/fBPwUZmvsb5r6mK6gkdSdeZIUVBDO3c3KfrbADCJbrwX6Enht5inOQH4i/VKSkLtH2Pbi0jP7A0j/Q58Z11E5C6hZ6qiIFVBDb3d361LiNw0duflIKP6KmbGvIQO7GW9kpJQ+1A/xtYf57Mgj8l8feJ35mfrIiLXi4utS4hYyoIa/kVP6xIiN4f9eCy408JkH/8TpZdQkarPxVI6jd3hMbZeyT+sVzACb/hdmGJdROQ60D91543UBXWFe4SNrYuI3AIO58bAovpKZsW8hI042HolJcFOj7X1l3g7sCMyX8/7nrEfw6W3Os/ROGUxncKghobuaZpYFxE5zzn8J6ATw0R/Z+zLUH9airG5i/flqHHPIBCv+/wBMc/Qb6EOz7FBCs8aKQxqaOeeSNU7tf7g+Qcn+kWBhPUVzI15CRvR23olJeFOjbX1IbwUyNGYvxv98bHN3WbHcTc7pDCmU/Uc9fL+z59vXUIs9uUR6pvviuN8O+bHvIxHOMx8PSXZ5vvWTIqx/a35MIH76GJ/BndYFxGLi7k8gX+PXKSyRw1wnjvWuoRYPEc3Jpt/uro29pjeiEOsV1ISr447Jtb2P+Id82MxX7P9fimN6QPpa11CbFLbo4Z5fic+si4iFuvzMm0NPzlO9a1jH4Si/rREYYxvF+sl3j15KVH76W9+H963LiIWnRgcwLXGuKS2Rw113bO0tC4iFt/TlWGGn7DuiD2mt1B/WiLRxh0Ya/svMzxBfZ3v/XYpjem1eC7FMZ3qoIYWbkDKXn/5p1/ZiReNThAL/W2xL+MGjfeWiPwj5tkKr7FewZx96LdL4RxkAKvwEi1TfcZI8aXvP9znj7MuISY1uZPjDHbO+33cd/8PYkCqD7p4zPefMJIfmEYlTWjFxnSmobYjsJd/OcbWa/B1Ih4IesYfEfuTGjZq8Ay9EvAXKEbqgxr+6a+0LiE2Z3J9yfuem/vPYm2/NiMTceILx3z/DA/xFnNW+HotduBQDqNRmW/Nd/2OsbZ/KrcFv4Vv9OdSaV1ETK7jnOC3f7HKIKi978ND1kXEZi8eLemJ+BW/Z8xLOJ+rUn/YRWe2v4VrmZzhJxpwKufTrKy3aVf/Xoyt1+EHWgS8fRf4k7nfuojYHMc9AW/7qJRBUMM8350h1kXEZguep1XJdtXd/Ouxtt+cb1M4AWBcnvRnMjGHn2vEvzmtjO/7v+jjfQPA37ky2G07xR/IYOsiYrMbA6kV7LaPTlkENfzmt+db6yJi04Ln6FySnfVbvyHx7jF3cHIZHHZRmOVP4PE8fr4rjwfd74vXln5EjK03YixNgty23/lefGNdRGw68VaZjMNI9ajv/1ndvUQz6yJiM5Edebgkn7jujjmmO3B8KVYjBX702+YV0/Aunfi4PD6XV+G8WFufwV3WK1il1/3WKY7p9XmxTGK6bHrUAO/57rHPp2XHcT7/wcW62y7wrTLeDS3ea/QokwOvOD/6bvxQwO+twvPsUpZbeLFvz/cxtt+KMcFdgr3Ln8FC6yJi04z3aBfYFo9PmfSoAbq4e2J+otKS5yqOZG6sn7uejzmmD1RM52S071JQTMMs9uG98vlsvowaLt53Xf3Ek9aruJyF/gx/copjuiGvlFFMl1WPGuByf6l1CbHanKdZL7bd9yD/VIy112cU64bPERYAABtzSURBVJTRoVeosX5nfizi9xvwEjuW4XZe7DvydYztb8XHwWzVKf4Q3rQuIka1eIHdg9napVBGPWqAiznauoRYfUpnBsX02WuWfynW2i9XTOdgqt+lqJiG2ezDd+X1+RyAGu7iWNv/hKGBbNXhfqtUx7Tjv2UW02UX1M7dza7WRcTqN/bgqlhOGC/GOq/RJpwVY+tp4f3xBV70XtZ0DmROIKFSSoeyaazt32i9ggA85Lsw1rqIWF1LnzKL6bILaqjlBtDRuohYLeZCjvTRn4hfi7Fmx83ULLuDL3938Ewk7XzBP6xXxUBFzPepn2Kc8cefBf40f1RKJwr90/llMA/ZysrsHvUfJvgdirx8GL7NeCbiu9VtfPF9ueocz3/L8ODL1xy/bmTD+WrxLeuW3Tb3fks+jbH9C+hnuE0n+968bbf4kjich2J+tiVMZdejBljLvc4a1kXE7DM683qEn8J+jTGmV6dfCbZI8j0a4aj7hdxhvToGnOsba/t3Mcus5zPMb5X6mN6V+8oypss0qGEDN5BVrIuI2W/sSV9fGdGJI867XlfRtCwPvnw9H2lrz1mvjol93dYxtj6VB43W6y6/PeOMll0qnXmW2mV6pijToIat3HMpfVf1/yzmMnbj10iiempsVW5P3K/NTIfF/t1I2/uaCeV434u+sbZ+i8EazfSH+pNZYLDkUtqAF1ilTGO6jIMaurn7ymD132BrPojghNwkpvrqclcZvywiH59G/mHpbetVMrGn2z7G1r8q+YQyn/pOeU4mm0SteJ01yvg8kf6kyuAwZ/H5t9TG0ZWrvC/y9LFaTNVdxcZlfPjl49MEtJgM8Y6IuLek6/Kg34HvSrpEC814tQyHPi6rrIMaTnX/tC6hBBZxIfsxtaioXpvaMVS2C2cYbZPkiX6UQNrvaVanq+sVY+tPMKNEfeq5/kR/NHNKszBDjXmFDmUd02Uf1HCF+4t1CSXxPFvwYREnkLpui8hrasR9uuyds+iDOt3TYmRyNTVja3t2iS5Ef+O34b8lWZKt+gxky7I/S5R9UMP17G9dQkmMZWduLeIS+A6RV3S9Jg3Ng4I6Ohu6Y2Js/Z4SrMH9vhNflGA51uoxkC46S5TnhCcrWuB78rp1ESWyGw+wZkE7/kd+m0gr6cXzOgDz0N5/G3GLFSws2ysaE3w7ZsfW+qdsFuN2neFP4+H4mg9ILZ6mZ5nuoctTjxqo7Z6ks3URJfIanQp8bcfWbrMI62jKXdabImFmRN5iZYxRFbq1XJxzy98fY9tD/KZlEtM1eFgxvYSCGoBG7jW2tC6iRCawG2f5BQWEdZSnttsL7NeXr1kxtDnTeqUMXRjj7IRPUOxTFlVb7K/yu5TJLQvHHRysc8QSCuolmrhX2Ni6iBLx3MT2fJv3qeRoOkVUwZkcpEMwL97HMbo3jvBPioYuvheTTODjGFod53fhQhbGt0mCcg0n6ByxlIJ6qWbuDTa0LqJkhrE5N+YZ1RXuOmpEsOztucZ69RNnNpUxtFrOPWo4hTaxtf1y5C0+5Tcn2rnpQvYfzlVML0NBvYw13KusY11EyczlbA71v+cV1ju6i4te7ho8QS0dhHmKJ1LLO6hruytja/vTSFub7o/xB8U4jW9o/smFOkMsR0G9nNbunTKKanicDjyfV1RfTM+illiTx2mpgzBv82NpdZ71ahnrTZeYWo7yI9B7vhMPlGJzBOIMrtAZYgUK6hWs415nTesiSuhX9qWPn5lzWFe4p9i7iOVdxU46CAuwOJZW47icniTO3RzJzZyVRXUOmesv9Dvxfek2ibmjudG6hAApqFfS1r3G6tZFlFR/NmNwzlFd2w3gwAKXdDjnWK9sQsUTqeUe1LC5OzGWdqO5LveB35yryuqvdDj3lO2z/ZkoqKuwiRvEqtZFlNQP7MzJfk6OYV3PDeCGAiZh7M69Zfra9+IpqOPy71g+lncvuoWF/iq/I1FPchO23jxADZ0hqqCgrtLm7iUaWhdRUp672IqPc4xq585yQ/OcJGYPnqWODsICKajjsprrG3mbjSj2VZpf+m3L6FGsP/TmYWrqDFElBXU1tnXPU9+6iBL7iu35p5+XY1hv5T7gHtrn9LNr0o+BNNBBWDAFdXxOJco59wBOLuoj6QJ/ue/EcNNtUnqH84hiuloK6mrt7F4ts141LOJKOvJWjlFd4Y5zo3iOgzJ8pKnJLtzPj1zgdEmrGArq+NRwN0TaXp2i5vAb4bfjUhaYbpHS00XvzPRSjoyG+L1imGM5dI4T+T8a5XHYzPVv8gnD+Z4p/EYFDViVtnSkE3uwqg6/CHzmN4+h1cfprb8OAL39gMjauoJ/FrhV5/rLuCamEf4h00XvbBTUWXzidyujiQb+Zy1uZT8dOsEY4eOYi/5RDtXfGIDxfuOInn3egg8LnNBnsD+xzAaP/UExnZ0ufWexlXud1ayLMDCB/entJ+tzXCDiuUhdfn236qztroiknRY8XVBMT/Mn+50V01INBXVWndxrZRnVMICNeURRHQTdo47b6RT/vvVGDGTdAkLnCb8hd1GOh5qGkOVGQZ2DTu4NmloXYWIyR7CL/6oczyCBUVDHrYa7i9pFtbAmb7Nl3qEzxu/lD+FX69U3oSFkuVJQ52RzN5gW1kUYeZvNOMvPVlibUlDHb1N3WRG/vRlD2CLP0Fnor/Ibx/CmrWTQRe/cKahztJF7k7WsizCykJvYlJcV1YYU1KVwPjsV9HuOk3ifNnmGztt+My4s2xejKKbzoaDO2YbuTVpaF2FmDHvRy49TWBtRUJdChbuvgAlFO/Eud7r6eYXOL76P34WvrFfYjGI6PwrqPLQv66iGgXTker9IYW1Ab88qjfXc43nNYt+RB/iIHfKKnMX+Jt+e/tarauhoDSHLk4I6L+3cu6xvXYShmZzLlrypqC45PZ5VKru6/tTL4efqcgCv8Dl9XH5ve3rHb8VZZTiN0v+czn0aQpYnBXWe1nND2Ny6CFNfsCu9/BiFdQroj1iVQ91XXM+u1Y4BX5+jeYhfecrt7vJ7G9xPvo/fhU+tV9DUBdyS51YTzUxWkGm+J0OsizBWm1P4V17TjEox3vLdYmj1Nk7VX7BaC/3XfME4pjENT2PqsC4bsCFrFLTN5viruZq51itl7AL6aY8rgIK6IHP8gbxiXYS5FvTlBL3mvSTe8TvH0OodnKy/Xgl4/yTnMda6DGOOazlH+1tBdOm7IPXdc/S2LsLcRE5mG97XZ70SiOdA1eFfCsN8V3qXfUzX4G7FdMF0pBaotnuEE62LCMAndOFIP1ZhHTMFdTKN9X381mV/owxq8TDHK6YLpiO1YDXcnVxgXUQAPA/TjpP1Ao9YKaiTZ6q/0G9Ifz0ERx2e4BDFdBF0pBbBuX7uBrT/wQLuoj1X+XkK65jEc6DWsF6t1Frg7/Ltuaps5x1bVgNe0Ctzi6SgLtJZ7r68JkhIr6lcSFvu8osV1jFQjzo5vB/gN+JkJlsXEoQmvEYPxXSRdKQW7Wj3cJFv3UmPnziZzgxSVEdOQZ0Ug/xW9GaMdRmBaMZbbK+YLpqO1Aj0di/T2LqIYIygB939UIV1pBTUSTDU9/A9GG5dRjBa8g6bK6YjoCM1Et3ce6xtXURA3mB79vbDFNaRiedusg7/6Azze/vtGWRdRkDa8S4bKaYjoSM1Ih3dh2xhXURQXmIrevgRCutIqEcdspG+t+/MS9ZlBKUz77GeYjoiOlIj08INZk/rIgIziE709l8rrIumoA7V176P34wBmjd9OT14g2aK6cjoSI3QKu45jrYuIjCeAXTkGD9a57Gi6PGsEH3nj/Yd6a+3kK3geF6ioWI6QgrqSNVy93GpdRHBWcwDtKeXH66wLph61KEZ6fv4DjyokF7JBdytt01HTEdqxJzr6+6jlnUZwalkIFvRy3+ksC6Igjokn/k+fjP6s8i6kODU4Hb66TWWkdORGoNj3Is0si4iQJ6BbEMX/6bCOm8K6lAM8b38FrrcXaU6PMYpCukY6EiNRQ/3Hq2siwjUEHali39BYZ0XPZ4Vgvd8L9+FgRo4VqVVGcRBiulY6EiNySbuXTa2LiJYQ9iHbfwTmm40Z/ViabW+9WolxiL/uO/suzLQupBgrcv7dFFMx0RBHZt13Qfsa11EwD7iEDbgKj9dYZ2DhglqNW1m+bv8xhzKJ9aFBKwj77KhYjo2TmfJOHl/GZdZFxG4RhzDebTSQZ5FLR/90KXv2EDbPaNf/e3czO/WZQRuF56hsfakGCmoY3e/P4X51kUErg6H81c21qGeQRM/PfI2f2ENbfNqfeGv5VEWWJcRvD7cTW3tR7FSUJfAEH8Ak6yLCJ5jN/7CnlTokK9SK/9z5G3Opr62dhUq/YvczCANGsvK8W/+rn0odgrqkvjJ76t36uSkDSdxAqvr0F9JRz8y4hZrMR898bqi6f5xrudr6zISoS73cLj2oBLQYLKSaOXeYT/rIhJhDBfSij7+c32CXEH0j/u1Ukyv4Gt/lm/JyYrpnLRgsGK6RBTUJbKKe5pL0V6di3n0ZzO28g/6hYrrpdaJvMXW1qsUkEr/gu/hO3ATs61LSYhN+YDOOqGViIK6ZJzr6x6krnUZiTGMo2nDpX6swhqII1ajj/5k+tFf7Fuzj+5J5+EghtBaMV0yCuqSOtK9xZrWRSTIT1xOG/b0T6tvzbqRt6igXuAH+N39+lxB9AP10quCK3iCVRTTJaTBZCU3yR/KW9ZFJM4aHMKJdCzjk8No3zbiFgeydxlvz2/9vdynpzHy1pAH2a+M9xsbCmoDC/1fudm6iARy7MwJ7E+9Mj1NrOPHRdhaTX6jUVluyTn+Kf7Lu7rQXYD2PKsZyAwoqI087E9ijnURidSYg+lDlzIcsdzH94+wtW34oOy2YKUfzIM8yUzrQhKqJw9pBjITCmozX/sD+Mq6iMRam8M5nrZlddJ40feMsLUbOKustt43/lH6M8a6jMSqwUVcoumIjCioDc3wx/K0dRGJ1omjOIKmZXLyqPSbMCqitlZjTNn0jab5J3iQ93WpuwjNeJgeZbK/hEhBbcr7K+hLpXUZiVaHvTiEnjQog9PI6373iOLmVk4rg+0107/A47yi+bqL1IXHWasM9pdwKajNveUP1djTotWlOwdzYOrj+u++XwSt7MOzKb/HP8+/zgCeYZZ1IYnn+AvXUCvVe0v4FNQBGO8P4iPrIlKhHrtyMAel+FUTi/yeDCqyjY0YmuLL3n9E9LMaMBaJhtzDwandV5JDQR2Eef507rUuIjWasC/70yOlcT3H9yzqOfy2vJ3Sy5iz/Ss8w/OK6MhswRN6Y3kQFNTBeNKfyDTrIlKkHrvSi31YM3Unmll+T94r8HfX521apW6L/OZfZCAv60J3pI7izrKdsyA0CuqA/OgP4wPrIlKmBtvSi/1pl6oTzhy/P68V8Hsb8TotU7UlfvTPMZC3WWRdSMo05i56p2pPSTYFdVDm+/O5WY+RxGALerIXnamRkpPPfH8yD+T5Oz14jNVSsv6L/Ae8zAt8YV1IKm3Po3rlRlAU1MF53h/Hb9ZFpNRq7Ep39k5Jr/Iuf27OL2Wsyd+5NBUfUyb5d3iBgUy1LiSlNMo7RArqAP3kj2CwdRGp1oFedGenxJ+OxvozGJjDz23DHWye8HVd7D/lBQYyXFecYtSMB9gz4XtKGimog7TIX8aVmgglZquyC93oxkaJPjG976/kFRZX+/3tuZCeCX5q2vuRvMGbvM0M61JSb0/uTeHgyzRQUAfrbX8EE6yLKAtrsCPd2Y11E3uK+sk/xuu8v9yo5zp0pge9E/yuowl+CIN4iZ+sCykLdenLeZrLO1AK6oBN8kfzinURZWQDdmVnuiT28SXvxzKOGVTSkFa0Sewd6bH+Xd7mDX60LqSMbMbDbJzQ/aUcKKiD5v1N/J251mWUmXXowg50pYP6FyW02H/Bu7zPu/xsXUqZqeAc/k0d7esBU1AH7yvfh0+siyhLTdiB7elKp5TOcRaGWf5j3uV93teMYiZa8gC7av8OnII6ARb6K7hSUzqYqcnGdGZrOtORmjqlRWKh/5yP+JiP+SrDQDiJW29uT82z9WmmoE6Ij3wfvrEuouzVZws605nObJDgcdR2Kv23fMzHfMynzLMupuytxq0cqr04ERTUiTHXX8b/6ZGtQNRmAzrRiY3ZgtV1sstohv+OkQxjGJ/mPEGLxG0P/puSiX/KgYI6UV73x+lhlcA42rAZm7IJHVg/8VOoRGWB/5av+ZzP+ZwfrIuRFTTiOo7XnpogCuqEme7P5y7rIqQaNWlNGzqwMR3YlEZldiqc7kczhpGMYiTfakxFsHbgAdYvs30z6RTUCfSEP02zgSfA2mxAm6X/NE3hqXGSH8Of/3zLROtyJKv69OMMja9IHAV1Iv3iT+dp6yIkL42WBPbatGYt1maNxD2lvdj/wnh+5ifG8gNjGKP3PydMN+5SXzqRFNSJ9bQ/Q32YBKtFC9amFS1Zm2Y0Zw2a0iyYe9zz/RQm8wtTmMw4fuZnxvGLLmcnWGP+jxPUl04oBXWCTfN/4169SyhVVqU5zWhKM1ajMY1pssz/j/qe93Q/nWlM53///3emMJkp/KIXYKTMPtymMd4JpqBOuDf9SXxvXYSUSANq04gaNKGCJtSkIVCbBku+W0HjZX522tKPcLNYCEynkqlUMp2FzGI+c6xXRkqkGTfpeemEU1An3lx/FVey0LoMEQnQwdxKM8V0wimoU+Ezf4LmAxeR5azHreypkE6BCusCJAqbuaH0o651GSISiJqcyeeK6ZRQjzpFvvEnMdi6CBExtwN30FEhnRrqUadIe/eOe4I1rMsQEUNNuIHBiulUUY86dab5S7lVrw4UKUs9uUMPYqWOgjqVPvWnMdS6CBEpqXbcxO4K6RTSpe9U2twN4QGaWZchIiXSgEv5QjGdUupRp9gUfyH36Q3WIinnOIKraaGQTi0FdcoN92fxnnURIhKbzbiZrgrpVNOl75Tb0g3mIVpalyEiMViVm/hEMZ166lGXhTn+aq5innUZIhKZCo7gGporpMuAgrps/OT/QX/rIkQkErtyHZsqpMuEgrqsvOn/yqfWRYhIUdpzDT0V0mVEQV1mvH+S8/nRugwRKUgTLuRs6iimy4qCugzN8ddzFTOtyxCRvNTiZPqyukK67Cioy9Rv/nJuY5F1GSKSo55cR1uFdFlSUJexb/zFDLAuQkSy2o6r6aKQLlsK6jI32P+d962LEJFqdaQfeyuky5omPClzO7oh7nk2sS5DRKrQinv5VDFd9tSjFqDSP8U/GG1dhogstTrncSb1FNKioJY/LfT3cRkTrMsQERpyGn+nsUJaAAW1LGe2v5lr+M26DJEy1oAzOY9VFdKylIJaVjDL38rV/G5dhkgZqs0x9NULK2UFCmqpwgx/Azcw1boMkTJSh+P4O2srpGUlCmqpxkx/G1cprEVKoDbHcDGtFNJSJQW1ZDDNX8+NTLcuQyTF6nEi59NSIS3VUlBLFjP9vVzFROsyRFKoDkdziUJaslBQSw5m+7u5hp+tyxBJkYaczN9YQyEtWSmoJUcL/GP8m2+tyxBJgaaczpmsppCWnCioJQ+L/GP0Y6R1GSIJ1pq/cgL1FdKSMwW15Mn7N7iRgdZliCTQ+vyFU6ijkJa8KKilIB/5a3iaxdZliCTGDvyVfalQSEveFNRSsB/8DdzDbOsyRAJXwV5cyA6KaCmQglqKMsXfxq1Msi5DJFANOZ6zWFchLUVQUEvRFvjnuI4PrMsQCUwLTtLYbomAgloiMtjfxLO6ay0CwA78hQOopZCWCCioJUIT/F3cotdkSlmrwz6cw3aKaImMgloiNtv351a+tC5DxEBrTuUEmiqkJVIKaonFu/4OnmK+dRkiJbMzZ7AfNRTSEjkFtcRmmn+AmxhjXYZIzBpzCGewiSJaYqKgllhV+je5i2dYZF2ISCw6cRJHakJQiZWCWkpgnL+P+xhrXYZIhJpwFCezsSJaYqeglhKp9IO4h+d031oSz9GV4+hNPYW0lISCWkpqmn+C2/nUugyRAq3FUZzABopoKSEFtRj40N/LE0yzLkMkD3XYl2PpoXHdUnIKajEyz79Af15hoXUhIll14miO0GSgYkRBLaam+gE8yBDrMkSqsTb7cyybK6LFkIJaAvCV788jGhUuQVmd3hzB9jiFtBhTUEsgvB/KYwzgF+tCpOzVpydHsAe1FdESBAW1BKXSv88AHtMbrsVEXbpzMPvTUBEtAVFQS4AW+Nd4jBeYYV2IlI067MYh9KKRIlqCo6CWYM33r/M0z/G7dSGSanXYld7sSxNFtARKQS2BW+yHMoAnmWBdiKROfbpxMPvSWBEtQVNQSyJU+iE8zXP8YF2IpEIz9mU/ulNHES0JoKCWRPnSv8DzfESldSGSUG3pxb7soPnFJEEU1JJAU/xbvMBzGmwmOavBtvSiO50U0JI4CmpJrHn+LV7iFUZbFyJBa8qe9GR33YmWxFJQS+KN9q/yCm8x27oQCUoNtmE3dqezLnNLwimoJSXm+3d5lVf40roQMbcuu9ODXfXAlaSEglpSZqJ/kzd4g3HWhUjJNWFHerAb7RTQkioKakmpMX4Q7/GGnr8uA/XZnu7swDbUUkRLCimoJdUq/ee8w2De0+zhKVSP7diFXdiGmgpoSTEFtZSJMf49hjCIMdaFSNEasTU70IUu1FVASxlQUEuZGeffYShD+YLF1qVIntajC13owkZ6R7SUFQW1lKnZfgTDGMI7uigeuAZsTic6sSPrKp6lLCmopeyN9h/wMcMYwRzrUmSpCjZiG7ZlGzbWc9BS5hTUIkss9l8zjGGKbEM1aUcnOrExW7Ka4lkEUFCLVGGRH8UIPuczPmOKdTFloD4bswVbsiWbaHiYyEoU1CIZTfB/BPbnfMMi62JSpAZt2JRN6MhmtKFC8SxSLQW1SI4W+O/4iq8Yxdd8zTzrchKoJuvRgfZsyCZ0oL7CWSQnCmqRAiz2PzKKr/mO0XzHz+g4qs6qbEB7NqI9G7EBtRXOInlTUIsUba7/jtGM5jtG8yM/lfkl8jVZnw2W/p+GhIkUS0EtErFF/md+ZCw/MJYfGcvPzLcuKUY1WYvWrEvrJf+sSwNFs0ikFNQisZvkJ/ITPzOBn5jIOCYzmUrrogqyGi1oyZq0XPK/a9NC82yLxExBLWKg0k9mCpOZyGSm8CtTmMrvTOV3ZlmXBtSmCU1oSlOasgZNaUozmtGc5np4SsSAglokKAv9H5E9nZlMZzZzmM5MZjObaSxmBp5pwHQqmcXCPNqtSz2gMRXUpCF1qUcT6lKfxtSlAY1oyKo0WfKPLl6LhERBLZJoC/3/+uCLmAk4miz3ExU0VvCKJNj/A7Lx0ziWZXe6AAAAJXRFWHRkYXRlOmNyZWF0ZQAyMDIxLTAzLTI1VDIwOjA4OjM2KzAwOjAwCWF/ygAAACV0RVh0ZGF0ZTptb2RpZnkAMjAxNi0wNC0yNFQxMDo0MzoyMyswMDowMCWcWEYAAAAASUVORK5CYII=" vertex="1" parent="Y_pHUTL9zJ1j55iuGQUV-3">
          <mxGeometry x="1329.54" y="85.75" width="40.92" height="41" as="geometry" />
        </mxCell>
        <mxCell id="H--HfnbZHBEuk7Bjk80q-122" value="Ожидать" style="text;html=1;strokeColor=none;fillColor=none;align=center;verticalAlign=middle;whiteSpace=wrap;rounded=0;fontColor=#001847;fontFamily=Comic Sans MS;fontStyle=1" vertex="1" parent="Y_pHUTL9zJ1j55iuGQUV-3">
          <mxGeometry x="1320" y="131.25" width="60" height="30" as="geometry" />
        </mxCell>
        <mxCell id="H--HfnbZHBEuk7Bjk80q-126" value="&lt;font face=&quot;Comic Sans MS&quot;&gt;&lt;b&gt;Желание отдохнуть в Европе не удовлетворено&lt;/b&gt;&lt;/font&gt;" style="text;html=1;strokeColor=none;fillColor=none;align=center;verticalAlign=middle;whiteSpace=wrap;rounded=0;fontColor=#001847;" vertex="1" parent="Y_pHUTL9zJ1j55iuGQUV-3">
          <mxGeometry x="610" y="105.63" width="120" height="88.75" as="geometry" />
        </mxCell>
        <mxCell id="H--HfnbZHBEuk7Bjk80q-154" style="edgeStyle=orthogonalEdgeStyle;rounded=0;orthogonalLoop=1;jettySize=auto;html=1;exitX=1;exitY=0.5;exitDx=0;exitDy=0;entryX=0;entryY=0.5;entryDx=0;entryDy=0;strokeWidth=2;strokeColor=#001847;" edge="1" parent="Y_pHUTL9zJ1j55iuGQUV-3" source="H--HfnbZHBEuk7Bjk80q-129" target="H--HfnbZHBEuk7Bjk80q-153">
          <mxGeometry relative="1" as="geometry" />
        </mxCell>
        <mxCell id="H--HfnbZHBEuk7Bjk80q-129" value="Получить билеты и маршрут" style="rounded=1;whiteSpace=wrap;html=1;fillColor=#FFF2F4;strokeColor=#001847;fontColor=#001847;fontStyle=1;fontFamily=Comic Sans MS;strokeWidth=2;" vertex="1" parent="Y_pHUTL9zJ1j55iuGQUV-3">
          <mxGeometry x="2028" y="76.25" width="80" height="60" as="geometry" />
        </mxCell>
        <mxCell id="H--HfnbZHBEuk7Bjk80q-152" style="edgeStyle=orthogonalEdgeStyle;rounded=0;orthogonalLoop=1;jettySize=auto;html=1;exitX=1;exitY=0.5;exitDx=0;exitDy=0;entryX=0;entryY=0.5;entryDx=0;entryDy=0;strokeWidth=2;strokeColor=#001847;" edge="1" parent="Y_pHUTL9zJ1j55iuGQUV-3" source="H--HfnbZHBEuk7Bjk80q-139" target="H--HfnbZHBEuk7Bjk80q-129">
          <mxGeometry relative="1" as="geometry" />
        </mxCell>
        <mxCell id="H--HfnbZHBEuk7Bjk80q-139" value="" style="ellipse;whiteSpace=wrap;html=1;aspect=fixed;strokeColor=#001847;fillColor=#FFF2F4;strokeWidth=2;" vertex="1" parent="Y_pHUTL9zJ1j55iuGQUV-3">
          <mxGeometry x="1916.25" y="82.5" width="47.5" height="47.5" as="geometry" />
        </mxCell>
        <mxCell id="H--HfnbZHBEuk7Bjk80q-140" value="" style="shape=message;html=1;html=1;outlineConnect=0;labelPosition=center;verticalLabelPosition=bottom;align=center;verticalAlign=top;strokeColor=#001847;strokeWidth=2;fillColor=#FFF2F4;" vertex="1" parent="Y_pHUTL9zJ1j55iuGQUV-3">
          <mxGeometry x="1925" y="95.62" width="30" height="21.25" as="geometry" />
        </mxCell>
        <mxCell id="H--HfnbZHBEuk7Bjk80q-141" value="Получены данные о заказе и маршрут" style="text;html=1;strokeColor=none;fillColor=none;align=center;verticalAlign=middle;whiteSpace=wrap;rounded=0;fontColor=#001847;fontFamily=Comic Sans MS;fontStyle=1" vertex="1" parent="Y_pHUTL9zJ1j55iuGQUV-3">
          <mxGeometry x="1890" y="30" width="100" height="44.75" as="geometry" />
        </mxCell>
        <mxCell id="H--HfnbZHBEuk7Bjk80q-153" value="" style="ellipse;whiteSpace=wrap;html=1;aspect=fixed;strokeColor=#001847;fillColor=#FFF2F4;strokeWidth=4;" vertex="1" parent="Y_pHUTL9zJ1j55iuGQUV-3">
          <mxGeometry x="2160" y="82.5" width="47.5" height="47.5" as="geometry" />
        </mxCell>
        <mxCell id="H--HfnbZHBEuk7Bjk80q-155" value="&lt;font face=&quot;Comic Sans MS&quot;&gt;&lt;b&gt;Желание отдохнуть в Европе удовлетворено&lt;/b&gt;&lt;/font&gt;" style="text;html=1;strokeColor=none;fillColor=none;align=center;verticalAlign=middle;whiteSpace=wrap;rounded=0;fontColor=#001847;" vertex="1" parent="Y_pHUTL9zJ1j55iuGQUV-3">
          <mxGeometry x="2220" y="61.88" width="136.25" height="88.75" as="geometry" />
        </mxCell>
        <mxCell id="Y_pHUTL9zJ1j55iuGQUV-4" value="&lt;p style=&quot;line-height: 120%;&quot;&gt;&lt;font face=&quot;Comic Sans MS&quot; color=&quot;#fff2f4&quot; style=&quot;font-size: 14px;&quot;&gt;Туристическое агентство&lt;/font&gt;&lt;/p&gt;" style="swimlane;horizontal=0;whiteSpace=wrap;html=1;swimlaneLine=1;rounded=0;shadow=0;glass=0;swimlaneFillColor=#FFF2F4;startSize=40;fillColor=#001847;strokeColor=#001847;fontColor=#ffffff;" vertex="1" parent="1">
          <mxGeometry x="40" y="280" width="2380" height="215" as="geometry">
            <mxRectangle x="60" y="360" width="40" height="160" as="alternateBounds" />
          </mxGeometry>
        </mxCell>
        <mxCell id="Y_pHUTL9zJ1j55iuGQUV-80" value="Зарегистри-ровать заказ" style="rounded=1;whiteSpace=wrap;html=1;fillColor=#FFF2F4;strokeColor=#001847;fontColor=#001847;fontStyle=1;fontFamily=Comic Sans MS;strokeWidth=2;" vertex="1" parent="Y_pHUTL9zJ1j55iuGQUV-4">
          <mxGeometry x="280" y="75" width="80" height="60" as="geometry" />
        </mxCell>
        <mxCell id="Y_pHUTL9zJ1j55iuGQUV-94" value="" style="ellipse;whiteSpace=wrap;html=1;aspect=fixed;strokeColor=#001847;fillColor=#FFF2F4;strokeWidth=2;" vertex="1" parent="Y_pHUTL9zJ1j55iuGQUV-4">
          <mxGeometry x="186.25" y="81.25" width="47.5" height="47.5" as="geometry" />
        </mxCell>
        <mxCell id="Y_pHUTL9zJ1j55iuGQUV-95" value="" style="shape=message;html=1;html=1;outlineConnect=0;labelPosition=center;verticalLabelPosition=bottom;align=center;verticalAlign=top;strokeColor=#001847;strokeWidth=2;fillColor=#FFF2F4;" vertex="1" parent="Y_pHUTL9zJ1j55iuGQUV-4">
          <mxGeometry x="195" y="94.37" width="30" height="21.25" as="geometry" />
        </mxCell>
        <mxCell id="H--HfnbZHBEuk7Bjk80q-7" value="" style="endArrow=classic;html=1;rounded=0;strokeColor=#001847;strokeWidth=2;exitX=1;exitY=0.5;exitDx=0;exitDy=0;entryX=0;entryY=0.5;entryDx=0;entryDy=0;" edge="1" parent="Y_pHUTL9zJ1j55iuGQUV-4" source="Y_pHUTL9zJ1j55iuGQUV-94" target="Y_pHUTL9zJ1j55iuGQUV-80">
          <mxGeometry width="50" height="50" relative="1" as="geometry">
            <mxPoint x="238" y="104.5" as="sourcePoint" />
            <mxPoint x="280" y="104.5" as="targetPoint" />
          </mxGeometry>
        </mxCell>
        <mxCell id="Y_pHUTL9zJ1j55iuGQUV-83" value="Получен заказ" style="text;html=1;strokeColor=none;fillColor=none;align=center;verticalAlign=middle;whiteSpace=wrap;rounded=0;fontColor=#001847;fontFamily=Comic Sans MS;fontStyle=1" vertex="1" parent="Y_pHUTL9zJ1j55iuGQUV-4">
          <mxGeometry x="180" y="135" width="60" height="30" as="geometry" />
        </mxCell>
        <mxCell id="Y_pHUTL9zJ1j55iuGQUV-77" value="Найти и выбрать подходящий рейс" style="rounded=1;whiteSpace=wrap;html=1;fillColor=#FFF2F4;strokeColor=#001847;fontColor=#001847;fontStyle=1;fontFamily=Comic Sans MS;strokeWidth=2;" vertex="1" parent="Y_pHUTL9zJ1j55iuGQUV-4">
          <mxGeometry x="540" y="135" width="80" height="60" as="geometry" />
        </mxCell>
        <mxCell id="H--HfnbZHBEuk7Bjk80q-8" value="" style="endArrow=classic;html=1;rounded=0;strokeColor=#001847;strokeWidth=2;exitX=1;exitY=0.5;exitDx=0;exitDy=0;entryX=0;entryY=0.5;entryDx=0;entryDy=0;" edge="1" parent="Y_pHUTL9zJ1j55iuGQUV-4" source="Y_pHUTL9zJ1j55iuGQUV-80" target="H--HfnbZHBEuk7Bjk80q-35">
          <mxGeometry width="50" height="50" relative="1" as="geometry">
            <mxPoint x="364" y="104.49000000000001" as="sourcePoint" />
            <mxPoint x="410" y="104.49000000000001" as="targetPoint" />
          </mxGeometry>
        </mxCell>
        <mxCell id="H--HfnbZHBEuk7Bjk80q-38" style="edgeStyle=orthogonalEdgeStyle;rounded=0;orthogonalLoop=1;jettySize=auto;html=1;exitX=0.5;exitY=1;exitDx=0;exitDy=0;entryX=0;entryY=0.5;entryDx=0;entryDy=0;strokeColor=#001847;strokeWidth=2;" edge="1" parent="Y_pHUTL9zJ1j55iuGQUV-4" source="H--HfnbZHBEuk7Bjk80q-35" target="Y_pHUTL9zJ1j55iuGQUV-77">
          <mxGeometry relative="1" as="geometry" />
        </mxCell>
        <mxCell id="H--HfnbZHBEuk7Bjk80q-41" style="edgeStyle=orthogonalEdgeStyle;rounded=0;orthogonalLoop=1;jettySize=auto;html=1;exitX=0.5;exitY=0;exitDx=0;exitDy=0;entryX=0;entryY=0.5;entryDx=0;entryDy=0;strokeWidth=2;strokeColor=#001847;" edge="1" parent="Y_pHUTL9zJ1j55iuGQUV-4" source="H--HfnbZHBEuk7Bjk80q-35" target="H--HfnbZHBEuk7Bjk80q-40">
          <mxGeometry relative="1" as="geometry" />
        </mxCell>
        <mxCell id="H--HfnbZHBEuk7Bjk80q-35" value="" style="rhombus;whiteSpace=wrap;html=1;fillColor=#FFF2F4;strokeColor=#001847;strokeWidth=2;" vertex="1" parent="Y_pHUTL9zJ1j55iuGQUV-4">
          <mxGeometry x="420" y="76" width="60" height="59" as="geometry" />
        </mxCell>
        <mxCell id="H--HfnbZHBEuk7Bjk80q-36" value="" style="verticalLabelPosition=bottom;verticalAlign=top;html=1;shape=mxgraph.basic.x;fillColor=#001847;strokeColor=#001847;strokeWidth=2;" vertex="1" parent="Y_pHUTL9zJ1j55iuGQUV-4">
          <mxGeometry x="437.5" y="93.12" width="25" height="24.75" as="geometry" />
        </mxCell>
        <mxCell id="H--HfnbZHBEuk7Bjk80q-39" value="Ответ" style="text;html=1;strokeColor=none;fillColor=none;align=center;verticalAlign=middle;whiteSpace=wrap;rounded=0;fontColor=#001847;fontFamily=Comic Sans MS;fontStyle=1" vertex="1" parent="Y_pHUTL9zJ1j55iuGQUV-4">
          <mxGeometry x="860" y="180" width="60" height="30" as="geometry" />
        </mxCell>
        <mxCell id="H--HfnbZHBEuk7Bjk80q-40" value="Отменить заказ" style="rounded=1;whiteSpace=wrap;html=1;fillColor=#FFF2F4;strokeColor=#001847;fontColor=#001847;fontStyle=1;fontFamily=Comic Sans MS;strokeWidth=2;" vertex="1" parent="Y_pHUTL9zJ1j55iuGQUV-4">
          <mxGeometry x="540" y="15" width="80" height="60" as="geometry" />
        </mxCell>
        <mxCell id="H--HfnbZHBEuk7Bjk80q-43" value="Нет доступных авиакомпаний" style="text;html=1;strokeColor=none;fillColor=none;align=center;verticalAlign=middle;whiteSpace=wrap;rounded=0;fontColor=#001847;fontFamily=Comic Sans MS;fontStyle=1" vertex="1" parent="Y_pHUTL9zJ1j55iuGQUV-4">
          <mxGeometry x="380" y="10" width="140" height="30" as="geometry" />
        </mxCell>
        <mxCell id="H--HfnbZHBEuk7Bjk80q-44" value="Есть доступные авиакомпании" style="text;html=1;strokeColor=none;fillColor=none;align=center;verticalAlign=middle;whiteSpace=wrap;rounded=0;fontColor=#001847;fontFamily=Comic Sans MS;fontStyle=1" vertex="1" parent="Y_pHUTL9zJ1j55iuGQUV-4">
          <mxGeometry x="380" y="170" width="140" height="30" as="geometry" />
        </mxCell>
        <mxCell id="H--HfnbZHBEuk7Bjk80q-47" value="" style="ellipse;whiteSpace=wrap;html=1;aspect=fixed;strokeColor=#001847;fillColor=#FFF2F4;strokeWidth=2;shadow=0;" vertex="1" parent="Y_pHUTL9zJ1j55iuGQUV-4">
          <mxGeometry x="660" y="81.24000000000001" width="47.5" height="47.5" as="geometry" />
        </mxCell>
        <mxCell id="H--HfnbZHBEuk7Bjk80q-48" value="" style="shape=message;html=1;html=1;outlineConnect=0;labelPosition=center;verticalLabelPosition=bottom;align=center;verticalAlign=top;strokeColor=#001847;strokeWidth=2;fillColor=#FFF2F4;" vertex="1" parent="Y_pHUTL9zJ1j55iuGQUV-4">
          <mxGeometry x="668.75" y="94.36000000000001" width="30" height="21.25" as="geometry" />
        </mxCell>
        <mxCell id="H--HfnbZHBEuk7Bjk80q-49" value="Получен ответ" style="text;html=1;strokeColor=none;fillColor=none;align=center;verticalAlign=middle;whiteSpace=wrap;rounded=0;fontColor=#001847;fontFamily=Comic Sans MS;fontStyle=1" vertex="1" parent="Y_pHUTL9zJ1j55iuGQUV-4">
          <mxGeometry x="653.75" y="135" width="60" height="30" as="geometry" />
        </mxCell>
        <mxCell id="H--HfnbZHBEuk7Bjk80q-50" value="" style="endArrow=classic;html=1;rounded=0;strokeColor=#001847;strokeWidth=2;exitX=0;exitY=0.5;exitDx=0;exitDy=0;entryX=1;entryY=0.5;entryDx=0;entryDy=0;" edge="1" parent="Y_pHUTL9zJ1j55iuGQUV-4" source="H--HfnbZHBEuk7Bjk80q-47" target="H--HfnbZHBEuk7Bjk80q-35">
          <mxGeometry width="50" height="50" relative="1" as="geometry">
            <mxPoint x="550" y="104.5" as="sourcePoint" />
            <mxPoint x="610" y="105.5" as="targetPoint" />
          </mxGeometry>
        </mxCell>
        <mxCell id="H--HfnbZHBEuk7Bjk80q-59" value="Запрос на оплату" style="text;html=1;strokeColor=none;fillColor=none;align=center;verticalAlign=middle;whiteSpace=wrap;rounded=0;fontColor=#001847;fontFamily=Comic Sans MS;fontStyle=1" vertex="1" parent="Y_pHUTL9zJ1j55iuGQUV-4">
          <mxGeometry x="990" width="70" height="40" as="geometry" />
        </mxCell>
        <mxCell id="H--HfnbZHBEuk7Bjk80q-91" value="Запрос на оплату" style="text;html=1;strokeColor=none;fillColor=none;align=center;verticalAlign=middle;whiteSpace=wrap;rounded=0;fontColor=#001847;fontFamily=Comic Sans MS;fontStyle=1" vertex="1" parent="Y_pHUTL9zJ1j55iuGQUV-4">
          <mxGeometry x="1440" width="70" height="40" as="geometry" />
        </mxCell>
        <mxCell id="H--HfnbZHBEuk7Bjk80q-88" value="Запрос на оплату" style="text;html=1;strokeColor=none;fillColor=none;align=center;verticalAlign=middle;whiteSpace=wrap;rounded=0;fontColor=#001847;fontFamily=Comic Sans MS;fontStyle=1" vertex="1" parent="Y_pHUTL9zJ1j55iuGQUV-4">
          <mxGeometry x="1440" y="175" width="70" height="40" as="geometry" />
        </mxCell>
        <mxCell id="H--HfnbZHBEuk7Bjk80q-130" value="Получить данные и оформить маршрут" style="rounded=1;whiteSpace=wrap;html=1;fillColor=#FFF2F4;strokeColor=#001847;fontColor=#001847;fontStyle=1;fontFamily=Comic Sans MS;strokeWidth=2;" vertex="1" parent="Y_pHUTL9zJ1j55iuGQUV-4">
          <mxGeometry x="1810" y="69.75000000000001" width="80" height="60" as="geometry" />
        </mxCell>
        <mxCell id="H--HfnbZHBEuk7Bjk80q-137" style="edgeStyle=orthogonalEdgeStyle;rounded=0;orthogonalLoop=1;jettySize=auto;html=1;exitX=1;exitY=0.5;exitDx=0;exitDy=0;entryX=0;entryY=0.5;entryDx=0;entryDy=0;strokeWidth=2;strokeColor=#001847;" edge="1" parent="Y_pHUTL9zJ1j55iuGQUV-4" source="H--HfnbZHBEuk7Bjk80q-132" target="H--HfnbZHBEuk7Bjk80q-130">
          <mxGeometry relative="1" as="geometry" />
        </mxCell>
        <mxCell id="H--HfnbZHBEuk7Bjk80q-132" value="" style="ellipse;whiteSpace=wrap;html=1;aspect=fixed;strokeColor=#001847;fillColor=#FFF2F4;strokeWidth=2;" vertex="1" parent="Y_pHUTL9zJ1j55iuGQUV-4">
          <mxGeometry x="1696.25" y="76" width="47.5" height="47.5" as="geometry" />
        </mxCell>
        <mxCell id="H--HfnbZHBEuk7Bjk80q-133" value="" style="shape=message;html=1;html=1;outlineConnect=0;labelPosition=center;verticalLabelPosition=bottom;align=center;verticalAlign=top;strokeColor=#001847;strokeWidth=2;fillColor=#FFF2F4;" vertex="1" parent="Y_pHUTL9zJ1j55iuGQUV-4">
          <mxGeometry x="1705" y="89.12" width="30" height="21.25" as="geometry" />
        </mxCell>
        <mxCell id="H--HfnbZHBEuk7Bjk80q-134" value="Получены данные о заказе" style="text;html=1;strokeColor=none;fillColor=none;align=center;verticalAlign=middle;whiteSpace=wrap;rounded=0;fontColor=#001847;fontFamily=Comic Sans MS;fontStyle=1" vertex="1" parent="Y_pHUTL9zJ1j55iuGQUV-4">
          <mxGeometry x="1690" y="128.75" width="60" height="30" as="geometry" />
        </mxCell>
        <mxCell id="H--HfnbZHBEuk7Bjk80q-147" value="Маршрут" style="text;html=1;strokeColor=none;fillColor=none;align=center;verticalAlign=middle;whiteSpace=wrap;rounded=0;fontColor=#001847;fontFamily=Comic Sans MS;fontStyle=1" vertex="1" parent="Y_pHUTL9zJ1j55iuGQUV-4">
          <mxGeometry x="1850" width="70" height="40" as="geometry" />
        </mxCell>
        <mxCell id="H--HfnbZHBEuk7Bjk80q-151" value="Данные" style="text;html=1;strokeColor=none;fillColor=none;align=center;verticalAlign=middle;whiteSpace=wrap;rounded=0;fontColor=#001847;fontFamily=Comic Sans MS;fontStyle=1" vertex="1" parent="Y_pHUTL9zJ1j55iuGQUV-4">
          <mxGeometry x="1958" width="70" height="40" as="geometry" />
        </mxCell>
        <mxCell id="H--HfnbZHBEuk7Bjk80q-2" value="&lt;p style=&quot;line-height: 120%;&quot;&gt;&lt;font face=&quot;Comic Sans MS&quot; color=&quot;#fff2f4&quot; style=&quot;font-size: 14px;&quot;&gt;Авиакомпания&lt;/font&gt;&lt;/p&gt;" style="swimlane;horizontal=0;whiteSpace=wrap;html=1;swimlaneLine=1;rounded=0;shadow=0;glass=0;swimlaneFillColor=#FFF2F4;startSize=40;fillColor=#001847;strokeColor=#001847;fontColor=#ffffff;" vertex="1" parent="1">
          <mxGeometry x="40" y="510" width="2380" height="290" as="geometry">
            <mxRectangle x="60" y="360" width="40" height="160" as="alternateBounds" />
          </mxGeometry>
        </mxCell>
        <mxCell id="Y_pHUTL9zJ1j55iuGQUV-87" value="Зарегестри-ровать заказ" style="rounded=1;whiteSpace=wrap;html=1;fillColor=#FFF2F4;strokeColor=#001847;fontColor=#001847;fontStyle=1;fontFamily=Comic Sans MS;strokeWidth=2;" vertex="1" parent="H--HfnbZHBEuk7Bjk80q-2">
          <mxGeometry x="650" y="114.99000000000001" width="80" height="60" as="geometry" />
        </mxCell>
        <mxCell id="H--HfnbZHBEuk7Bjk80q-10" value="" style="ellipse;whiteSpace=wrap;html=1;aspect=fixed;strokeColor=#001847;fillColor=#FFF2F4;strokeWidth=2;" vertex="1" parent="H--HfnbZHBEuk7Bjk80q-2">
          <mxGeometry x="556.25" y="121.25" width="47.5" height="47.5" as="geometry" />
        </mxCell>
        <mxCell id="H--HfnbZHBEuk7Bjk80q-11" value="" style="shape=message;html=1;html=1;outlineConnect=0;labelPosition=center;verticalLabelPosition=bottom;align=center;verticalAlign=top;strokeColor=#001847;strokeWidth=2;fillColor=#FFF2F4;" vertex="1" parent="H--HfnbZHBEuk7Bjk80q-2">
          <mxGeometry x="565" y="134.37" width="30" height="21.25" as="geometry" />
        </mxCell>
        <mxCell id="H--HfnbZHBEuk7Bjk80q-12" value="Получен запрос" style="text;html=1;strokeColor=none;fillColor=none;align=center;verticalAlign=middle;whiteSpace=wrap;rounded=0;fontColor=#001847;fontFamily=Comic Sans MS;fontStyle=1" vertex="1" parent="H--HfnbZHBEuk7Bjk80q-2">
          <mxGeometry x="550" y="168.75" width="60" height="30" as="geometry" />
        </mxCell>
        <mxCell id="H--HfnbZHBEuk7Bjk80q-13" value="" style="endArrow=classic;html=1;rounded=0;strokeColor=#001847;strokeWidth=2;exitX=1;exitY=0.5;exitDx=0;exitDy=0;entryX=0;entryY=0.5;entryDx=0;entryDy=0;" edge="1" parent="H--HfnbZHBEuk7Bjk80q-2" source="H--HfnbZHBEuk7Bjk80q-10" target="Y_pHUTL9zJ1j55iuGQUV-87">
          <mxGeometry width="50" height="50" relative="1" as="geometry">
            <mxPoint x="604" y="104.5" as="sourcePoint" />
            <mxPoint x="650" y="104.5" as="targetPoint" />
          </mxGeometry>
        </mxCell>
        <mxCell id="H--HfnbZHBEuk7Bjk80q-22" style="edgeStyle=orthogonalEdgeStyle;rounded=0;orthogonalLoop=1;jettySize=auto;html=1;exitX=0.5;exitY=0;exitDx=0;exitDy=0;entryX=0;entryY=0.5;entryDx=0;entryDy=0;strokeColor=#001847;strokeWidth=2;" edge="1" parent="H--HfnbZHBEuk7Bjk80q-2" source="H--HfnbZHBEuk7Bjk80q-15" target="Y_pHUTL9zJ1j55iuGQUV-98">
          <mxGeometry relative="1" as="geometry" />
        </mxCell>
        <mxCell id="H--HfnbZHBEuk7Bjk80q-107" style="edgeStyle=orthogonalEdgeStyle;rounded=0;orthogonalLoop=1;jettySize=auto;html=1;exitX=0.5;exitY=1;exitDx=0;exitDy=0;entryX=0;entryY=0.5;entryDx=0;entryDy=0;strokeWidth=2;strokeColor=#001847;" edge="1" parent="H--HfnbZHBEuk7Bjk80q-2" source="H--HfnbZHBEuk7Bjk80q-15" target="H--HfnbZHBEuk7Bjk80q-20">
          <mxGeometry relative="1" as="geometry" />
        </mxCell>
        <mxCell id="H--HfnbZHBEuk7Bjk80q-15" value="" style="rhombus;whiteSpace=wrap;html=1;fillColor=#FFF2F4;strokeColor=#001847;strokeWidth=2;" vertex="1" parent="H--HfnbZHBEuk7Bjk80q-2">
          <mxGeometry x="780" y="115" width="60" height="59" as="geometry" />
        </mxCell>
        <mxCell id="H--HfnbZHBEuk7Bjk80q-14" value="" style="verticalLabelPosition=bottom;verticalAlign=top;html=1;shape=mxgraph.basic.x;fillColor=#001847;strokeColor=#001847;strokeWidth=2;" vertex="1" parent="H--HfnbZHBEuk7Bjk80q-2">
          <mxGeometry x="797.5" y="132.12" width="25" height="24.75" as="geometry" />
        </mxCell>
        <mxCell id="H--HfnbZHBEuk7Bjk80q-19" value="" style="endArrow=classic;html=1;rounded=0;strokeColor=#001847;strokeWidth=2;exitX=1;exitY=0.5;exitDx=0;exitDy=0;entryX=0;entryY=0.5;entryDx=0;entryDy=0;" edge="1" parent="H--HfnbZHBEuk7Bjk80q-2" source="Y_pHUTL9zJ1j55iuGQUV-87" target="H--HfnbZHBEuk7Bjk80q-15">
          <mxGeometry width="50" height="50" relative="1" as="geometry">
            <mxPoint x="730" y="104.5" as="sourcePoint" />
            <mxPoint x="776" y="104.5" as="targetPoint" />
          </mxGeometry>
        </mxCell>
        <mxCell id="Y_pHUTL9zJ1j55iuGQUV-98" value="Отменить заказ" style="rounded=1;whiteSpace=wrap;html=1;fillColor=#FFF2F4;strokeColor=#001847;fontColor=#001847;fontStyle=1;fontFamily=Comic Sans MS;strokeWidth=2;" vertex="1" parent="H--HfnbZHBEuk7Bjk80q-2">
          <mxGeometry x="880" y="55" width="80" height="60" as="geometry" />
        </mxCell>
        <mxCell id="H--HfnbZHBEuk7Bjk80q-20" value="Бронировать билеты" style="rounded=1;whiteSpace=wrap;html=1;fillColor=#FFF2F4;strokeColor=#001847;fontColor=#001847;fontStyle=1;fontFamily=Comic Sans MS;strokeWidth=2;" vertex="1" parent="H--HfnbZHBEuk7Bjk80q-2">
          <mxGeometry x="880" y="195" width="80" height="60" as="geometry" />
        </mxCell>
        <mxCell id="H--HfnbZHBEuk7Bjk80q-23" value="Нет свободных билетов" style="text;html=1;strokeColor=none;fillColor=none;align=center;verticalAlign=middle;whiteSpace=wrap;rounded=0;fontColor=#001847;fontFamily=Comic Sans MS;fontStyle=1" vertex="1" parent="H--HfnbZHBEuk7Bjk80q-2">
          <mxGeometry x="740" y="51.25" width="140" height="30" as="geometry" />
        </mxCell>
        <mxCell id="H--HfnbZHBEuk7Bjk80q-24" value="Есть свободные билеты" style="text;html=1;strokeColor=none;fillColor=none;align=center;verticalAlign=middle;whiteSpace=wrap;rounded=0;fontColor=#001847;fontFamily=Comic Sans MS;fontStyle=1" vertex="1" parent="H--HfnbZHBEuk7Bjk80q-2">
          <mxGeometry x="740" y="230" width="140" height="30" as="geometry" />
        </mxCell>
        <mxCell id="Y_pHUTL9zJ1j55iuGQUV-85" value="Запрос" style="text;html=1;strokeColor=none;fillColor=none;align=center;verticalAlign=middle;whiteSpace=wrap;rounded=0;fontColor=#001847;fontFamily=Comic Sans MS;fontStyle=1" vertex="1" parent="H--HfnbZHBEuk7Bjk80q-2">
          <mxGeometry x="520" width="60" height="30" as="geometry" />
        </mxCell>
        <mxCell id="H--HfnbZHBEuk7Bjk80q-61" value="Запрос на оплату" style="text;html=1;strokeColor=none;fillColor=none;align=center;verticalAlign=middle;whiteSpace=wrap;rounded=0;fontColor=#001847;fontFamily=Comic Sans MS;fontStyle=1" vertex="1" parent="H--HfnbZHBEuk7Bjk80q-2">
          <mxGeometry x="990" width="70" height="40" as="geometry" />
        </mxCell>
        <mxCell id="H--HfnbZHBEuk7Bjk80q-85" style="edgeStyle=orthogonalEdgeStyle;rounded=0;orthogonalLoop=1;jettySize=auto;html=1;exitX=1;exitY=0.5;exitDx=0;exitDy=0;entryX=0;entryY=0.5;entryDx=0;entryDy=0;strokeWidth=2;strokeColor=#001847;" edge="1" parent="H--HfnbZHBEuk7Bjk80q-2" source="H--HfnbZHBEuk7Bjk80q-63" target="H--HfnbZHBEuk7Bjk80q-79">
          <mxGeometry relative="1" as="geometry" />
        </mxCell>
        <mxCell id="H--HfnbZHBEuk7Bjk80q-63" value="" style="ellipse;whiteSpace=wrap;html=1;aspect=fixed;strokeColor=#001847;fillColor=#FFF2F4;strokeWidth=2;" vertex="1" parent="H--HfnbZHBEuk7Bjk80q-2">
          <mxGeometry x="1136.25" y="121.25" width="47.5" height="47.5" as="geometry" />
        </mxCell>
        <mxCell id="H--HfnbZHBEuk7Bjk80q-66" value="" style="verticalLabelPosition=bottom;verticalAlign=top;html=1;shape=mxgraph.basic.acute_triangle;dx=0.5;fillColor=#FFF2F4;strokeColor=#001847;strokeWidth=2;" vertex="1" parent="H--HfnbZHBEuk7Bjk80q-2">
          <mxGeometry x="1145.63" y="128.75" width="28.75" height="26.87" as="geometry" />
        </mxCell>
        <mxCell id="H--HfnbZHBEuk7Bjk80q-67" value="Получить сведенья об оплате" style="text;html=1;strokeColor=none;fillColor=none;align=center;verticalAlign=middle;whiteSpace=wrap;rounded=0;fontColor=#001847;fontFamily=Comic Sans MS;fontStyle=1" vertex="1" parent="H--HfnbZHBEuk7Bjk80q-2">
          <mxGeometry x="1125" y="174" width="70" height="40" as="geometry" />
        </mxCell>
        <mxCell id="H--HfnbZHBEuk7Bjk80q-84" style="edgeStyle=orthogonalEdgeStyle;rounded=0;orthogonalLoop=1;jettySize=auto;html=1;exitX=0.5;exitY=1;exitDx=0;exitDy=0;entryX=0;entryY=0.5;entryDx=0;entryDy=0;strokeColor=#001847;strokeWidth=2;" edge="1" parent="H--HfnbZHBEuk7Bjk80q-2" source="H--HfnbZHBEuk7Bjk80q-79" target="H--HfnbZHBEuk7Bjk80q-82">
          <mxGeometry relative="1" as="geometry" />
        </mxCell>
        <mxCell id="H--HfnbZHBEuk7Bjk80q-108" style="edgeStyle=orthogonalEdgeStyle;rounded=0;orthogonalLoop=1;jettySize=auto;html=1;exitX=1;exitY=0.5;exitDx=0;exitDy=0;entryX=0;entryY=0.5;entryDx=0;entryDy=0;strokeWidth=2;strokeColor=#001847;" edge="1" parent="H--HfnbZHBEuk7Bjk80q-2" source="H--HfnbZHBEuk7Bjk80q-79" target="H--HfnbZHBEuk7Bjk80q-102">
          <mxGeometry relative="1" as="geometry" />
        </mxCell>
        <mxCell id="H--HfnbZHBEuk7Bjk80q-79" value="" style="rhombus;whiteSpace=wrap;html=1;fillColor=#FFF2F4;strokeColor=#001847;strokeWidth=2;" vertex="1" parent="H--HfnbZHBEuk7Bjk80q-2">
          <mxGeometry x="1240" y="115" width="60" height="59" as="geometry" />
        </mxCell>
        <mxCell id="H--HfnbZHBEuk7Bjk80q-80" value="" style="verticalLabelPosition=bottom;verticalAlign=top;html=1;shape=mxgraph.basic.x;fillColor=#001847;strokeColor=#001847;strokeWidth=2;" vertex="1" parent="H--HfnbZHBEuk7Bjk80q-2">
          <mxGeometry x="1257.5" y="132.12" width="25" height="24.75" as="geometry" />
        </mxCell>
        <mxCell id="H--HfnbZHBEuk7Bjk80q-68" value="Повторить попытку" style="rounded=1;whiteSpace=wrap;html=1;fillColor=#FFF2F4;strokeColor=#001847;fontColor=#001847;fontStyle=1;fontFamily=Comic Sans MS;strokeWidth=2;" vertex="1" parent="H--HfnbZHBEuk7Bjk80q-2">
          <mxGeometry x="1400" y="15" width="80" height="60" as="geometry" />
        </mxCell>
        <mxCell id="H--HfnbZHBEuk7Bjk80q-127" style="edgeStyle=orthogonalEdgeStyle;rounded=0;orthogonalLoop=1;jettySize=auto;html=1;exitX=1;exitY=0.5;exitDx=0;exitDy=0;entryX=0.5;entryY=1;entryDx=0;entryDy=0;strokeWidth=2;strokeColor=#001847;" edge="1" parent="H--HfnbZHBEuk7Bjk80q-2" source="H--HfnbZHBEuk7Bjk80q-82" target="H--HfnbZHBEuk7Bjk80q-125">
          <mxGeometry relative="1" as="geometry" />
        </mxCell>
        <mxCell id="H--HfnbZHBEuk7Bjk80q-82" value="Подтвердить полет" style="rounded=1;whiteSpace=wrap;html=1;fillColor=#FFF2F4;strokeColor=#001847;fontColor=#001847;fontStyle=1;fontFamily=Comic Sans MS;strokeWidth=2;" vertex="1" parent="H--HfnbZHBEuk7Bjk80q-2">
          <mxGeometry x="1350" y="195" width="80" height="60" as="geometry" />
        </mxCell>
        <mxCell id="H--HfnbZHBEuk7Bjk80q-86" value="Оплата не прошла" style="text;html=1;strokeColor=none;fillColor=none;align=center;verticalAlign=middle;whiteSpace=wrap;rounded=0;fontColor=#001847;fontFamily=Comic Sans MS;fontStyle=1" vertex="1" parent="H--HfnbZHBEuk7Bjk80q-2">
          <mxGeometry x="1290" y="100" width="70" height="40" as="geometry" />
        </mxCell>
        <mxCell id="H--HfnbZHBEuk7Bjk80q-87" value="Оплата прошла" style="text;html=1;strokeColor=none;fillColor=none;align=center;verticalAlign=middle;whiteSpace=wrap;rounded=0;fontColor=#001847;fontFamily=Comic Sans MS;fontStyle=1" vertex="1" parent="H--HfnbZHBEuk7Bjk80q-2">
          <mxGeometry x="1270" y="220" width="70" height="40" as="geometry" />
        </mxCell>
        <mxCell id="H--HfnbZHBEuk7Bjk80q-110" style="edgeStyle=orthogonalEdgeStyle;rounded=0;orthogonalLoop=1;jettySize=auto;html=1;exitX=0.5;exitY=0;exitDx=0;exitDy=0;entryX=0.5;entryY=1;entryDx=0;entryDy=0;strokeWidth=2;strokeColor=#001847;" edge="1" parent="H--HfnbZHBEuk7Bjk80q-2" source="H--HfnbZHBEuk7Bjk80q-102" target="H--HfnbZHBEuk7Bjk80q-68">
          <mxGeometry relative="1" as="geometry" />
        </mxCell>
        <mxCell id="H--HfnbZHBEuk7Bjk80q-112" style="edgeStyle=orthogonalEdgeStyle;rounded=0;orthogonalLoop=1;jettySize=auto;html=1;exitX=1;exitY=0.5;exitDx=0;exitDy=0;entryX=0;entryY=0.5;entryDx=0;entryDy=0;strokeWidth=2;strokeColor=#001847;" edge="1" parent="H--HfnbZHBEuk7Bjk80q-2" source="H--HfnbZHBEuk7Bjk80q-102" target="H--HfnbZHBEuk7Bjk80q-111">
          <mxGeometry relative="1" as="geometry" />
        </mxCell>
        <mxCell id="H--HfnbZHBEuk7Bjk80q-102" value="" style="rhombus;whiteSpace=wrap;html=1;fillColor=#FFF2F4;strokeColor=#001847;strokeWidth=2;" vertex="1" parent="H--HfnbZHBEuk7Bjk80q-2">
          <mxGeometry x="1410" y="115.00000000000001" width="60" height="59" as="geometry" />
        </mxCell>
        <mxCell id="H--HfnbZHBEuk7Bjk80q-103" value="" style="verticalLabelPosition=bottom;verticalAlign=top;html=1;shape=mxgraph.basic.x;fillColor=#001847;strokeColor=#001847;strokeWidth=2;" vertex="1" parent="H--HfnbZHBEuk7Bjk80q-2">
          <mxGeometry x="1427.5" y="132.12" width="25" height="24.75" as="geometry" />
        </mxCell>
        <mxCell id="H--HfnbZHBEuk7Bjk80q-111" value="Отменить заказ" style="rounded=1;whiteSpace=wrap;html=1;fillColor=#FFF2F4;strokeColor=#001847;fontColor=#001847;fontStyle=1;fontFamily=Comic Sans MS;strokeWidth=2;" vertex="1" parent="H--HfnbZHBEuk7Bjk80q-2">
          <mxGeometry x="1520" y="114.5" width="80" height="60" as="geometry" />
        </mxCell>
        <mxCell id="H--HfnbZHBEuk7Bjk80q-115" value="Есть попытки" style="text;html=1;strokeColor=none;fillColor=none;align=center;verticalAlign=middle;whiteSpace=wrap;rounded=0;fontColor=#001847;fontFamily=Comic Sans MS;fontStyle=1" vertex="1" parent="H--HfnbZHBEuk7Bjk80q-2">
          <mxGeometry x="1440" y="75" width="70" height="40" as="geometry" />
        </mxCell>
        <mxCell id="H--HfnbZHBEuk7Bjk80q-116" value="Нет попыток" style="text;html=1;strokeColor=none;fillColor=none;align=center;verticalAlign=middle;whiteSpace=wrap;rounded=0;fontColor=#001847;fontFamily=Comic Sans MS;fontStyle=1" vertex="1" parent="H--HfnbZHBEuk7Bjk80q-2">
          <mxGeometry x="1452.5" y="140" width="70" height="40" as="geometry" />
        </mxCell>
        <mxCell id="H--HfnbZHBEuk7Bjk80q-125" value="" style="rhombus;whiteSpace=wrap;html=1;fillColor=#FFF2F4;strokeColor=#001847;strokeWidth=2;" vertex="1" parent="H--HfnbZHBEuk7Bjk80q-2">
          <mxGeometry x="1820" y="120.49000000000001" width="60" height="59" as="geometry" />
        </mxCell>
        <mxCell id="H--HfnbZHBEuk7Bjk80q-128" value="" style="shape=cross;whiteSpace=wrap;html=1;fillColor=#001847;" vertex="1" parent="H--HfnbZHBEuk7Bjk80q-2">
          <mxGeometry x="1830" y="129.5" width="40" height="41" as="geometry" />
        </mxCell>
        <mxCell id="H--HfnbZHBEuk7Bjk80q-142" value="Данные" style="text;html=1;strokeColor=none;fillColor=none;align=center;verticalAlign=middle;whiteSpace=wrap;rounded=0;fontColor=#001847;fontFamily=Comic Sans MS;fontStyle=1" vertex="1" parent="H--HfnbZHBEuk7Bjk80q-2">
          <mxGeometry x="1680" width="70" height="40" as="geometry" />
        </mxCell>
        <mxCell id="H--HfnbZHBEuk7Bjk80q-150" value="Данные" style="text;html=1;strokeColor=none;fillColor=none;align=center;verticalAlign=middle;whiteSpace=wrap;rounded=0;fontColor=#001847;fontFamily=Comic Sans MS;fontStyle=1" vertex="1" parent="H--HfnbZHBEuk7Bjk80q-2">
          <mxGeometry x="1958" width="70" height="40" as="geometry" />
        </mxCell>
        <mxCell id="Y_pHUTL9zJ1j55iuGQUV-25" value="" style="endArrow=classic;html=1;rounded=0;exitX=0.5;exitY=1;exitDx=0;exitDy=0;strokeColor=#001847;dashed=1;dashPattern=8 8;strokeWidth=2;shadow=0;entryX=0.5;entryY=0;entryDx=0;entryDy=0;" edge="1" parent="1" source="Y_pHUTL9zJ1j55iuGQUV-24" target="Y_pHUTL9zJ1j55iuGQUV-94">
          <mxGeometry width="50" height="50" relative="1" as="geometry">
            <mxPoint x="259.5" y="195" as="sourcePoint" />
            <mxPoint x="259.5" y="260" as="targetPoint" />
          </mxGeometry>
        </mxCell>
        <mxCell id="H--HfnbZHBEuk7Bjk80q-9" value="" style="endArrow=classic;html=1;rounded=0;exitX=0.5;exitY=1;exitDx=0;exitDy=0;strokeColor=#001847;dashed=1;dashPattern=8 8;strokeWidth=2;shadow=0;entryX=0.5;entryY=0;entryDx=0;entryDy=0;" edge="1" parent="1" source="Y_pHUTL9zJ1j55iuGQUV-77" target="H--HfnbZHBEuk7Bjk80q-10">
          <mxGeometry width="50" height="50" relative="1" as="geometry">
            <mxPoint x="619.5" y="415" as="sourcePoint" />
            <mxPoint x="620" y="570" as="targetPoint" />
          </mxGeometry>
        </mxCell>
        <mxCell id="H--HfnbZHBEuk7Bjk80q-25" style="edgeStyle=orthogonalEdgeStyle;rounded=0;orthogonalLoop=1;jettySize=auto;html=1;exitX=0.5;exitY=0;exitDx=0;exitDy=0;strokeColor=#001847;strokeWidth=2;dashed=1;dashPattern=8 8;entryX=1;entryY=0.5;entryDx=0;entryDy=0;" edge="1" parent="1" source="Y_pHUTL9zJ1j55iuGQUV-98" target="H--HfnbZHBEuk7Bjk80q-47">
          <mxGeometry relative="1" as="geometry">
            <mxPoint x="780" y="386" as="targetPoint" />
          </mxGeometry>
        </mxCell>
        <mxCell id="H--HfnbZHBEuk7Bjk80q-52" style="edgeStyle=orthogonalEdgeStyle;rounded=0;orthogonalLoop=1;jettySize=auto;html=1;exitX=0.5;exitY=0;exitDx=0;exitDy=0;entryX=0.5;entryY=1;entryDx=0;entryDy=0;strokeWidth=2;strokeColor=#001847;dashed=1;dashPattern=8 8;" edge="1" parent="1" source="H--HfnbZHBEuk7Bjk80q-40" target="H--HfnbZHBEuk7Bjk80q-51">
          <mxGeometry relative="1" as="geometry" />
        </mxCell>
        <mxCell id="H--HfnbZHBEuk7Bjk80q-57" style="edgeStyle=orthogonalEdgeStyle;rounded=0;orthogonalLoop=1;jettySize=auto;html=1;exitX=1;exitY=0.5;exitDx=0;exitDy=0;entryX=0;entryY=0.5;entryDx=0;entryDy=0;strokeColor=#001847;dashed=1;dashPattern=8 8;strokeWidth=2;" edge="1" parent="1" source="H--HfnbZHBEuk7Bjk80q-20" target="H--HfnbZHBEuk7Bjk80q-54">
          <mxGeometry relative="1" as="geometry" />
        </mxCell>
        <mxCell id="H--HfnbZHBEuk7Bjk80q-65" style="edgeStyle=orthogonalEdgeStyle;rounded=0;orthogonalLoop=1;jettySize=auto;html=1;exitX=0.5;exitY=1;exitDx=0;exitDy=0;entryX=0.5;entryY=0;entryDx=0;entryDy=0;dashed=1;dashPattern=8 8;strokeWidth=2;strokeColor=#001847;" edge="1" parent="1" source="H--HfnbZHBEuk7Bjk80q-56" target="H--HfnbZHBEuk7Bjk80q-63">
          <mxGeometry relative="1" as="geometry" />
        </mxCell>
        <mxCell id="H--HfnbZHBEuk7Bjk80q-90" style="edgeStyle=orthogonalEdgeStyle;rounded=0;orthogonalLoop=1;jettySize=auto;html=1;entryX=0.5;entryY=0;entryDx=0;entryDy=0;dashed=1;dashPattern=8 8;strokeWidth=2;strokeColor=#001847;exitX=0.5;exitY=0;exitDx=0;exitDy=0;" edge="1" parent="1" source="H--HfnbZHBEuk7Bjk80q-68" target="H--HfnbZHBEuk7Bjk80q-54">
          <mxGeometry relative="1" as="geometry">
            <mxPoint x="1430" y="550" as="sourcePoint" />
          </mxGeometry>
        </mxCell>
        <mxCell id="H--HfnbZHBEuk7Bjk80q-119" style="edgeStyle=orthogonalEdgeStyle;rounded=0;orthogonalLoop=1;jettySize=auto;html=1;exitX=0.5;exitY=0;exitDx=0;exitDy=0;entryX=0.5;entryY=1;entryDx=0;entryDy=0;strokeWidth=2;strokeColor=#001847;dashed=1;dashPattern=8 8;" edge="1" parent="1" source="H--HfnbZHBEuk7Bjk80q-111" target="H--HfnbZHBEuk7Bjk80q-117">
          <mxGeometry relative="1" as="geometry" />
        </mxCell>
        <mxCell id="H--HfnbZHBEuk7Bjk80q-135" style="edgeStyle=orthogonalEdgeStyle;rounded=0;orthogonalLoop=1;jettySize=auto;html=1;exitX=0;exitY=0.5;exitDx=0;exitDy=0;entryX=0;entryY=0.5;entryDx=0;entryDy=0;dashed=1;dashPattern=8 8;strokeWidth=2;strokeColor=#001847;" edge="1" parent="1" source="H--HfnbZHBEuk7Bjk80q-125" target="H--HfnbZHBEuk7Bjk80q-132">
          <mxGeometry relative="1" as="geometry" />
        </mxCell>
        <mxCell id="H--HfnbZHBEuk7Bjk80q-148" style="edgeStyle=orthogonalEdgeStyle;rounded=0;orthogonalLoop=1;jettySize=auto;html=1;exitX=1;exitY=0.5;exitDx=0;exitDy=0;entryX=1;entryY=1;entryDx=0;entryDy=0;strokeWidth=2;strokeColor=#001847;dashed=1;dashPattern=8 8;" edge="1" parent="1" source="H--HfnbZHBEuk7Bjk80q-125" target="H--HfnbZHBEuk7Bjk80q-139">
          <mxGeometry relative="1" as="geometry" />
        </mxCell>
        <mxCell id="H--HfnbZHBEuk7Bjk80q-149" style="edgeStyle=orthogonalEdgeStyle;rounded=0;orthogonalLoop=1;jettySize=auto;html=1;exitX=1;exitY=0.5;exitDx=0;exitDy=0;entryX=0;entryY=1;entryDx=0;entryDy=0;strokeWidth=2;strokeColor=#001847;dashed=1;dashPattern=8 8;" edge="1" parent="1" source="H--HfnbZHBEuk7Bjk80q-130" target="H--HfnbZHBEuk7Bjk80q-139">
          <mxGeometry relative="1" as="geometry" />
        </mxCell>
      </root>
    </mxGraphModel>
  </diagram>
</mxfile>
